{
DisplayStrings = (
"/alef-hb/alef-hb/bet-hb/gimel-hb/dalet-hb/he-hb/vav-hb/zayin-hb/het-hb/tet-hb/yod-hb/finalkaf-hb/kaf-hb/lamed-hb/finalmem-hb/mem-hb/finalnun-hb/nun-hb/samekh-hb/ayin-hb/finalpe-hb/pe-hb/pe-hb/finaltsadi-hb/tsadi-hb/qof-hb/resh-hb/shin-hb/tav-hb",
"/sheva-hb/hatafsegol-hb/hatafpatah-hb/hatafqamats-hb/hiriq-hb/tsere-hb/segol-hb/patah-hb/qamats-hb/holam-hb/holamhaser-hb/qubuts-hb/dagesh-hb/rafe-hb/shindot-hb/sindot-hb/qamatsqatan-hb",
"/alef-hb/vav-hb/bet-hb/yod-hb/bet-hb/gimel-hb/dalet-hb/bet-hb/resh-hb/bet-hb/lamed-hb/bet-hb/lamed-hb/bet-hb/lamed-hb/alef-hb/shin-hb/yod-hb/tav-hb/he-hb/vav-hb/zayin-hb/het-hb/tav-hb/yod-hb/tet-hb/yod-hb/finalkaf-hb/kaf-hb/lamed-hb/finalmem-hb/mem-hb/yod-hb/finalnun-hb/nun-hb/samekh-hb/lamed-hb/he-hb/yod-hb/vav-hb  /mem-hb/kaf-hb/nun-hb/he-hb  /tav-hb/mem-hb/qof-hb/vav-hb/finalmem-hb  n/ayin-hb/finalpe-hb/pe-hb/finaltsadi-hb/tsadi-hb/qof-hb/resh-hb/shin-hb/tav-hb/shinshindot-hb/shinsindot-hb/shindageshshindot-hb/shindageshsindot-hb/alefpatah-hb/alef-hb/alefqamats-hb/alefdagesh-hb/alef-hb/tav-hb/vav-hb/betdagesh-hb/gimeldagesh-hb/daletdagesh-hb/hedagesh-hb/vavdagesh-hb/zayindagesh-hb/dagesh-hb/tetdagesh-hb/yoddagesh-hb/finalkafdagesh-hb/kafdagesh-hb/lameddagesh-hb/memdagesh-hb/nundagesh-hb/samekhdagesh-hb/finalpedagesh-hb/pedagesh-hb/tsadidagesh-hb/qofdagesh-hb/reshdagesh-hb/shindagesh-hb/tavdagesh-hb/vavholam-hb/maqaf-hb/sheva-hb/hatafsegol-hb -=/hatafpatah-hb/hatafqamats-hb/hiriq-hb/tsere-hb/segol-hb/patah-hb/qamats-hb/holam-hb/holamhaser-hb/qubuts-hb/dagesh-hb/rafe-hb/shindot-hb/sindot-hb/qamatsqatan-hb"
);
copyright = "Digitized data Copyright (c) 2011-2013, vernon adams.";
customParameters = (
{
name = license;
value = "Copyright (c) 2013, vernon adams.\012\012This Font Software is licensed under the SIL Open Font License, Version 1.1.\012This license is copied below, and is also available with a FAQ at:\012http://scripts.sil.org/OFL\012";
},
{
name = licenseURL;
value = "http://scripts.sil.org/OFL";
},
{

glyphs = (
{
glyphname = A;
lastChange = "2015-11-03 20:15:51 +0000";
layers = (
{
layerId = "27A8C2A5-6B67-4598-967C-E5EC4FB8AE70";
name = Condensed;
paths = (
{
closed = 1;
nodes = (
"612 0 OFFCURVE",
"625 5 OFFCURVE",
"630 17 CURVE SMOOTH",
"635 28 OFFCURVE",
"636 37 OFFCURVE",
"636 57 CURVE SMOOTH",
"636 66 LINE SMOOTH",
"636 125 OFFCURVE",
"632 214 OFFCURVE",
"625 333 CURVE SMOOTH",
"617 452 OFFCURVE",
"613 541 OFFCURVE",
"613 600 CURVE",
"585 940 LINE SMOOTH",
"569 1120 OFFCURVE",
"532 1489 OFFCURVE",
"515 1516 CURVE",
"505 1529 OFFCURVE",
"489 1536 OFFCURVE",
"468 1536 CURVE SMOOTH",
"459 1536 OFFCURVE",
"450 1525 OFFCURVE",
"439 1502 CURVE SMOOTH",
"428 1479 OFFCURVE",
"418 1452 OFFCURVE",
"409 1419 CURVE SMOOTH",
"390 1353 OFFCURVE",
"379 1305 OFFCURVE",
"372 1274 CURVE SMOOTH",
"353 1189 OFFCURVE",
"329 1056 OFFCURVE",
"298 877 CURVE SMOOTH",
"267 698 OFFCURVE",
"241 562 OFFCURVE",
"220 471 CURVE SMOOTH",
"215 450 OFFCURVE",
"205 405 OFFCURVE",
"190 336 CURVE SMOOTH",
"175 267 OFFCURVE",
"161 204 OFFCURVE",
"148 147 CURVE SMOOTH",
"135 90 OFFCURVE",
"127 56 OFFCURVE",
"124 45 CURVE",
"124 44 OFFCURVE",
"124 43 OFFCURVE",
"124 42 CURVE",
"123 41 OFFCURVE",
"123 40 OFFCURVE",
"123 39 CURVE SMOOTH",
"123 20 OFFCURVE",
"145 5 OFFCURVE",
"165 5 CURVE SMOOTH",
"177 5 OFFCURVE",
"184 10 OFFCURVE",
"187 20 CURVE",
"188 27 OFFCURVE",
"224 189 OFFCURVE",
"250 292 CURVE SMOOTH",
"263 343 OFFCURVE",
"271 369 OFFCURVE",
"276 369 CURVE SMOOTH",
"347 369 OFFCURVE",
"552 338 OFFCURVE",
"552 303 CURVE SMOOTH",
"552 35 LINE SMOOTH",
"552 15 OFFCURVE",
"571 0 OFFCURVE",
"591 0 CURVE SMOOTH"
);
},
{
closed = 1;
nodes = (
"507 396 OFFCURVE",
"502 396 OFFCURVE",
"496 397 CURVE",
"490 397 OFFCURVE",
"486 397 OFFCURVE",
"484 397 CURVE SMOOTH",
"403 397 OFFCURVE",
"334 407 OFFCURVE",
"277 426 CURVE",
"277 438 LINE SMOOTH",
"277 483 OFFCURVE",
"289 532 OFFCURVE",
"307 594 CURVE SMOOTH",
"316 625 OFFCURVE",
"322 648 OFFCURVE",
"325 664 CURVE",
"352 780 OFFCURVE",
"383 957 OFFCURVE",
"409 1122 CURVE SMOOTH",
"435 1287 OFFCURVE",
"450 1371 OFFCURVE",
"473 1436 CURVE",
"473 1430 OFFCURVE",
"474 1422 OFFCURVE",
"477 1411 CURVE",
"479 1400 OFFCURVE",
"480 1393 OFFCURVE",
"481 1389 CURVE",
"488 1326 OFFCURVE",
"497 1246 OFFCURVE",
"506 1151 CURVE SMOOTH",
"524 960 OFFCURVE",
"550 601 OFFCURVE",
"550 416 CURVE SMOOTH",
"550 403 OFFCURVE",
"537 396 OFFCURVE",
"510 396 CURVE SMOOTH"
);
}
);
width = 800;
}
);
note = A;
unicode = 0041;
},
{
glyphname = Aacute;
lastChange = "2015-11-03 20:15:51 +0000";
layers = (
{
layerId = "27A8C2A5-6B67-4598-967C-E5EC4FB8AE70";
name = Condensed;
paths = (
{
closed = 1;
nodes = (
"353 1875 OFFCURVE",
"372 1893 OFFCURVE",
"409 1923 CURVE SMOOTH",
"446 1953 OFFCURVE",
"487 1985 OFFCURVE",
"531 2019 CURVE SMOOTH",
"574 2052 OFFCURVE",
"600 2072 OFFCURVE",
"607 2079 CURVE",
"637 2079 OFFCURVE",
"652 2068 OFFCURVE",
"652 2047 CURVE SMOOTH",
"652 2046 OFFCURVE",
"650 2036 OFFCURVE",
"646 2016 CURVE",
"577 1985 OFFCURVE",
"492 1927 OFFCURVE",
"390 1840 CURVE",
"370 1840 OFFCURVE",
"353 1851 OFFCURVE",
"353 1870 CURVE SMOOTH"
);
},
{
closed = 1;
nodes = (
"277 426 LINE",
"334 407 OFFCURVE",
"403 397 OFFCURVE",
"484 397 CURVE SMOOTH",
"486 397 OFFCURVE",
"490 397 OFFCURVE",
"496 397 CURVE",
"502 396 OFFCURVE",
"507 396 OFFCURVE",
"510 396 CURVE SMOOTH",
"537 396 OFFCURVE",
"550 403 OFFCURVE",
"550 416 CURVE SMOOTH",
"550 601 OFFCURVE",
"524 960 OFFCURVE",
"506 1151 CURVE SMOOTH",
"497 1246 OFFCURVE",
"488 1326 OFFCURVE",
"481 1389 CURVE",
"480 1393 OFFCURVE",
"479 1400 OFFCURVE",
"477 1411 CURVE",
"474 1422 OFFCURVE",
"473 1430 OFFCURVE",
"473 1436 CURVE",
"450 1371 OFFCURVE",
"435 1287 OFFCURVE",
"409 1122 CURVE SMOOTH",
"383 957 OFFCURVE",
"352 780 OFFCURVE",
"325 664 CURVE",
"322 648 OFFCURVE",
"316 625 OFFCURVE",
"307 594 CURVE SMOOTH",
"289 532 OFFCURVE",
"277 483 OFFCURVE",
"277 438 CURVE SMOOTH"
);
},
{
closed = 1;
nodes = (
"552 303 LINE SMOOTH",
"552 338 OFFCURVE",
"347 369 OFFCURVE",
"276 369 CURVE SMOOTH",
"271 369 OFFCURVE",
"263 343 OFFCURVE",
"250 292 CURVE SMOOTH",
"224 189 OFFCURVE",
"188 27 OFFCURVE",
"187 20 CURVE",
"184 10 OFFCURVE",
"177 5 OFFCURVE",
"165 5 CURVE SMOOTH",
"145 5 OFFCURVE",
"123 20 OFFCURVE",
"123 39 CURVE SMOOTH",
"123 40 OFFCURVE",
"123 41 OFFCURVE",
"124 42 CURVE",
"124 43 OFFCURVE",
"124 44 OFFCURVE",
"124 45 CURVE",
"127 56 OFFCURVE",
"135 90 OFFCURVE",
"148 147 CURVE SMOOTH",
"161 204 OFFCURVE",
"175 267 OFFCURVE",
"190 336 CURVE SMOOTH",
"205 405 OFFCURVE",
"215 450 OFFCURVE",
"220 471 CURVE SMOOTH",
"241 562 OFFCURVE",
"267 698 OFFCURVE",
"298 877 CURVE SMOOTH",
"329 1056 OFFCURVE",
"353 1189 OFFCURVE",
"372 1274 CURVE SMOOTH",
"379 1305 OFFCURVE",
"390 1353 OFFCURVE",
"409 1419 CURVE SMOOTH",
"418 1452 OFFCURVE",
"428 1479 OFFCURVE",
"439 1502 CURVE SMOOTH",
"450 1525 OFFCURVE",
"459 1536 OFFCURVE",
"468 1536 CURVE SMOOTH",
"489 1536 OFFCURVE",
"505 1529 OFFCURVE",
"515 1516 CURVE",
"532 1489 OFFCURVE",
"569 1120 OFFCURVE",
"585 940 CURVE SMOOTH",
"613 600 LINE",
"613 541 OFFCURVE",
"617 452 OFFCURVE",
"625 333 CURVE SMOOTH",
"632 214 OFFCURVE",
"636 125 OFFCURVE",
"636 66 CURVE SMOOTH",
"636 57 LINE SMOOTH",
"636 37 OFFCURVE",
"635 28 OFFCURVE",
"630 17 CURVE SMOOTH",
"625 5 OFFCURVE",
"612 0 OFFCURVE",
"591 0 CURVE SMOOTH",
"571 0 OFFCURVE",
"552 15 OFFCURVE",
"552 35 CURVE SMOOTH"
);
}
);
width = 800;
}
);
note = Aacute;
unicode = 00C1;
},
{
glyphname = Abreve;
lastChange = "2015-11-03 20:15:51 +0000";
layers = (
{
layerId = "27A8C2A5-6B67-4598-967C-E5EC4FB8AE70";
name = Condensed;
paths = (
{
closed = 1;
nodes = (
"375 1959 LINE",
"384 1958 OFFCURVE",
"391 1948 OFFCURVE",
"395 1927 CURVE SMOOTH",
"402 1886 OFFCURVE",
"414 1819 OFFCURVE",
"447 1795 CURVE SMOOTH",
"469 1779 LINE",
"520 1779 LINE SMOOTH",
"556 1779 OFFCURVE",
"590 1844 OFFCURVE",
"590 1883 CURVE SMOOTH",
"590 1886 OFFCURVE",
"590 1891 OFFCURVE",
"589 1898 CURVE SMOOTH",
"588 1904 OFFCURVE",
"588 1909 OFFCURVE",
"588 1912 CURVE SMOOTH",
"588 1938 OFFCURVE",
"600 1951 OFFCURVE",
"625 1951 CURVE SMOOTH",
"640 1951 OFFCURVE",
"656 1938 OFFCURVE",
"656 1922 CURVE SMOOTH",
"656 1919 OFFCURVE",
"654 1913 OFFCURVE",
"651 1905 CURVE SMOOTH",
"648 1897 OFFCURVE",
"646 1892 OFFCURVE",
"645 1890 CURVE",
"650 1875 LINE",
"647 1868 OFFCURVE",
"641 1857 OFFCURVE",
"634 1840 CURVE SMOOTH",
"619 1806 OFFCURVE",
"617 1800 OFFCURVE",
"601 1777 CURVE SMOOTH",
"585 1753 OFFCURVE",
"572 1747 OFFCURVE",
"546 1739 CURVE",
"533 1734 OFFCURVE",
"518 1732 OFFCURVE",
"502 1732 CURVE SMOOTH",
"447 1732 OFFCURVE",
"405 1759 OFFCURVE",
"384 1802 CURVE SMOOTH",
"363 1845 OFFCURVE",
"353 1890 OFFCURVE",
"353 1941 CURVE"
);
},
{
closed = 1;
nodes = (
"277 426 LINE",
"334 407 OFFCURVE",
"403 397 OFFCURVE",
"484 397 CURVE SMOOTH",
"486 397 OFFCURVE",
"490 397 OFFCURVE",
"496 397 CURVE",
"502 396 OFFCURVE",
"507 396 OFFCURVE",
"510 396 CURVE SMOOTH",
"537 396 OFFCURVE",
"550 403 OFFCURVE",
"550 416 CURVE SMOOTH",
"550 601 OFFCURVE",
"524 960 OFFCURVE",
"506 1151 CURVE SMOOTH",
"497 1246 OFFCURVE",
"488 1326 OFFCURVE",
"481 1389 CURVE",
"480 1393 OFFCURVE",
"479 1400 OFFCURVE",
"477 1411 CURVE",
"474 1422 OFFCURVE",
"473 1430 OFFCURVE",
"473 1436 CURVE",
"450 1371 OFFCURVE",
"435 1287 OFFCURVE",
"409 1122 CURVE SMOOTH",
"383 957 OFFCURVE",
"352 780 OFFCURVE",
"325 664 CURVE",
"322 648 OFFCURVE",
"316 625 OFFCURVE",
"307 594 CURVE SMOOTH",
"289 532 OFFCURVE",
"277 483 OFFCURVE",
"277 438 CURVE SMOOTH"
);
},
{
closed = 1;
nodes = (
"552 303 LINE SMOOTH",
"552 338 OFFCURVE",
"347 369 OFFCURVE",
"276 369 CURVE SMOOTH",
"271 369 OFFCURVE",
"263 343 OFFCURVE",
"250 292 CURVE SMOOTH",
"224 189 OFFCURVE",
"188 27 OFFCURVE",
"187 20 CURVE",
"184 10 OFFCURVE",
"177 5 OFFCURVE",
"165 5 CURVE SMOOTH",
"145 5 OFFCURVE",
"123 20 OFFCURVE",
"123 39 CURVE SMOOTH",
"123 40 OFFCURVE",
"123 41 OFFCURVE",
"124 42 CURVE",
"124 43 OFFCURVE",
"124 44 OFFCURVE",
"124 45 CURVE",
"127 56 OFFCURVE",
"135 90 OFFCURVE",
"148 147 CURVE SMOOTH",
"161 204 OFFCURVE",
"175 267 OFFCURVE",
"190 336 CURVE SMOOTH",
"205 405 OFFCURVE",
"215 450 OFFCURVE",
"220 471 CURVE SMOOTH",
"241 562 OFFCURVE",
"267 698 OFFCURVE",
"298 877 CURVE SMOOTH",
"329 1056 OFFCURVE",
"353 1189 OFFCURVE",
"372 1274 CURVE SMOOTH",
"379 1305 OFFCURVE",
"390 1353 OFFCURVE",
"409 1419 CURVE SMOOTH",
"418 1452 OFFCURVE",
"428 1479 OFFCURVE",
"439 1502 CURVE SMOOTH",
"450 1525 OFFCURVE",
"459 1536 OFFCURVE",
"468 1536 CURVE SMOOTH",
"489 1536 OFFCURVE",
"505 1529 OFFCURVE",
"515 1516 CURVE",
"532 1489 OFFCURVE",
"569 1120 OFFCURVE",
"585 940 CURVE SMOOTH",
"613 600 LINE",
"613 541 OFFCURVE",
"617 452 OFFCURVE",
"625 333 CURVE SMOOTH",
"632 214 OFFCURVE",
"636 125 OFFCURVE",
"636 66 CURVE SMOOTH",
"636 57 LINE SMOOTH",
"636 37 OFFCURVE",
"635 28 OFFCURVE",
"630 17 CURVE SMOOTH",
"625 5 OFFCURVE",
"612 0 OFFCURVE",
"591 0 CURVE SMOOTH",
"571 0 OFFCURVE",
"552 15 OFFCURVE",
"552 35 CURVE SMOOTH"
);
}
);
width = 800;
}
);
note = Abreve;
unicode = 0102;
},
{
glyphname = Acircumflex;
lastChange = "2015-11-03 20:15:51 +0000";
layers = (
{
layerId = "27A8C2A5-6B67-4598-967C-E5EC4FB8AE70";
name = Condensed;
paths = (
{
closed = 1;
nodes = (
"554 1698 LINE",
"547 1781 OFFCURVE",
"528 1883 OFFCURVE",
"495 2005 CURVE",
"492 1998 OFFCURVE",
"448 1876 OFFCURVE",
"427 1809 CURVE SMOOTH",
"416 1776 OFFCURVE",
"410 1752 OFFCURVE",
"409 1739 CURVE",
"374 1692 LINE",
"337 1718 LINE",
"340 1778 OFFCURVE",
"468 2064 OFFCURVE",
"509 2064 CURVE SMOOTH",
"528 2064 OFFCURVE",
"538 2050 OFFCURVE",
"538 2021 CURVE SMOOTH",
"538 1968 OFFCURVE",
"551 1920 OFFCURVE",
"575 1856 CURVE SMOOTH",
"586 1824 OFFCURVE",
"594 1799 OFFCURVE",
"599 1782 CURVE",
"597 1769 LINE",
"612 1739 LINE",
"610 1728 LINE",
"615 1717 OFFCURVE",
"618 1710 OFFCURVE",
"618 1706 CURVE SMOOTH",
"618 1693 OFFCURVE",
"606 1685 OFFCURVE",
"581 1681 CURVE"
);
},
{
closed = 1;
nodes = (
"277 426 LINE",
"334 407 OFFCURVE",
"403 397 OFFCURVE",
"484 397 CURVE SMOOTH",
"486 397 OFFCURVE",
"490 397 OFFCURVE",
"496 397 CURVE",
"502 396 OFFCURVE",
"507 396 OFFCURVE",
"510 396 CURVE SMOOTH",
"537 396 OFFCURVE",
"550 403 OFFCURVE",
"550 416 CURVE SMOOTH",
"550 601 OFFCURVE",
"524 960 OFFCURVE",
"506 1151 CURVE SMOOTH",
"497 1246 OFFCURVE",
"488 1326 OFFCURVE",
"481 1389 CURVE",
"480 1393 OFFCURVE",
"479 1400 OFFCURVE",
"477 1411 CURVE",
"474 1422 OFFCURVE",
"473 1430 OFFCURVE",
"473 1436 CURVE",
"450 1371 OFFCURVE",
"435 1287 OFFCURVE",
"409 1122 CURVE SMOOTH",
"383 957 OFFCURVE",
"352 780 OFFCURVE",
"325 664 CURVE",
"322 648 OFFCURVE",
"316 625 OFFCURVE",
"307 594 CURVE SMOOTH",
"289 532 OFFCURVE",
"277 483 OFFCURVE",
"277 438 CURVE SMOOTH"
);
},
{
closed = 1;
nodes = (
"552 303 LINE SMOOTH",
"552 338 OFFCURVE",
"347 369 OFFCURVE",
"276 369 CURVE SMOOTH",
"271 369 OFFCURVE",
"263 343 OFFCURVE",
"250 292 CURVE SMOOTH",
"224 189 OFFCURVE",
"188 27 OFFCURVE",
"187 20 CURVE",
"184 10 OFFCURVE",
"177 5 OFFCURVE",
"165 5 CURVE SMOOTH",
"145 5 OFFCURVE",
"123 20 OFFCURVE",
"123 39 CURVE SMOOTH",
"123 40 OFFCURVE",
"123 41 OFFCURVE",
"124 42 CURVE",
"124 43 OFFCURVE",
"124 44 OFFCURVE",
"124 45 CURVE",
"127 56 OFFCURVE",
"135 90 OFFCURVE",
"148 147 CURVE SMOOTH",
"161 204 OFFCURVE",
"175 267 OFFCURVE",
"190 336 CURVE SMOOTH",
"205 405 OFFCURVE",
"215 450 OFFCURVE",
"220 471 CURVE SMOOTH",
"241 562 OFFCURVE",
"267 698 OFFCURVE",
"298 877 CURVE SMOOTH",
"329 1056 OFFCURVE",
"353 1189 OFFCURVE",
"372 1274 CURVE SMOOTH",
"379 1305 OFFCURVE",
"390 1353 OFFCURVE",
"409 1419 CURVE SMOOTH",
"418 1452 OFFCURVE",
"428 1479 OFFCURVE",
"439 1502 CURVE SMOOTH",
"450 1525 OFFCURVE",
"459 1536 OFFCURVE",
"468 1536 CURVE SMOOTH",
"489 1536 OFFCURVE",
"505 1529 OFFCURVE",
"515 1516 CURVE",
"532 1489 OFFCURVE",
"569 1120 OFFCURVE",
"585 940 CURVE SMOOTH",
"613 600 LINE",
"613 541 OFFCURVE",
"617 452 OFFCURVE",
"625 333 CURVE SMOOTH",
"632 214 OFFCURVE",
"636 125 OFFCURVE",
"636 66 CURVE SMOOTH",
"636 57 LINE SMOOTH",
"636 37 OFFCURVE",
"635 28 OFFCURVE",
"630 17 CURVE SMOOTH",
"625 5 OFFCURVE",
"612 0 OFFCURVE",
"591 0 CURVE SMOOTH",
"571 0 OFFCURVE",
"552 15 OFFCURVE",
"552 35 CURVE SMOOTH"
);
}
);
width = 800;
}
);
note = Acircumflex;
unicode = 00C2;
},
{
glyphname = Adieresis;
lastChange = "2015-11-03 20:15:51 +0000";
layers = (
{
layerId = "27A8C2A5-6B67-4598-967C-E5EC4FB8AE70";
name = Condensed;
paths = (
{
closed = 1;
nodes = (
"205 1887 OFFCURVE",
"230 1914 OFFCURVE",
"254 1914 CURVE SMOOTH",
"283 1914 OFFCURVE",
"295 1880 OFFCURVE",
"295 1847 CURVE SMOOTH",
"295 1824 OFFCURVE",
"268 1812 OFFCURVE",
"244 1812 CURVE SMOOTH",
"221 1812 OFFCURVE",
"205 1840 OFFCURVE",
"205 1863 CURVE SMOOTH"
);
},
{
closed = 1;
nodes = (
"665 1890 OFFCURVE",
"690 1916 OFFCURVE",
"715 1916 CURVE SMOOTH",
"738 1916 OFFCURVE",
"760 1888 OFFCURVE",
"760 1867 CURVE SMOOTH",
"760 1836 OFFCURVE",
"742 1820 OFFCURVE",
"706 1820 CURVE SMOOTH",
"685 1820 OFFCURVE",
"665 1844 OFFCURVE",
"665 1865 CURVE SMOOTH"
);
},
{
closed = 1;
nodes = (
"277 426 LINE",
"334 407 OFFCURVE",
"403 397 OFFCURVE",
"484 397 CURVE SMOOTH",
"486 397 OFFCURVE",
"490 397 OFFCURVE",
"496 397 CURVE",
"502 396 OFFCURVE",
"507 396 OFFCURVE",
"510 396 CURVE SMOOTH",
"537 396 OFFCURVE",
"550 403 OFFCURVE",
"550 416 CURVE SMOOTH",
"550 601 OFFCURVE",
"524 960 OFFCURVE",
"506 1151 CURVE SMOOTH",
"497 1246 OFFCURVE",
"488 1326 OFFCURVE",
"481 1389 CURVE",
"480 1393 OFFCURVE",
"479 1400 OFFCURVE",
"477 1411 CURVE",
"474 1422 OFFCURVE",
"473 1430 OFFCURVE",
"473 1436 CURVE",
"450 1371 OFFCURVE",
"435 1287 OFFCURVE",
"409 1122 CURVE SMOOTH",
"383 957 OFFCURVE",
"352 780 OFFCURVE",
"325 664 CURVE",
"322 648 OFFCURVE",
"316 625 OFFCURVE",
"307 594 CURVE SMOOTH",
"289 532 OFFCURVE",
"277 483 OFFCURVE",
"277 438 CURVE SMOOTH"
);
},
{
closed = 1;
nodes = (
"552 303 LINE SMOOTH",
"552 338 OFFCURVE",
"347 369 OFFCURVE",
"276 369 CURVE SMOOTH",
"271 369 OFFCURVE",
"263 343 OFFCURVE",
"250 292 CURVE SMOOTH",
"224 189 OFFCURVE",
"188 27 OFFCURVE",
"187 20 CURVE",
"184 10 OFFCURVE",
"177 5 OFFCURVE",
"165 5 CURVE SMOOTH",
"145 5 OFFCURVE",
"123 20 OFFCURVE",
"123 39 CURVE SMOOTH",
"123 40 OFFCURVE",
"123 41 OFFCURVE",
"124 42 CURVE",
"124 43 OFFCURVE",
"124 44 OFFCURVE",
"124 45 CURVE",
"127 56 OFFCURVE",
"135 90 OFFCURVE",
"148 147 CURVE SMOOTH",
"161 204 OFFCURVE",
"175 267 OFFCURVE",
"190 336 CURVE SMOOTH",
"205 405 OFFCURVE",
"215 450 OFFCURVE",
"220 471 CURVE SMOOTH",
"241 562 OFFCURVE",
"267 698 OFFCURVE",
"298 877 CURVE SMOOTH",
"329 1056 OFFCURVE",
"353 1189 OFFCURVE",
"372 1274 CURVE SMOOTH",
"379 1305 OFFCURVE",
"390 1353 OFFCURVE",
"409 1419 CURVE SMOOTH",
"418 1452 OFFCURVE",
"428 1479 OFFCURVE",
"439 1502 CURVE SMOOTH",
"450 1525 OFFCURVE",
"459 1536 OFFCURVE",
"468 1536 CURVE SMOOTH",
"489 1536 OFFCURVE",
"505 1529 OFFCURVE",
"515 1516 CURVE",
"532 1489 OFFCURVE",
"569 1120 OFFCURVE",
"585 940 CURVE SMOOTH",
"613 600 LINE",
"613 541 OFFCURVE",
"617 452 OFFCURVE",
"625 333 CURVE SMOOTH",
"632 214 OFFCURVE",
"636 125 OFFCURVE",
"636 66 CURVE SMOOTH",
"636 57 LINE SMOOTH",
"636 37 OFFCURVE",
"635 28 OFFCURVE",
"630 17 CURVE SMOOTH",
"625 5 OFFCURVE",
"612 0 OFFCURVE",
"591 0 CURVE SMOOTH",
"571 0 OFFCURVE",
"552 15 OFFCURVE",
"552 35 CURVE SMOOTH"
);
}
);
width = 800;
}
);
note = Adieresis;
unicode = 00C4;
},
{
glyphname = Agrave;
lastChange = "2015-11-03 20:15:51 +0000";
layers = (
{
layerId = "27A8C2A5-6B67-4598-967C-E5EC4FB8AE70";
name = Condensed;
paths = (
{
closed = 1;
nodes = (
"268 1948 OFFCURVE",
"257 1947 OFFCURVE",
"248 1947 CURVE SMOOTH",
"201 1947 OFFCURVE",
"178 1961 OFFCURVE",
"178 1988 CURVE SMOOTH",
"178 2012 OFFCURVE",
"182 2027 OFFCURVE",
"191 2033 CURVE",
"204 2033 LINE SMOOTH",
"245 2033 OFFCURVE",
"271 2025 OFFCURVE",
"283 2010 CURVE",
"284 2009 OFFCURVE",
"293 2007 OFFCURVE",
"308 2002 CURVE SMOOTH",
"338 1992 OFFCURVE",
"353 1986 OFFCURVE",
"389 1972 CURVE SMOOTH",
"424 1958 OFFCURVE",
"448 1947 OFFCURVE",
"473 1933 CURVE SMOOTH",
"498 1919 OFFCURVE",
"512 1905 OFFCURVE",
"512 1894 CURVE SMOOTH",
"512 1885 OFFCURVE",
"497 1877 OFFCURVE",
"488 1877 CURVE SMOOTH",
"483 1877 OFFCURVE",
"293 1944 OFFCURVE",
"281 1951 CURVE"
);
},
{
closed = 1;
nodes = (
"277 426 LINE",
"334 407 OFFCURVE",
"403 397 OFFCURVE",
"484 397 CURVE SMOOTH",
"486 397 OFFCURVE",
"490 397 OFFCURVE",
"496 397 CURVE",
"502 396 OFFCURVE",
"507 396 OFFCURVE",
"510 396 CURVE SMOOTH",
"537 396 OFFCURVE",
"550 403 OFFCURVE",
"550 416 CURVE SMOOTH",
"550 601 OFFCURVE",
"524 960 OFFCURVE",
"506 1151 CURVE SMOOTH",
"497 1246 OFFCURVE",
"488 1326 OFFCURVE",
"481 1389 CURVE",
"480 1393 OFFCURVE",
"479 1400 OFFCURVE",
"477 1411 CURVE",
"474 1422 OFFCURVE",
"473 1430 OFFCURVE",
"473 1436 CURVE",
"450 1371 OFFCURVE",
"435 1287 OFFCURVE",
"409 1122 CURVE SMOOTH",
"383 957 OFFCURVE",
"352 780 OFFCURVE",
"325 664 CURVE",
"322 648 OFFCURVE",
"316 625 OFFCURVE",
"307 594 CURVE SMOOTH",
"289 532 OFFCURVE",
"277 483 OFFCURVE",
"277 438 CURVE SMOOTH"
);
},
{
closed = 1;
nodes = (
"552 303 LINE SMOOTH",
"552 338 OFFCURVE",
"347 369 OFFCURVE",
"276 369 CURVE SMOOTH",
"271 369 OFFCURVE",
"263 343 OFFCURVE",
"250 292 CURVE SMOOTH",
"224 189 OFFCURVE",
"188 27 OFFCURVE",
"187 20 CURVE",
"184 10 OFFCURVE",
"177 5 OFFCURVE",
"165 5 CURVE SMOOTH",
"145 5 OFFCURVE",
"123 20 OFFCURVE",
"123 39 CURVE SMOOTH",
"123 40 OFFCURVE",
"123 41 OFFCURVE",
"124 42 CURVE",
"124 43 OFFCURVE",
"124 44 OFFCURVE",
"124 45 CURVE",
"127 56 OFFCURVE",
"135 90 OFFCURVE",
"148 147 CURVE SMOOTH",
"161 204 OFFCURVE",
"175 267 OFFCURVE",
"190 336 CURVE SMOOTH",
"205 405 OFFCURVE",
"215 450 OFFCURVE",
"220 471 CURVE SMOOTH",
"241 562 OFFCURVE",
"267 698 OFFCURVE",
"298 877 CURVE SMOOTH",
"329 1056 OFFCURVE",
"353 1189 OFFCURVE",
"372 1274 CURVE SMOOTH",
"379 1305 OFFCURVE",
"390 1353 OFFCURVE",
"409 1419 CURVE SMOOTH",
"418 1452 OFFCURVE",
"428 1479 OFFCURVE",
"439 1502 CURVE SMOOTH",
"450 1525 OFFCURVE",
"459 1536 OFFCURVE",
"468 1536 CURVE SMOOTH",
"489 1536 OFFCURVE",
"505 1529 OFFCURVE",
"515 1516 CURVE",
"532 1489 OFFCURVE",
"569 1120 OFFCURVE",
"585 940 CURVE SMOOTH",
"613 600 LINE",
"613 541 OFFCURVE",
"617 452 OFFCURVE",
"625 333 CURVE SMOOTH",
"632 214 OFFCURVE",
"636 125 OFFCURVE",
"636 66 CURVE SMOOTH",
"636 57 LINE SMOOTH",
"636 37 OFFCURVE",
"635 28 OFFCURVE",
"630 17 CURVE SMOOTH",
"625 5 OFFCURVE",
"612 0 OFFCURVE",
"591 0 CURVE SMOOTH",
"571 0 OFFCURVE",
"552 15 OFFCURVE",
"552 35 CURVE SMOOTH"
);
}
);
width = 800;
}
);
note = Agrave;
unicode = 00C0;
},
{
glyphname = Amacron;
lastChange = "2015-11-03 20:15:51 +0000";
layers = (
{
layerId = "27A8C2A5-6B67-4598-967C-E5EC4FB8AE70";
name = Condensed;
paths = (
{
closed = 1;
nodes = (
"715 1840 OFFCURVE",
"671 1834 OFFCURVE",
"585 1834 CURVE SMOOTH",
"470 1834 LINE SMOOTH",
"452 1834 OFFCURVE",
"439 1834 OFFCURVE",
"430 1834 CURVE SMOOTH",
"413 1834 OFFCURVE",
"379 1835 OFFCURVE",
"365 1838 CURVE SMOOTH",
"351 1841 OFFCURVE",
"332 1845 OFFCURVE",
"326 1853 CURVE SMOOTH",
"323 1857 OFFCURVE",
"321 1862 OFFCURVE",
"321 1867 CURVE",
"322 1878 OFFCURVE",
"366 1884 OFFCURVE",
"452 1884 CURVE SMOOTH",
"568 1884 LINE SMOOTH",
"623 1884 OFFCURVE",
"639 1884 OFFCURVE",
"672 1880 CURVE SMOOTH",
"704 1876 OFFCURVE",
"716 1867 OFFCURVE",
"716 1851 CURVE"
);
},
{
closed = 1;
nodes = (
"277 426 LINE",
"334 407 OFFCURVE",
"403 397 OFFCURVE",
"484 397 CURVE SMOOTH",
"486 397 OFFCURVE",
"490 397 OFFCURVE",
"496 397 CURVE",
"502 396 OFFCURVE",
"507 396 OFFCURVE",
"510 396 CURVE SMOOTH",
"537 396 OFFCURVE",
"550 403 OFFCURVE",
"550 416 CURVE SMOOTH",
"550 601 OFFCURVE",
"524 960 OFFCURVE",
"506 1151 CURVE SMOOTH",
"497 1246 OFFCURVE",
"488 1326 OFFCURVE",
"481 1389 CURVE",
"480 1393 OFFCURVE",
"479 1400 OFFCURVE",
"477 1411 CURVE",
"474 1422 OFFCURVE",
"473 1430 OFFCURVE",
"473 1436 CURVE",
"450 1371 OFFCURVE",
"435 1287 OFFCURVE",
"409 1122 CURVE SMOOTH",
"383 957 OFFCURVE",
"352 780 OFFCURVE",
"325 664 CURVE",
"322 648 OFFCURVE",
"316 625 OFFCURVE",
"307 594 CURVE SMOOTH",
"289 532 OFFCURVE",
"277 483 OFFCURVE",
"277 438 CURVE SMOOTH"
);
},
{
closed = 1;
nodes = (
"552 303 LINE SMOOTH",
"552 338 OFFCURVE",
"347 369 OFFCURVE",
"276 369 CURVE SMOOTH",
"271 369 OFFCURVE",
"263 343 OFFCURVE",
"250 292 CURVE SMOOTH",
"224 189 OFFCURVE",
"188 27 OFFCURVE",
"187 20 CURVE",
"184 10 OFFCURVE",
"177 5 OFFCURVE",
"165 5 CURVE SMOOTH",
"145 5 OFFCURVE",
"123 20 OFFCURVE",
"123 39 CURVE SMOOTH",
"123 40 OFFCURVE",
"123 41 OFFCURVE",
"124 42 CURVE",
"124 43 OFFCURVE",
"124 44 OFFCURVE",
"124 45 CURVE",
"127 56 OFFCURVE",
"135 90 OFFCURVE",
"148 147 CURVE SMOOTH",
"161 204 OFFCURVE",
"175 267 OFFCURVE",
"190 336 CURVE SMOOTH",
"205 405 OFFCURVE",
"215 450 OFFCURVE",
"220 471 CURVE SMOOTH",
"241 562 OFFCURVE",
"267 698 OFFCURVE",
"298 877 CURVE SMOOTH",
"329 1056 OFFCURVE",
"353 1189 OFFCURVE",
"372 1274 CURVE SMOOTH",
"379 1305 OFFCURVE",
"390 1353 OFFCURVE",
"409 1419 CURVE SMOOTH",
"418 1452 OFFCURVE",
"428 1479 OFFCURVE",
"439 1502 CURVE SMOOTH",
"450 1525 OFFCURVE",
"459 1536 OFFCURVE",
"468 1536 CURVE SMOOTH",
"489 1536 OFFCURVE",
"505 1529 OFFCURVE",
"515 1516 CURVE",
"532 1489 OFFCURVE",
"569 1120 OFFCURVE",
"585 940 CURVE SMOOTH",
"613 600 LINE",
"613 541 OFFCURVE",
"617 452 OFFCURVE",
"625 333 CURVE SMOOTH",
"632 214 OFFCURVE",
"636 125 OFFCURVE",
"636 66 CURVE SMOOTH",
"636 57 LINE SMOOTH",
"636 37 OFFCURVE",
"635 28 OFFCURVE",
"630 17 CURVE SMOOTH",
"625 5 OFFCURVE",
"612 0 OFFCURVE",
"591 0 CURVE SMOOTH",
"571 0 OFFCURVE",
"552 15 OFFCURVE",
"552 35 CURVE SMOOTH"
);
}
);
width = 800;
}
);
note = Amacron;
unicode = 0100;
},
{
glyphname = Aogonek;
lastChange = "2015-11-03 20:15:51 +0000";
layers = (
{
layerId = "27A8C2A5-6B67-4598-967C-E5EC4FB8AE70";
name = Condensed;
paths = (
{
closed = 1;
nodes = (
"560 22 LINE",
"619 14 LINE",
"621 15 LINE",
"622 14 LINE",
"622 13 OFFCURVE",
"616 4 OFFCURVE",
"605 -12 CURVE",
"581 -44 OFFCURVE",
"552 -84 OFFCURVE",
"529 -141 CURVE SMOOTH",
"517 -170 OFFCURVE",
"511 -196 OFFCURVE",
"511 -220 CURVE SMOOTH",
"511 -233 OFFCURVE",
"510 -248 OFFCURVE",
"507 -267 CURVE",
"507 -270 OFFCURVE",
"507 -277 OFFCURVE",
"506 -287 CURVE SMOOTH",
"505 -297 OFFCURVE",
"505 -305 OFFCURVE",
"505 -310 CURVE SMOOTH",
"505 -345 OFFCURVE",
"541 -394 OFFCURVE",
"574 -394 CURVE SMOOTH",
"582 -394 OFFCURVE",
"593 -390 OFFCURVE",
"607 -383 CURVE SMOOTH",
"621 -376 OFFCURVE",
"632 -373 OFFCURVE",
"640 -373 CURVE SMOOTH",
"655 -373 OFFCURVE",
"662 -380 OFFCURVE",
"662 -394 CURVE SMOOTH",
"662 -429 OFFCURVE",
"613 -449 OFFCURVE",
"574 -449 CURVE SMOOTH",
"491 -449 OFFCURVE",
"419 -351 OFFCURVE",
"419 -287 CURVE SMOOTH",
"419 -222 OFFCURVE",
"441 -151 OFFCURVE",
"469 -102 CURVE SMOOTH",
"497 -54 OFFCURVE",
"526 -13 OFFCURVE",
"546 7 CURVE SMOOTH"
);
},
{
closed = 1;
nodes = (
"277 426 LINE",
"334 407 OFFCURVE",
"403 397 OFFCURVE",
"484 397 CURVE SMOOTH",
"486 397 OFFCURVE",
"490 397 OFFCURVE",
"496 397 CURVE",
"502 396 OFFCURVE",
"507 396 OFFCURVE",
"510 396 CURVE SMOOTH",
"537 396 OFFCURVE",
"550 403 OFFCURVE",
"550 416 CURVE SMOOTH",
"550 601 OFFCURVE",
"524 960 OFFCURVE",
"506 1151 CURVE SMOOTH",
"497 1246 OFFCURVE",
"488 1326 OFFCURVE",
"481 1389 CURVE",
"480 1393 OFFCURVE",
"479 1400 OFFCURVE",
"477 1411 CURVE",
"474 1422 OFFCURVE",
"473 1430 OFFCURVE",
"473 1436 CURVE",
"450 1371 OFFCURVE",
"435 1287 OFFCURVE",
"409 1122 CURVE SMOOTH",
"383 957 OFFCURVE",
"352 780 OFFCURVE",
"325 664 CURVE",
"322 648 OFFCURVE",
"316 625 OFFCURVE",
"307 594 CURVE SMOOTH",
"289 532 OFFCURVE",
"277 483 OFFCURVE",
"277 438 CURVE SMOOTH"
);
},
{
closed = 1;
nodes = (
"552 303 LINE SMOOTH",
"552 338 OFFCURVE",
"347 369 OFFCURVE",
"276 369 CURVE SMOOTH",
"271 369 OFFCURVE",
"263 343 OFFCURVE",
"250 292 CURVE SMOOTH",
"224 189 OFFCURVE",
"188 27 OFFCURVE",
"187 20 CURVE",
"184 10 OFFCURVE",
"177 5 OFFCURVE",
"165 5 CURVE SMOOTH",
"145 5 OFFCURVE",
"123 20 OFFCURVE",
"123 39 CURVE SMOOTH",
"123 40 OFFCURVE",
"123 41 OFFCURVE",
"124 42 CURVE",
"124 43 OFFCURVE",
"124 44 OFFCURVE",
"124 45 CURVE",
"127 56 OFFCURVE",
"135 90 OFFCURVE",
"148 147 CURVE SMOOTH",
"161 204 OFFCURVE",
"175 267 OFFCURVE",
"190 336 CURVE SMOOTH",
"205 405 OFFCURVE",
"215 450 OFFCURVE",
"220 471 CURVE SMOOTH",
"241 562 OFFCURVE",
"267 698 OFFCURVE",
"298 877 CURVE SMOOTH",
"329 1056 OFFCURVE",
"353 1189 OFFCURVE",
"372 1274 CURVE SMOOTH",
"379 1305 OFFCURVE",
"390 1353 OFFCURVE",
"409 1419 CURVE SMOOTH",
"418 1452 OFFCURVE",
"428 1479 OFFCURVE",
"439 1502 CURVE SMOOTH",
"450 1525 OFFCURVE",
"459 1536 OFFCURVE",
"468 1536 CURVE SMOOTH",
"489 1536 OFFCURVE",
"505 1529 OFFCURVE",
"515 1516 CURVE",
"532 1489 OFFCURVE",
"569 1120 OFFCURVE",
"585 940 CURVE SMOOTH",
"613 600 LINE",
"613 541 OFFCURVE",
"617 452 OFFCURVE",
"625 333 CURVE SMOOTH",
"632 214 OFFCURVE",
"636 125 OFFCURVE",
"636 66 CURVE SMOOTH",
"636 57 LINE SMOOTH",
"636 37 OFFCURVE",
"635 28 OFFCURVE",
"630 17 CURVE SMOOTH",
"625 5 OFFCURVE",
"612 0 OFFCURVE",
"591 0 CURVE SMOOTH",
"571 0 OFFCURVE",
"552 15 OFFCURVE",
"552 35 CURVE SMOOTH"
);
}
);
width = 800;
}
);
note = Aogonek;
unicode = 0104;
},
{
glyphname = Aring;
lastChange = "2015-11-03 20:15:51 +0000";
layers = (
{
layerId = "27A8C2A5-6B67-4598-967C-E5EC4FB8AE70";
name = Condensed;
paths = (
{
closed = 1;
nodes = (
"410 1884 OFFCURVE",
"411 1864 OFFCURVE",
"426 1843 CURVE",
"433 1832 OFFCURVE",
"443 1827 OFFCURVE",
"455 1827 CURVE SMOOTH",
"488 1827 OFFCURVE",
"541 1853 OFFCURVE",
"541 1884 CURVE SMOOTH",
"541 1933 OFFCURVE",
"522 1984 OFFCURVE",
"482 1984 CURVE SMOOTH",
"449 1984 OFFCURVE",
"410 1943 OFFCURVE",
"410 1907 CURVE SMOOTH"
);
},
{
closed = 1;
nodes = (
"363 1957 OFFCURVE",
"422 2023 OFFCURVE",
"482 2023 CURVE SMOOTH",
"534 2023 OFFCURVE",
"594 1957 OFFCURVE",
"594 1905 CURVE SMOOTH",
"594 1828 OFFCURVE",
"540 1788 OFFCURVE",
"463 1788 CURVE SMOOTH",
"410 1788 OFFCURVE",
"363 1841 OFFCURVE",
"363 1896 CURVE SMOOTH"
);
},
{
closed = 1;
nodes = (
"277 426 LINE",
"334 407 OFFCURVE",
"403 397 OFFCURVE",
"484 397 CURVE SMOOTH",
"486 397 OFFCURVE",
"490 397 OFFCURVE",
"496 397 CURVE",
"502 396 OFFCURVE",
"507 396 OFFCURVE",
"510 396 CURVE SMOOTH",
"537 396 OFFCURVE",
"550 403 OFFCURVE",
"550 416 CURVE SMOOTH",
"550 601 OFFCURVE",
"524 960 OFFCURVE",
"506 1151 CURVE SMOOTH",
"497 1246 OFFCURVE",
"488 1326 OFFCURVE",
"481 1389 CURVE",
"480 1393 OFFCURVE",
"479 1400 OFFCURVE",
"477 1411 CURVE",
"474 1422 OFFCURVE",
"473 1430 OFFCURVE",
"473 1436 CURVE",
"450 1371 OFFCURVE",
"435 1287 OFFCURVE",
"409 1122 CURVE SMOOTH",
"383 957 OFFCURVE",
"352 780 OFFCURVE",
"325 664 CURVE",
"322 648 OFFCURVE",
"316 625 OFFCURVE",
"307 594 CURVE SMOOTH",
"289 532 OFFCURVE",
"277 483 OFFCURVE",
"277 438 CURVE SMOOTH"
);
},
{
closed = 1;
nodes = (
"552 303 LINE SMOOTH",
"552 338 OFFCURVE",
"347 369 OFFCURVE",
"276 369 CURVE SMOOTH",
"271 369 OFFCURVE",
"263 343 OFFCURVE",
"250 292 CURVE SMOOTH",
"224 189 OFFCURVE",
"188 27 OFFCURVE",
"187 20 CURVE",
"184 10 OFFCURVE",
"177 5 OFFCURVE",
"165 5 CURVE SMOOTH",
"145 5 OFFCURVE",
"123 20 OFFCURVE",
"123 39 CURVE SMOOTH",
"123 40 OFFCURVE",
"123 41 OFFCURVE",
"124 42 CURVE",
"124 43 OFFCURVE",
"124 44 OFFCURVE",
"124 45 CURVE",
"127 56 OFFCURVE",
"135 90 OFFCURVE",
"148 147 CURVE SMOOTH",
"161 204 OFFCURVE",
"175 267 OFFCURVE",
"190 336 CURVE SMOOTH",
"205 405 OFFCURVE",
"215 450 OFFCURVE",
"220 471 CURVE SMOOTH",
"241 562 OFFCURVE",
"267 698 OFFCURVE",
"298 877 CURVE SMOOTH",
"329 1056 OFFCURVE",
"353 1189 OFFCURVE",
"372 1274 CURVE SMOOTH",
"379 1305 OFFCURVE",
"390 1353 OFFCURVE",
"409 1419 CURVE SMOOTH",
"418 1452 OFFCURVE",
"428 1479 OFFCURVE",
"439 1502 CURVE SMOOTH",
"450 1525 OFFCURVE",
"459 1536 OFFCURVE",
"468 1536 CURVE SMOOTH",
"489 1536 OFFCURVE",
"505 1529 OFFCURVE",
"515 1516 CURVE",
"532 1489 OFFCURVE",
"569 1120 OFFCURVE",
"585 940 CURVE SMOOTH",
"613 600 LINE",
"613 541 OFFCURVE",
"617 452 OFFCURVE",
"625 333 CURVE SMOOTH",
"632 214 OFFCURVE",
"636 125 OFFCURVE",
"636 66 CURVE SMOOTH",
"636 57 LINE SMOOTH",
"636 37 OFFCURVE",
"635 28 OFFCURVE",
"630 17 CURVE SMOOTH",
"625 5 OFFCURVE",
"612 0 OFFCURVE",
"591 0 CURVE SMOOTH",
"571 0 OFFCURVE",
"552 15 OFFCURVE",
"552 35 CURVE SMOOTH"
);
}
);
width = 800;
}
);
note = Aring;
unicode = 00C5;
},
{
glyphname = Aringacute;
lastChange = "2015-11-03 20:15:51 +0000";
layers = (
{
layerId = "27A8C2A5-6B67-4598-967C-E5EC4FB8AE70";
name = Condensed;
paths = (
{
closed = 1;
nodes = (
"440 2180 OFFCURVE",
"459 2198 OFFCURVE",
"496 2228 CURVE SMOOTH",
"533 2258 OFFCURVE",
"574 2290 OFFCURVE",
"618 2324 CURVE SMOOTH",
"661 2357 OFFCURVE",
"687 2377 OFFCURVE",
"694 2384 CURVE",
"724 2384 OFFCURVE",
"739 2373 OFFCURVE",
"739 2352 CURVE SMOOTH",
"739 2351 OFFCURVE",
"737 2341 OFFCURVE",
"733 2321 CURVE",
"664 2290 OFFCURVE",
"579 2232 OFFCURVE",
"477 2145 CURVE",
"457 2145 OFFCURVE",
"440 2156 OFFCURVE",
"440 2175 CURVE SMOOTH"
);
},
{
closed = 1;
nodes = (
"410 1884 OFFCURVE",
"411 1864 OFFCURVE",
"426 1843 CURVE",
"433 1832 OFFCURVE",
"443 1827 OFFCURVE",
"455 1827 CURVE SMOOTH",
"488 1827 OFFCURVE",
"541 1853 OFFCURVE",
"541 1884 CURVE SMOOTH",
"541 1933 OFFCURVE",
"522 1984 OFFCURVE",
"482 1984 CURVE SMOOTH",
"449 1984 OFFCURVE",
"410 1943 OFFCURVE",
"410 1907 CURVE SMOOTH"
);
},
{
closed = 1;
nodes = (
"363 1957 OFFCURVE",
"422 2023 OFFCURVE",
"482 2023 CURVE SMOOTH",
"534 2023 OFFCURVE",
"594 1957 OFFCURVE",
"594 1905 CURVE SMOOTH",
"594 1828 OFFCURVE",
"540 1788 OFFCURVE",
"463 1788 CURVE SMOOTH",
"410 1788 OFFCURVE",
"363 1841 OFFCURVE",
"363 1896 CURVE SMOOTH"
);
},
{
closed = 1;
nodes = (
"277 426 LINE",
"334 407 OFFCURVE",
"403 397 OFFCURVE",
"484 397 CURVE SMOOTH",
"486 397 OFFCURVE",
"490 397 OFFCURVE",
"496 397 CURVE",
"502 396 OFFCURVE",
"507 396 OFFCURVE",
"510 396 CURVE SMOOTH",
"537 396 OFFCURVE",
"550 403 OFFCURVE",
"550 416 CURVE SMOOTH",
"550 601 OFFCURVE",
"524 960 OFFCURVE",
"506 1151 CURVE SMOOTH",
"497 1246 OFFCURVE",
"488 1326 OFFCURVE",
"481 1389 CURVE",
"480 1393 OFFCURVE",
"479 1400 OFFCURVE",
"477 1411 CURVE",
"474 1422 OFFCURVE",
"473 1430 OFFCURVE",
"473 1436 CURVE",
"450 1371 OFFCURVE",
"435 1287 OFFCURVE",
"409 1122 CURVE SMOOTH",
"383 957 OFFCURVE",
"352 780 OFFCURVE",
"325 664 CURVE",
"322 648 OFFCURVE",
"316 625 OFFCURVE",
"307 594 CURVE SMOOTH",
"289 532 OFFCURVE",
"277 483 OFFCURVE",
"277 438 CURVE SMOOTH"
);
},
{
closed = 1;
nodes = (
"552 303 LINE SMOOTH",
"552 338 OFFCURVE",
"347 369 OFFCURVE",
"276 369 CURVE SMOOTH",
"271 369 OFFCURVE",
"263 343 OFFCURVE",
"250 292 CURVE SMOOTH",
"224 189 OFFCURVE",
"188 27 OFFCURVE",
"187 20 CURVE",
"184 10 OFFCURVE",
"177 5 OFFCURVE",
"165 5 CURVE SMOOTH",
"145 5 OFFCURVE",
"123 20 OFFCURVE",
"123 39 CURVE SMOOTH",
"123 40 OFFCURVE",
"123 41 OFFCURVE",
"124 42 CURVE",
"124 43 OFFCURVE",
"124 44 OFFCURVE",
"124 45 CURVE",
"127 56 OFFCURVE",
"135 90 OFFCURVE",
"148 147 CURVE SMOOTH",
"161 204 OFFCURVE",
"175 267 OFFCURVE",
"190 336 CURVE SMOOTH",
"205 405 OFFCURVE",
"215 450 OFFCURVE",
"220 471 CURVE SMOOTH",
"241 562 OFFCURVE",
"267 698 OFFCURVE",
"298 877 CURVE SMOOTH",
"329 1056 OFFCURVE",
"353 1189 OFFCURVE",
"372 1274 CURVE SMOOTH",
"379 1305 OFFCURVE",
"390 1353 OFFCURVE",
"409 1419 CURVE SMOOTH",
"418 1452 OFFCURVE",
"428 1479 OFFCURVE",
"439 1502 CURVE SMOOTH",
"450 1525 OFFCURVE",
"459 1536 OFFCURVE",
"468 1536 CURVE SMOOTH",
"489 1536 OFFCURVE",
"505 1529 OFFCURVE",
"515 1516 CURVE",
"532 1489 OFFCURVE",
"569 1120 OFFCURVE",
"585 940 CURVE SMOOTH",
"613 600 LINE",
"613 541 OFFCURVE",
"617 452 OFFCURVE",
"625 333 CURVE SMOOTH",
"632 214 OFFCURVE",
"636 125 OFFCURVE",
"636 66 CURVE SMOOTH",
"636 57 LINE SMOOTH",
"636 37 OFFCURVE",
"635 28 OFFCURVE",
"630 17 CURVE SMOOTH",
"625 5 OFFCURVE",
"612 0 OFFCURVE",
"591 0 CURVE SMOOTH",
"571 0 OFFCURVE",
"552 15 OFFCURVE",
"552 35 CURVE SMOOTH"
);
}
);
width = 800;
}
);
note = Aringacute;
unicode = 01FA;
},
{
glyphname = Atilde;
lastChange = "2015-11-03 20:15:51 +0000";
layers = (
{
layerId = "27A8C2A5-6B67-4598-967C-E5EC4FB8AE70";
name = Condensed;
paths = (
{
closed = 1;
nodes = (
"245 1874 OFFCURVE",
"300 1928 OFFCURVE",
"364 1928 CURVE SMOOTH",
"398 1928 OFFCURVE",
"427 1914 OFFCURVE",
"451 1886 CURVE",
"471 1846 OFFCURVE",
"527 1807 OFFCURVE",
"568 1807 CURVE SMOOTH",
"603 1807 OFFCURVE",
"621 1831 OFFCURVE",
"621 1880 CURVE SMOOTH",
"621 1885 OFFCURVE",
"619 1892 OFFCURVE",
"616 1901 CURVE",
"612 1909 OFFCURVE",
"610 1915 OFFCURVE",
"609 1919 CURVE",
"613 1927 OFFCURVE",
"620 1931 OFFCURVE",
"630 1931 CURVE SMOOTH",
"662 1931 OFFCURVE",
"677 1896 OFFCURVE",
"677 1861 CURVE SMOOTH",
"677 1804 OFFCURVE",
"625 1753 OFFCURVE",
"568 1753 CURVE SMOOTH",
"519 1753 OFFCURVE",
"463 1790 OFFCURVE",
"438 1816 CURVE SMOOTH",
"425 1829 OFFCURVE",
"408 1848 OFFCURVE",
"386 1874 CURVE",
"372 1880 LINE",
"332 1880 OFFCURVE",
"296 1856 OFFCURVE",
"296 1825 CURVE SMOOTH",
"296 1820 OFFCURVE",
"299 1805 OFFCURVE",
"306 1782 CURVE",
"284 1751 LINE",
"267 1751 OFFCURVE",
"245 1769 OFFCURVE",
"245 1786 CURVE SMOOTH"
);
},
{
closed = 1;
nodes = (
"277 426 LINE",
"334 407 OFFCURVE",
"403 397 OFFCURVE",
"484 397 CURVE SMOOTH",
"486 397 OFFCURVE",
"490 397 OFFCURVE",
"496 397 CURVE",
"502 396 OFFCURVE",
"507 396 OFFCURVE",
"510 396 CURVE SMOOTH",
"537 396 OFFCURVE",
"550 403 OFFCURVE",
"550 416 CURVE SMOOTH",
"550 601 OFFCURVE",
"524 960 OFFCURVE",
"506 1151 CURVE SMOOTH",
"497 1246 OFFCURVE",
"488 1326 OFFCURVE",
"481 1389 CURVE",
"480 1393 OFFCURVE",
"479 1400 OFFCURVE",
"477 1411 CURVE",
"474 1422 OFFCURVE",
"473 1430 OFFCURVE",
"473 1436 CURVE",
"450 1371 OFFCURVE",
"435 1287 OFFCURVE",
"409 1122 CURVE SMOOTH",
"383 957 OFFCURVE",
"352 780 OFFCURVE",
"325 664 CURVE",
"322 648 OFFCURVE",
"316 625 OFFCURVE",
"307 594 CURVE SMOOTH",
"289 532 OFFCURVE",
"277 483 OFFCURVE",
"277 438 CURVE SMOOTH"
);
},
{
closed = 1;
nodes = (
"552 303 LINE SMOOTH",
"552 338 OFFCURVE",
"347 369 OFFCURVE",
"276 369 CURVE SMOOTH",
"271 369 OFFCURVE",
"263 343 OFFCURVE",
"250 292 CURVE SMOOTH",
"224 189 OFFCURVE",
"188 27 OFFCURVE",
"187 20 CURVE",
"184 10 OFFCURVE",
"177 5 OFFCURVE",
"165 5 CURVE SMOOTH",
"145 5 OFFCURVE",
"123 20 OFFCURVE",
"123 39 CURVE SMOOTH",
"123 40 OFFCURVE",
"123 41 OFFCURVE",
"124 42 CURVE",
"124 43 OFFCURVE",
"124 44 OFFCURVE",
"124 45 CURVE",
"127 56 OFFCURVE",
"135 90 OFFCURVE",
"148 147 CURVE SMOOTH",
"161 204 OFFCURVE",
"175 267 OFFCURVE",
"190 336 CURVE SMOOTH",
"205 405 OFFCURVE",
"215 450 OFFCURVE",
"220 471 CURVE SMOOTH",
"241 562 OFFCURVE",
"267 698 OFFCURVE",
"298 877 CURVE SMOOTH",
"329 1056 OFFCURVE",
"353 1189 OFFCURVE",
"372 1274 CURVE SMOOTH",
"379 1305 OFFCURVE",
"390 1353 OFFCURVE",
"409 1419 CURVE SMOOTH",
"418 1452 OFFCURVE",
"428 1479 OFFCURVE",
"439 1502 CURVE SMOOTH",
"450 1525 OFFCURVE",
"459 1536 OFFCURVE",
"468 1536 CURVE SMOOTH",
"489 1536 OFFCURVE",
"505 1529 OFFCURVE",
"515 1516 CURVE",
"532 1489 OFFCURVE",
"569 1120 OFFCURVE",
"585 940 CURVE SMOOTH",
"613 600 LINE",
"613 541 OFFCURVE",
"617 452 OFFCURVE",
"625 333 CURVE SMOOTH",
"632 214 OFFCURVE",
"636 125 OFFCURVE",
"636 66 CURVE SMOOTH",
"636 57 LINE SMOOTH",
"636 37 OFFCURVE",
"635 28 OFFCURVE",
"630 17 CURVE SMOOTH",
"625 5 OFFCURVE",
"612 0 OFFCURVE",
"591 0 CURVE SMOOTH",
"571 0 OFFCURVE",
"552 15 OFFCURVE",
"552 35 CURVE SMOOTH"
);
}
);
width = 800;
}
);
note = Atilde;
unicode = 00C3;
},
{
glyphname = AE;
lastChange = "2015-11-03 20:15:51 +0000";
layers = (
{
layerId = "27A8C2A5-6B67-4598-967C-E5EC4FB8AE70";
name = Condensed;
paths = (
{
closed = 1;
nodes = (
"480 1364 OFFCURVE",
"311 732 OFFCURVE",
"304 664 CURVE",
"389 667 OFFCURVE",
"458 675 OFFCURVE",
"509 688 CURVE",
"510 723 OFFCURVE",
"511 795 OFFCURVE",
"514 903 CURVE SMOOTH",
"516 1010 OFFCURVE",
"517 1094 OFFCURVE",
"517 1153 CURVE SMOOTH",
"517 1246 OFFCURVE",
"513 1326 OFFCURVE",
"504 1393 CURVE"
);
},
{
closed = 1;
nodes = (
"504 -12 LINE",
"515 63 OFFCURVE",
"521 144 OFFCURVE",
"521 229 CURVE SMOOTH",
"521 273 OFFCURVE",
"519 339 OFFCURVE",
"516 426 CURVE SMOOTH",
"513 513 OFFCURVE",
"511 578 OFFCURVE",
"511 621 CURVE",
"500 635 LINE",
"495 634 OFFCURVE",
"473 632 OFFCURVE",
"436 629 CURVE SMOOTH",
"399 626 OFFCURVE",
"365 623 OFFCURVE",
"336 618 CURVE SMOOTH",
"307 613 OFFCURVE",
"291 607 OFFCURVE",
"289 600 CURVE SMOOTH",
"187 209 LINE",
"187 208 OFFCURVE",
"166 97 OFFCURVE",
"147 43 CURVE SMOOTH",
"137 16 OFFCURVE",
"126 2 OFFCURVE",
"115 2 CURVE SMOOTH",
"106 2 OFFCURVE",
"99 18 OFFCURVE",
"99 27 CURVE SMOOTH",
"100 92 OFFCURVE",
"128 227 OFFCURVE",
"181 432 CURVE SMOOTH",
"268 778 OFFCURVE",
"358 1098 OFFCURVE",
"449 1393 CURVE SMOOTH",
"467 1454 OFFCURVE",
"483 1495 OFFCURVE",
"498 1515 CURVE SMOOTH",
"512 1534 OFFCURVE",
"527 1544 OFFCURVE",
"543 1544 CURVE SMOOTH",
"560 1544 OFFCURVE",
"586 1546 OFFCURVE",
"621 1549 CURVE SMOOTH",
"656 1552 OFFCURVE",
"683 1554 OFFCURVE",
"701 1554 CURVE SMOOTH",
"744 1554 OFFCURVE",
"765 1543 OFFCURVE",
"765 1522 CURVE",
"752 1497 LINE",
"685 1497 OFFCURVE",
"618 1493 OFFCURVE",
"550 1485 CURVE",
"550 1452 OFFCURVE",
"552 1401 OFFCURVE",
"557 1333 CURVE SMOOTH",
"562 1265 OFFCURVE",
"564 1214 OFFCURVE",
"564 1180 CURVE SMOOTH",
"564 1127 OFFCURVE",
"563 1047 OFFCURVE",
"561 941 CURVE SMOOTH",
"559 835 OFFCURVE",
"558 755 OFFCURVE",
"558 702 CURVE",
"568 690 LINE",
"587 690 OFFCURVE",
"614 694 OFFCURVE",
"649 701 CURVE SMOOTH",
"684 708 OFFCURVE",
"711 711 OFFCURVE",
"730 711 CURVE",
"758 676 LINE",
"758 653 OFFCURVE",
"709 641 OFFCURVE",
"612 641 CURVE SMOOTH",
"558 641 LINE",
"558 587 OFFCURVE",
"559 506 OFFCURVE",
"562 398 CURVE SMOOTH",
"565 290 OFFCURVE",
"566 209 OFFCURVE",
"566 154 CURVE SMOOTH",
"566 145 OFFCURVE",
"566 131 OFFCURVE",
"565 112 CURVE SMOOTH",
"564 93 OFFCURVE",
"564 79 OFFCURVE",
"564 70 CURVE SMOOTH",
"564 47 OFFCURVE",
"570 35 OFFCURVE",
"582 35 CURVE SMOOTH",
"608 35 OFFCURVE",
"647 39 OFFCURVE",
"698 46 CURVE SMOOTH",
"749 53 OFFCURVE",
"788 57 OFFCURVE",
"814 57 CURVE SMOOTH",
"834 57 OFFCURVE",
"859 48 OFFCURVE",
"859 31 CURVE SMOOTH",
"859 17 OFFCURVE",
"839 7 OFFCURVE",
"798 2 CURVE SMOOTH",
"757 -3 OFFCURVE",
"713 -6 OFFCURVE",
"665 -7 CURVE SMOOTH",
"616 -8 OFFCURVE",
"588 -10 OFFCURVE",
"580 -14 CURVE SMOOTH",
"578 -15 OFFCURVE",
"572 -20 OFFCURVE",
"561 -28 CURVE SMOOTH",
"550 -36 OFFCURVE",
"541 -40 OFFCURVE",
"533 -41 CURVE"
);
}
);
width = 940;
}
);
note = AE;
unicode = 00C6;
},
{
glyphname = AEacute;
lastChange = "2015-11-03 20:15:51 +0000";
layers = (
{
layerId = "27A8C2A5-6B67-4598-967C-E5EC4FB8AE70";
name = Condensed;
paths = (
{
closed = 1;
nodes = (
"659 1728 OFFCURVE",
"678 1746 OFFCURVE",
"715 1776 CURVE SMOOTH",
"752 1806 OFFCURVE",
"793 1838 OFFCURVE",
"837 1872 CURVE SMOOTH",
"880 1905 OFFCURVE",
"906 1925 OFFCURVE",
"913 1932 CURVE",
"943 1932 OFFCURVE",
"958 1921 OFFCURVE",
"958 1900 CURVE SMOOTH",
"958 1899 OFFCURVE",
"956 1889 OFFCURVE",
"952 1869 CURVE",
"883 1838 OFFCURVE",
"798 1780 OFFCURVE",
"696 1693 CURVE",
"676 1693 OFFCURVE",
"659 1704 OFFCURVE",
"659 1723 CURVE SMOOTH"
);
},
{
closed = 1;
nodes = (
"480 1364 OFFCURVE",
"311 732 OFFCURVE",
"304 664 CURVE",
"389 667 OFFCURVE",
"458 675 OFFCURVE",
"509 688 CURVE",
"510 723 OFFCURVE",
"511 795 OFFCURVE",
"514 903 CURVE SMOOTH",
"516 1010 OFFCURVE",
"517 1094 OFFCURVE",
"517 1153 CURVE SMOOTH",
"517 1246 OFFCURVE",
"513 1326 OFFCURVE",
"504 1393 CURVE"
);
},
{
closed = 1;
nodes = (
"504 -12 LINE",
"515 63 OFFCURVE",
"521 144 OFFCURVE",
"521 229 CURVE SMOOTH",
"521 273 OFFCURVE",
"519 339 OFFCURVE",
"516 426 CURVE SMOOTH",
"513 513 OFFCURVE",
"511 578 OFFCURVE",
"511 621 CURVE",
"500 635 LINE",
"495 634 OFFCURVE",
"473 632 OFFCURVE",
"436 629 CURVE SMOOTH",
"399 626 OFFCURVE",
"365 623 OFFCURVE",
"336 618 CURVE SMOOTH",
"307 613 OFFCURVE",
"291 607 OFFCURVE",
"289 600 CURVE SMOOTH",
"187 209 LINE",
"187 208 OFFCURVE",
"166 97 OFFCURVE",
"147 43 CURVE SMOOTH",
"137 16 OFFCURVE",
"126 2 OFFCURVE",
"115 2 CURVE SMOOTH",
"106 2 OFFCURVE",
"99 18 OFFCURVE",
"99 27 CURVE SMOOTH",
"100 92 OFFCURVE",
"128 227 OFFCURVE",
"181 432 CURVE SMOOTH",
"268 778 OFFCURVE",
"358 1098 OFFCURVE",
"449 1393 CURVE SMOOTH",
"467 1454 OFFCURVE",
"483 1495 OFFCURVE",
"498 1515 CURVE SMOOTH",
"512 1534 OFFCURVE",
"527 1544 OFFCURVE",
"543 1544 CURVE SMOOTH",
"560 1544 OFFCURVE",
"586 1546 OFFCURVE",
"621 1549 CURVE SMOOTH",
"656 1552 OFFCURVE",
"683 1554 OFFCURVE",
"701 1554 CURVE SMOOTH",
"744 1554 OFFCURVE",
"765 1543 OFFCURVE",
"765 1522 CURVE",
"752 1497 LINE",
"685 1497 OFFCURVE",
"618 1493 OFFCURVE",
"550 1485 CURVE",
"550 1452 OFFCURVE",
"552 1401 OFFCURVE",
"557 1333 CURVE SMOOTH",
"562 1265 OFFCURVE",
"564 1214 OFFCURVE",
"564 1180 CURVE SMOOTH",
"564 1127 OFFCURVE",
"563 1047 OFFCURVE",
"561 941 CURVE SMOOTH",
"559 835 OFFCURVE",
"558 755 OFFCURVE",
"558 702 CURVE",
"568 690 LINE",
"587 690 OFFCURVE",
"614 694 OFFCURVE",
"649 701 CURVE SMOOTH",
"684 708 OFFCURVE",
"711 711 OFFCURVE",
"730 711 CURVE",
"758 676 LINE",
"758 653 OFFCURVE",
"709 641 OFFCURVE",
"612 641 CURVE SMOOTH",
"558 641 LINE",
"558 587 OFFCURVE",
"559 506 OFFCURVE",
"562 398 CURVE SMOOTH",
"565 290 OFFCURVE",
"566 209 OFFCURVE",
"566 154 CURVE SMOOTH",
"566 145 OFFCURVE",
"566 131 OFFCURVE",
"565 112 CURVE SMOOTH",
"564 93 OFFCURVE",
"564 79 OFFCURVE",
"564 70 CURVE SMOOTH",
"564 47 OFFCURVE",
"570 35 OFFCURVE",
"582 35 CURVE SMOOTH",
"608 35 OFFCURVE",
"647 39 OFFCURVE",
"698 46 CURVE SMOOTH",
"749 53 OFFCURVE",
"788 57 OFFCURVE",
"814 57 CURVE SMOOTH",
"834 57 OFFCURVE",
"859 48 OFFCURVE",
"859 31 CURVE SMOOTH",
"859 17 OFFCURVE",
"839 7 OFFCURVE",
"798 2 CURVE SMOOTH",
"757 -3 OFFCURVE",
"713 -6 OFFCURVE",
"665 -7 CURVE SMOOTH",
"616 -8 OFFCURVE",
"588 -10 OFFCURVE",
"580 -14 CURVE SMOOTH",
"578 -15 OFFCURVE",
"572 -20 OFFCURVE",
"561 -28 CURVE SMOOTH",
"550 -36 OFFCURVE",
"541 -40 OFFCURVE",
"533 -41 CURVE"
);
}
);
width = 940;
}
);
note = AEacute;
unicode = 01FC;
},
{
glyphname = uni01E2;
lastChange = "2015-11-03 20:15:51 +0000";
layers = (
{
layerId = "27A8C2A5-6B67-4598-967C-E5EC4FB8AE70";
name = Condensed;
paths = (
{
closed = 1;
nodes = (
"891 1699 OFFCURVE",
"847 1693 OFFCURVE",
"761 1693 CURVE SMOOTH",
"646 1693 LINE SMOOTH",
"628 1693 OFFCURVE",
"615 1693 OFFCURVE",
"606 1693 CURVE SMOOTH",
"589 1693 OFFCURVE",
"555 1694 OFFCURVE",
"541 1697 CURVE SMOOTH",
"527 1700 OFFCURVE",
"508 1704 OFFCURVE",
"502 1712 CURVE SMOOTH",
"499 1716 OFFCURVE",
"497 1721 OFFCURVE",
"497 1726 CURVE",
"498 1737 OFFCURVE",
"542 1743 OFFCURVE",
"628 1743 CURVE SMOOTH",
"744 1743 LINE SMOOTH",
"799 1743 OFFCURVE",
"815 1743 OFFCURVE",
"848 1739 CURVE SMOOTH",
"880 1735 OFFCURVE",
"892 1726 OFFCURVE",
"892 1710 CURVE"
);
},
{
closed = 1;
nodes = (
"480 1364 OFFCURVE",
"311 732 OFFCURVE",
"304 664 CURVE",
"389 667 OFFCURVE",
"458 675 OFFCURVE",
"509 688 CURVE",
"510 723 OFFCURVE",
"511 795 OFFCURVE",
"514 903 CURVE SMOOTH",
"516 1010 OFFCURVE",
"517 1094 OFFCURVE",
"517 1153 CURVE SMOOTH",
"517 1246 OFFCURVE",
"513 1326 OFFCURVE",
"504 1393 CURVE"
);
},
{
closed = 1;
nodes = (
"504 -12 LINE",
"515 63 OFFCURVE",
"521 144 OFFCURVE",
"521 229 CURVE SMOOTH",
"521 273 OFFCURVE",
"519 339 OFFCURVE",
"516 426 CURVE SMOOTH",
"513 513 OFFCURVE",
"511 578 OFFCURVE",
"511 621 CURVE",
"500 635 LINE",
"495 634 OFFCURVE",
"473 632 OFFCURVE",
"436 629 CURVE SMOOTH",
"399 626 OFFCURVE",
"365 623 OFFCURVE",
"336 618 CURVE SMOOTH",
"307 613 OFFCURVE",
"291 607 OFFCURVE",
"289 600 CURVE SMOOTH",
"187 209 LINE",
"187 208 OFFCURVE",
"166 97 OFFCURVE",
"147 43 CURVE SMOOTH",
"137 16 OFFCURVE",
"126 2 OFFCURVE",
"115 2 CURVE SMOOTH",
"106 2 OFFCURVE",
"99 18 OFFCURVE",
"99 27 CURVE SMOOTH",
"100 92 OFFCURVE",
"128 227 OFFCURVE",
"181 432 CURVE SMOOTH",
"268 778 OFFCURVE",
"358 1098 OFFCURVE",
"449 1393 CURVE SMOOTH",
"467 1454 OFFCURVE",
"483 1495 OFFCURVE",
"498 1515 CURVE SMOOTH",
"512 1534 OFFCURVE",
"527 1544 OFFCURVE",
"543 1544 CURVE SMOOTH",
"560 1544 OFFCURVE",
"586 1546 OFFCURVE",
"621 1549 CURVE SMOOTH",
"656 1552 OFFCURVE",
"683 1554 OFFCURVE",
"701 1554 CURVE SMOOTH",
"744 1554 OFFCURVE",
"765 1543 OFFCURVE",
"765 1522 CURVE",
"752 1497 LINE",
"685 1497 OFFCURVE",
"618 1493 OFFCURVE",
"550 1485 CURVE",
"550 1452 OFFCURVE",
"552 1401 OFFCURVE",
"557 1333 CURVE SMOOTH",
"562 1265 OFFCURVE",
"564 1214 OFFCURVE",
"564 1180 CURVE SMOOTH",
"564 1127 OFFCURVE",
"563 1047 OFFCURVE",
"561 941 CURVE SMOOTH",
"559 835 OFFCURVE",
"558 755 OFFCURVE",
"558 702 CURVE",
"568 690 LINE",
"587 690 OFFCURVE",
"614 694 OFFCURVE",
"649 701 CURVE SMOOTH",
"684 708 OFFCURVE",
"711 711 OFFCURVE",
"730 711 CURVE",
"758 676 LINE",
"758 653 OFFCURVE",
"709 641 OFFCURVE",
"612 641 CURVE SMOOTH",
"558 641 LINE",
"558 587 OFFCURVE",
"559 506 OFFCURVE",
"562 398 CURVE SMOOTH",
"565 290 OFFCURVE",
"566 209 OFFCURVE",
"566 154 CURVE SMOOTH",
"566 145 OFFCURVE",
"566 131 OFFCURVE",
"565 112 CURVE SMOOTH",
"564 93 OFFCURVE",
"564 79 OFFCURVE",
"564 70 CURVE SMOOTH",
"564 47 OFFCURVE",
"570 35 OFFCURVE",
"582 35 CURVE SMOOTH",
"608 35 OFFCURVE",
"647 39 OFFCURVE",
"698 46 CURVE SMOOTH",
"749 53 OFFCURVE",
"788 57 OFFCURVE",
"814 57 CURVE SMOOTH",
"834 57 OFFCURVE",
"859 48 OFFCURVE",
"859 31 CURVE SMOOTH",
"859 17 OFFCURVE",
"839 7 OFFCURVE",
"798 2 CURVE SMOOTH",
"757 -3 OFFCURVE",
"713 -6 OFFCURVE",
"665 -7 CURVE SMOOTH",
"616 -8 OFFCURVE",
"588 -10 OFFCURVE",
"580 -14 CURVE SMOOTH",
"578 -15 OFFCURVE",
"572 -20 OFFCURVE",
"561 -28 CURVE SMOOTH",
"550 -36 OFFCURVE",
"541 -40 OFFCURVE",
"533 -41 CURVE"
);
}
);
width = 940;
}
);
note = uni01E2;
unicode = 01E2;
},
{
glyphname = B;
lastChange = "2015-11-03 20:15:51 +0000";
layers = (
{
layerId = "27A8C2A5-6B67-4598-967C-E5EC4FB8AE70";
name = Condensed;
paths = (
{
closed = 1;
nodes = (
"256 885 LINE",
"317 885 OFFCURVE",
"375 946 OFFCURVE",
"410 1026 CURVE SMOOTH",
"445 1106 OFFCURVE",
"465 1197 OFFCURVE",
"465 1268 CURVE SMOOTH",
"465 1361 OFFCURVE",
"386 1466 OFFCURVE",
"295 1466 CURVE SMOOTH",
"260 1466 OFFCURVE",
"242 1437 OFFCURVE",
"242 1378 CURVE SMOOTH",
"242 1323 OFFCURVE",
"243 1242 OFFCURVE",
"246 1133 CURVE SMOOTH",
"249 1024 OFFCURVE",
"250 942 OFFCURVE",
"250 887 CURVE"
);
},
{
closed = 1;
nodes = (
"261 70 OFFCURVE",
"264 70 OFFCURVE",
"267 69 CURVE SMOOTH",
"270 68 OFFCURVE",
"272 68 OFFCURVE",
"273 68 CURVE SMOOTH",
"413 68 OFFCURVE",
"527 210 OFFCURVE",
"527 371 CURVE SMOOTH",
"527 616 OFFCURVE",
"468 762 OFFCURVE",
"351 811 CURVE",
"338 810 OFFCURVE",
"320 807 OFFCURVE",
"297 800 CURVE SMOOTH",
"274 793 OFFCURVE",
"259 789 OFFCURVE",
"250 788 CURVE",
"257 588 OFFCURVE",
"260 349 OFFCURVE",
"260 70 CURVE"
);
},
{
closed = 1;
nodes = (
"183 73 OFFCURVE",
"185 160 OFFCURVE",
"188 276 CURVE SMOOTH",
"191 391 OFFCURVE",
"193 478 OFFCURVE",
"193 535 CURVE SMOOTH",
"193 630 OFFCURVE",
"191 773 OFFCURVE",
"186 962 CURVE SMOOTH",
"181 1151 OFFCURVE",
"179 1294 OFFCURVE",
"179 1389 CURVE SMOOTH",
"179 1487 OFFCURVE",
"197 1536 OFFCURVE",
"232 1536 CURVE SMOOTH",
"419 1536 OFFCURVE",
"519 1403 OFFCURVE",
"519 1214 CURVE SMOOTH",
"519 1106 OFFCURVE",
"475 993 OFFCURVE",
"387 874 CURVE",
"532 730 OFFCURVE",
"584 617 OFFCURVE",
"584 433 CURVE SMOOTH",
"584 328 OFFCURVE",
"579 267 OFFCURVE",
"560 205 CURVE SMOOTH",
"541 143 OFFCURVE",
"506 103 OFFCURVE",
"450 65 CURVE SMOOTH",
"422 46 OFFCURVE",
"387 27 OFFCURVE",
"344 8 CURVE",
"335 7 OFFCURVE",
"321 4 OFFCURVE",
"304 -2 CURVE",
"287 -9 OFFCURVE",
"273 -12 OFFCURVE",
"263 -12 CURVE SMOOTH",
"259 -12 LINE SMOOTH",
"208 -12 OFFCURVE",
"183 -3 OFFCURVE",
"183 16 CURVE SMOOTH"
);
}
);
width = 740;
}
);
note = B;
unicode = 0042;
},
{
glyphname = C;
lastChange = "2015-11-03 20:15:51 +0000";
layers = (
{
layerId = "27A8C2A5-6B67-4598-967C-E5EC4FB8AE70";
name = Condensed;
paths = (
{
closed = 1;
nodes = (
"173 902 OFFCURVE",
"173 938 OFFCURVE",
"172 986 CURVE SMOOTH",
"171 1033 OFFCURVE",
"171 1068 OFFCURVE",
"171 1090 CURVE SMOOTH",
"171 1174 OFFCURVE",
"174 1230 OFFCURVE",
"184 1300 CURVE SMOOTH",
"194 1370 OFFCURVE",
"210 1414 OFFCURVE",
"242 1461 CURVE SMOOTH",
"273 1508 OFFCURVE",
"314 1535 OFFCURVE",
"377 1552 CURVE SMOOTH",
"408 1561 OFFCURVE",
"444 1565 OFFCURVE",
"483 1565 CURVE SMOOTH",
"530 1565 OFFCURVE",
"601 1532 OFFCURVE",
"601 1489 CURVE SMOOTH",
"601 1474 OFFCURVE",
"590 1466 OFFCURVE",
"569 1466 CURVE SMOOTH",
"561 1466 OFFCURVE",
"545 1471 OFFCURVE",
"522 1481 CURVE",
"498 1490 OFFCURVE",
"479 1495 OFFCURVE",
"466 1495 CURVE SMOOTH",
"385 1495 OFFCURVE",
"324 1459 OFFCURVE",
"290 1410 CURVE SMOOTH",
"256 1361 OFFCURVE",
"236 1276 OFFCURVE",
"230 1205 CURVE SMOOTH",
"227 1169 OFFCURVE",
"225 1128 OFFCURVE",
"225 1081 CURVE SMOOTH",
"225 1054 OFFCURVE",
"226 1016 OFFCURVE",
"227 967 CURVE SMOOTH",
"228 917 OFFCURVE",
"229 881 OFFCURVE",
"229 860 CURVE SMOOTH",
"229 699 OFFCURVE",
"273 188 OFFCURVE",
"313 127 CURVE SMOOTH",
"348 74 OFFCURVE",
"418 47 OFFCURVE",
"487 47 CURVE SMOOTH",
"549 47 OFFCURVE",
"597 67 OFFCURVE",
"630 106 CURVE",
"641 123 OFFCURVE",
"654 132 OFFCURVE",
"668 132 CURVE SMOOTH",
"681 132 OFFCURVE",
"687 122 OFFCURVE",
"687 102 CURVE SMOOTH",
"687 53 OFFCURVE",
"652 15 OFFCURVE",
"604 -4 CURVE SMOOTH",
"555 -24 OFFCURVE",
"505 -33 OFFCURVE",
"460 -33 CURVE SMOOTH",
"381 -33 OFFCURVE",
"284 40 OFFCURVE",
"249 115 CURVE SMOOTH",
"214 190 OFFCURVE",
"173 714 OFFCURVE",
"173 877 CURVE SMOOTH"
);
}
);
width = 780;
}
);
note = C;
unicode = 0043;
},
{
glyphname = Cacute;
lastChange = "2015-11-03 20:15:51 +0000";
layers = (
{
layerId = "27A8C2A5-6B67-4598-967C-E5EC4FB8AE70";
name = Condensed;
paths = (
{
closed = 1;
nodes = (
"323 1875 OFFCURVE",
"342 1893 OFFCURVE",
"379 1923 CURVE SMOOTH",
"416 1953 OFFCURVE",
"457 1985 OFFCURVE",
"501 2019 CURVE SMOOTH",
"544 2052 OFFCURVE",
"570 2072 OFFCURVE",
"577 2079 CURVE",
"607 2079 OFFCURVE",
"622 2068 OFFCURVE",
"622 2047 CURVE SMOOTH",
"622 2046 OFFCURVE",
"620 2036 OFFCURVE",
"616 2016 CURVE",
"547 1985 OFFCURVE",
"462 1927 OFFCURVE",
"360 1840 CURVE",
"340 1840 OFFCURVE",
"323 1851 OFFCURVE",
"323 1870 CURVE SMOOTH"
);
},
{
closed = 1;
nodes = (
"173 902 OFFCURVE",
"173 938 OFFCURVE",
"172 986 CURVE SMOOTH",
"171 1033 OFFCURVE",
"171 1068 OFFCURVE",
"171 1090 CURVE SMOOTH",
"171 1174 OFFCURVE",
"174 1230 OFFCURVE",
"184 1300 CURVE SMOOTH",
"194 1370 OFFCURVE",
"210 1414 OFFCURVE",
"242 1461 CURVE SMOOTH",
"273 1508 OFFCURVE",
"314 1535 OFFCURVE",
"377 1552 CURVE SMOOTH",
"408 1561 OFFCURVE",
"444 1565 OFFCURVE",
"483 1565 CURVE SMOOTH",
"530 1565 OFFCURVE",
"601 1532 OFFCURVE",
"601 1489 CURVE SMOOTH",
"601 1474 OFFCURVE",
"590 1466 OFFCURVE",
"569 1466 CURVE SMOOTH",
"561 1466 OFFCURVE",
"545 1471 OFFCURVE",
"522 1481 CURVE",
"498 1490 OFFCURVE",
"479 1495 OFFCURVE",
"466 1495 CURVE SMOOTH",
"385 1495 OFFCURVE",
"324 1459 OFFCURVE",
"290 1410 CURVE SMOOTH",
"256 1361 OFFCURVE",
"236 1276 OFFCURVE",
"230 1205 CURVE SMOOTH",
"227 1169 OFFCURVE",
"225 1128 OFFCURVE",
"225 1081 CURVE SMOOTH",
"225 1054 OFFCURVE",
"226 1016 OFFCURVE",
"227 967 CURVE SMOOTH",
"228 917 OFFCURVE",
"229 881 OFFCURVE",
"229 860 CURVE SMOOTH",
"229 699 OFFCURVE",
"273 188 OFFCURVE",
"313 127 CURVE SMOOTH",
"348 74 OFFCURVE",
"418 47 OFFCURVE",
"487 47 CURVE SMOOTH",
"549 47 OFFCURVE",
"597 67 OFFCURVE",
"630 106 CURVE",
"641 123 OFFCURVE",
"654 132 OFFCURVE",
"668 132 CURVE SMOOTH",
"681 132 OFFCURVE",
"687 122 OFFCURVE",
"687 102 CURVE SMOOTH",
"687 53 OFFCURVE",
"652 15 OFFCURVE",
"604 -4 CURVE SMOOTH",
"555 -24 OFFCURVE",
"505 -33 OFFCURVE",
"460 -33 CURVE SMOOTH",
"381 -33 OFFCURVE",
"284 40 OFFCURVE",
"249 115 CURVE SMOOTH",
"214 190 OFFCURVE",
"173 714 OFFCURVE",
"173 877 CURVE SMOOTH"
);
}
);
width = 780;
}
);
note = Cacute;
unicode = 0106;
},
{
glyphname = Ccaron;
lastChange = "2015-11-03 20:15:51 +0000";
layers = (
{
layerId = "27A8C2A5-6B67-4598-967C-E5EC4FB8AE70";
name = Condensed;
paths = (
{
closed = 1;
nodes = (
"541 2064 LINE",
"566 2060 OFFCURVE",
"578 2052 OFFCURVE",
"578 2040 CURVE SMOOTH",
"578 2035 OFFCURVE",
"575 2028 OFFCURVE",
"570 2017 CURVE",
"572 2007 LINE",
"557 1976 LINE",
"559 1964 LINE",
"554 1947 OFFCURVE",
"546 1922 OFFCURVE",
"535 1890 CURVE SMOOTH",
"511 1825 OFFCURVE",
"498 1777 OFFCURVE",
"498 1724 CURVE SMOOTH",
"498 1695 OFFCURVE",
"488 1681 OFFCURVE",
"469 1681 CURVE SMOOTH",
"428 1681 OFFCURVE",
"300 1967 OFFCURVE",
"297 2027 CURVE",
"334 2054 LINE",
"369 2007 LINE",
"370 1994 OFFCURVE",
"376 1970 OFFCURVE",
"387 1937 CURVE SMOOTH",
"408 1870 OFFCURVE",
"452 1748 OFFCURVE",
"455 1741 CURVE",
"488 1863 OFFCURVE",
"507 1965 OFFCURVE",
"514 2048 CURVE"
);
},
{
closed = 1;
nodes = (
"173 902 OFFCURVE",
"173 938 OFFCURVE",
"172 986 CURVE SMOOTH",
"171 1033 OFFCURVE",
"171 1068 OFFCURVE",
"171 1090 CURVE SMOOTH",
"171 1174 OFFCURVE",
"174 1230 OFFCURVE",
"184 1300 CURVE SMOOTH",
"194 1370 OFFCURVE",
"210 1414 OFFCURVE",
"242 1461 CURVE SMOOTH",
"273 1508 OFFCURVE",
"314 1535 OFFCURVE",
"377 1552 CURVE SMOOTH",
"408 1561 OFFCURVE",
"444 1565 OFFCURVE",
"483 1565 CURVE SMOOTH",
"530 1565 OFFCURVE",
"601 1532 OFFCURVE",
"601 1489 CURVE SMOOTH",
"601 1474 OFFCURVE",
"590 1466 OFFCURVE",
"569 1466 CURVE SMOOTH",
"561 1466 OFFCURVE",
"545 1471 OFFCURVE",
"522 1481 CURVE",
"498 1490 OFFCURVE",
"479 1495 OFFCURVE",
"466 1495 CURVE SMOOTH",
"385 1495 OFFCURVE",
"324 1459 OFFCURVE",
"290 1410 CURVE SMOOTH",
"256 1361 OFFCURVE",
"236 1276 OFFCURVE",
"230 1205 CURVE SMOOTH",
"227 1169 OFFCURVE",
"225 1128 OFFCURVE",
"225 1081 CURVE SMOOTH",
"225 1054 OFFCURVE",
"226 1016 OFFCURVE",
"227 967 CURVE SMOOTH",
"228 917 OFFCURVE",
"229 881 OFFCURVE",
"229 860 CURVE SMOOTH",
"229 699 OFFCURVE",
"273 188 OFFCURVE",
"313 127 CURVE SMOOTH",
"348 74 OFFCURVE",
"418 47 OFFCURVE",
"487 47 CURVE SMOOTH",
"549 47 OFFCURVE",
"597 67 OFFCURVE",
"630 106 CURVE",
"641 123 OFFCURVE",
"654 132 OFFCURVE",
"668 132 CURVE SMOOTH",
"681 132 OFFCURVE",
"687 122 OFFCURVE",
"687 102 CURVE SMOOTH",
"687 53 OFFCURVE",
"652 15 OFFCURVE",
"604 -4 CURVE SMOOTH",
"555 -24 OFFCURVE",
"505 -33 OFFCURVE",
"460 -33 CURVE SMOOTH",
"381 -33 OFFCURVE",
"284 40 OFFCURVE",
"249 115 CURVE SMOOTH",
"214 190 OFFCURVE",
"173 714 OFFCURVE",
"173 877 CURVE SMOOTH"
);
}
);
width = 780;
}
);
note = Ccaron;
unicode = 010C;
},
{
glyphname = Ccedilla;
lastChange = "2015-11-03 20:15:51 +0000";
layers = (
{
layerId = "27A8C2A5-6B67-4598-967C-E5EC4FB8AE70";
name = Condensed;
paths = (
{
closed = 1;
nodes = (
"514 -160 OFFCURVE",
"505 -161 OFFCURVE",
"493 -163 CURVE",
"480 -166 OFFCURVE",
"471 -167 OFFCURVE",
"465 -167 CURVE SMOOTH",
"444 -167 OFFCURVE",
"426 -153 OFFCURVE",
"409 -126 CURVE",
"420 -100 OFFCURVE",
"426 -61 OFFCURVE",
"426 -9 CURVE SMOOTH",
"426 14 LINE",
"485 22 LINE",
"480 -9 OFFCURVE",
"477 -44 OFFCURVE",
"477 -81 CURVE",
"576 -88 OFFCURVE",
"626 -156 OFFCURVE",
"626 -287 CURVE SMOOTH",
"626 -351 OFFCURVE",
"554 -449 OFFCURVE",
"471 -449 CURVE SMOOTH",
"432 -449 OFFCURVE",
"383 -429 OFFCURVE",
"383 -394 CURVE SMOOTH",
"383 -380 OFFCURVE",
"390 -373 OFFCURVE",
"405 -373 CURVE SMOOTH",
"413 -373 OFFCURVE",
"424 -376 OFFCURVE",
"438 -383 CURVE SMOOTH",
"452 -390 OFFCURVE",
"463 -394 OFFCURVE",
"471 -394 CURVE SMOOTH",
"519 -394 OFFCURVE",
"551 -324 OFFCURVE",
"551 -251 CURVE SMOOTH",
"551 -206 OFFCURVE",
"541 -176 OFFCURVE",
"520 -160 CURVE"
);
},
{
closed = 1;
nodes = (
"173 902 OFFCURVE",
"173 938 OFFCURVE",
"172 986 CURVE SMOOTH",
"171 1033 OFFCURVE",
"171 1068 OFFCURVE",
"171 1090 CURVE SMOOTH",
"171 1174 OFFCURVE",
"174 1230 OFFCURVE",
"184 1300 CURVE SMOOTH",
"194 1370 OFFCURVE",
"210 1414 OFFCURVE",
"242 1461 CURVE SMOOTH",
"273 1508 OFFCURVE",
"314 1535 OFFCURVE",
"377 1552 CURVE SMOOTH",
"408 1561 OFFCURVE",
"444 1565 OFFCURVE",
"483 1565 CURVE SMOOTH",
"530 1565 OFFCURVE",
"601 1532 OFFCURVE",
"601 1489 CURVE SMOOTH",
"601 1474 OFFCURVE",
"590 1466 OFFCURVE",
"569 1466 CURVE SMOOTH",
"561 1466 OFFCURVE",
"545 1471 OFFCURVE",
"522 1481 CURVE",
"498 1490 OFFCURVE",
"479 1495 OFFCURVE",
"466 1495 CURVE SMOOTH",
"385 1495 OFFCURVE",
"324 1459 OFFCURVE",
"290 1410 CURVE SMOOTH",
"256 1361 OFFCURVE",
"236 1276 OFFCURVE",
"230 1205 CURVE SMOOTH",
"227 1169 OFFCURVE",
"225 1128 OFFCURVE",
"225 1081 CURVE SMOOTH",
"225 1054 OFFCURVE",
"226 1016 OFFCURVE",
"227 967 CURVE SMOOTH",
"228 917 OFFCURVE",
"229 881 OFFCURVE",
"229 860 CURVE SMOOTH",
"229 699 OFFCURVE",
"273 188 OFFCURVE",
"313 127 CURVE SMOOTH",
"348 74 OFFCURVE",
"418 47 OFFCURVE",
"487 47 CURVE SMOOTH",
"549 47 OFFCURVE",
"597 67 OFFCURVE",
"630 106 CURVE",
"641 123 OFFCURVE",
"654 132 OFFCURVE",
"668 132 CURVE SMOOTH",
"681 132 OFFCURVE",
"687 122 OFFCURVE",
"687 102 CURVE SMOOTH",
"687 53 OFFCURVE",
"652 15 OFFCURVE",
"604 -4 CURVE SMOOTH",
"555 -24 OFFCURVE",
"505 -33 OFFCURVE",
"460 -33 CURVE SMOOTH",
"381 -33 OFFCURVE",
"284 40 OFFCURVE",
"249 115 CURVE SMOOTH",
"214 190 OFFCURVE",
"173 714 OFFCURVE",
"173 877 CURVE SMOOTH"
);
}
);
width = 780;
}
);
note = Ccedilla;
unicode = 00C7;
},
{
glyphname = Ccircumflex;
lastChange = "2015-11-03 20:15:51 +0000";
layers = (
{
layerId = "27A8C2A5-6B67-4598-967C-E5EC4FB8AE70";
name = Condensed;
paths = (
{
closed = 1;
nodes = (
"524 1698 LINE",
"517 1781 OFFCURVE",
"498 1883 OFFCURVE",
"465 2005 CURVE",
"462 1998 OFFCURVE",
"418 1876 OFFCURVE",
"397 1809 CURVE SMOOTH",
"386 1776 OFFCURVE",
"380 1752 OFFCURVE",
"379 1739 CURVE",
"344 1692 LINE",
"307 1718 LINE",
"310 1778 OFFCURVE",
"438 2064 OFFCURVE",
"479 2064 CURVE SMOOTH",
"498 2064 OFFCURVE",
"508 2050 OFFCURVE",
"508 2021 CURVE SMOOTH",
"508 1968 OFFCURVE",
"521 1920 OFFCURVE",
"545 1856 CURVE SMOOTH",
"556 1824 OFFCURVE",
"564 1799 OFFCURVE",
"569 1782 CURVE",
"567 1769 LINE",
"582 1739 LINE",
"580 1728 LINE",
"585 1717 OFFCURVE",
"588 1710 OFFCURVE",
"588 1706 CURVE SMOOTH",
"588 1693 OFFCURVE",
"576 1685 OFFCURVE",
"551 1681 CURVE"
);
},
{
closed = 1;
nodes = (
"173 902 OFFCURVE",
"173 938 OFFCURVE",
"172 986 CURVE SMOOTH",
"171 1033 OFFCURVE",
"171 1068 OFFCURVE",
"171 1090 CURVE SMOOTH",
"171 1174 OFFCURVE",
"174 1230 OFFCURVE",
"184 1300 CURVE SMOOTH",
"194 1370 OFFCURVE",
"210 1414 OFFCURVE",
"242 1461 CURVE SMOOTH",
"273 1508 OFFCURVE",
"314 1535 OFFCURVE",
"377 1552 CURVE SMOOTH",
"408 1561 OFFCURVE",
"444 1565 OFFCURVE",
"483 1565 CURVE SMOOTH",
"530 1565 OFFCURVE",
"601 1532 OFFCURVE",
"601 1489 CURVE SMOOTH",
"601 1474 OFFCURVE",
"590 1466 OFFCURVE",
"569 1466 CURVE SMOOTH",
"561 1466 OFFCURVE",
"545 1471 OFFCURVE",
"522 1481 CURVE",
"498 1490 OFFCURVE",
"479 1495 OFFCURVE",
"466 1495 CURVE SMOOTH",
"385 1495 OFFCURVE",
"324 1459 OFFCURVE",
"290 1410 CURVE SMOOTH",
"256 1361 OFFCURVE",
"236 1276 OFFCURVE",
"230 1205 CURVE SMOOTH",
"227 1169 OFFCURVE",
"225 1128 OFFCURVE",
"225 1081 CURVE SMOOTH",
"225 1054 OFFCURVE",
"226 1016 OFFCURVE",
"227 967 CURVE SMOOTH",
"228 917 OFFCURVE",
"229 881 OFFCURVE",
"229 860 CURVE SMOOTH",
"229 699 OFFCURVE",
"273 188 OFFCURVE",
"313 127 CURVE SMOOTH",
"348 74 OFFCURVE",
"418 47 OFFCURVE",
"487 47 CURVE SMOOTH",
"549 47 OFFCURVE",
"597 67 OFFCURVE",
"630 106 CURVE",
"641 123 OFFCURVE",
"654 132 OFFCURVE",
"668 132 CURVE SMOOTH",
"681 132 OFFCURVE",
"687 122 OFFCURVE",
"687 102 CURVE SMOOTH",
"687 53 OFFCURVE",
"652 15 OFFCURVE",
"604 -4 CURVE SMOOTH",
"555 -24 OFFCURVE",
"505 -33 OFFCURVE",
"460 -33 CURVE SMOOTH",
"381 -33 OFFCURVE",
"284 40 OFFCURVE",
"249 115 CURVE SMOOTH",
"214 190 OFFCURVE",
"173 714 OFFCURVE",
"173 877 CURVE SMOOTH"
);
}
);
width = 780;
}
);
note = Ccircumflex;
unicode = 0108;
},
{
glyphname = Cdotaccent;
lastChange = "2015-11-03 20:15:51 +0000";
layers = (
{
layerId = "27A8C2A5-6B67-4598-967C-E5EC4FB8AE70";
name = Condensed;
paths = (
{
closed = 1;
nodes = (
"389 1960 OFFCURVE",
"415 1988 OFFCURVE",
"442 1988 CURVE SMOOTH",
"466 1988 OFFCURVE",
"491 1959 OFFCURVE",
"491 1935 CURVE SMOOTH",
"491 1901 OFFCURVE",
"472 1884 OFFCURVE",
"434 1884 CURVE SMOOTH",
"410 1884 OFFCURVE",
"389 1909 OFFCURVE",
"389 1933 CURVE SMOOTH"
);
},
{
closed = 1;
nodes = (
"173 902 OFFCURVE",
"173 938 OFFCURVE",
"172 986 CURVE SMOOTH",
"171 1033 OFFCURVE",
"171 1068 OFFCURVE",
"171 1090 CURVE SMOOTH",
"171 1174 OFFCURVE",
"174 1230 OFFCURVE",
"184 1300 CURVE SMOOTH",
"194 1370 OFFCURVE",
"210 1414 OFFCURVE",
"242 1461 CURVE SMOOTH",
"273 1508 OFFCURVE",
"314 1535 OFFCURVE",
"377 1552 CURVE SMOOTH",
"408 1561 OFFCURVE",
"444 1565 OFFCURVE",
"483 1565 CURVE SMOOTH",
"530 1565 OFFCURVE",
"601 1532 OFFCURVE",
"601 1489 CURVE SMOOTH",
"601 1474 OFFCURVE",
"590 1466 OFFCURVE",
"569 1466 CURVE SMOOTH",
"561 1466 OFFCURVE",
"545 1471 OFFCURVE",
"522 1481 CURVE",
"498 1490 OFFCURVE",
"479 1495 OFFCURVE",
"466 1495 CURVE SMOOTH",
"385 1495 OFFCURVE",
"324 1459 OFFCURVE",
"290 1410 CURVE SMOOTH",
"256 1361 OFFCURVE",
"236 1276 OFFCURVE",
"230 1205 CURVE SMOOTH",
"227 1169 OFFCURVE",
"225 1128 OFFCURVE",
"225 1081 CURVE SMOOTH",
"225 1054 OFFCURVE",
"226 1016 OFFCURVE",
"227 967 CURVE SMOOTH",
"228 917 OFFCURVE",
"229 881 OFFCURVE",
"229 860 CURVE SMOOTH",
"229 699 OFFCURVE",
"273 188 OFFCURVE",
"313 127 CURVE SMOOTH",
"348 74 OFFCURVE",
"418 47 OFFCURVE",
"487 47 CURVE SMOOTH",
"549 47 OFFCURVE",
"597 67 OFFCURVE",
"630 106 CURVE",
"641 123 OFFCURVE",
"654 132 OFFCURVE",
"668 132 CURVE SMOOTH",
"681 132 OFFCURVE",
"687 122 OFFCURVE",
"687 102 CURVE SMOOTH",
"687 53 OFFCURVE",
"652 15 OFFCURVE",
"604 -4 CURVE SMOOTH",
"555 -24 OFFCURVE",
"505 -33 OFFCURVE",
"460 -33 CURVE SMOOTH",
"381 -33 OFFCURVE",
"284 40 OFFCURVE",
"249 115 CURVE SMOOTH",
"214 190 OFFCURVE",
"173 714 OFFCURVE",
"173 877 CURVE SMOOTH"
);
}
);
width = 780;
}
);
note = Cdotaccent;
unicode = 010A;
},
{
glyphname = D;
lastChange = "2015-11-03 20:15:51 +0000";
layers = (
{
layerId = "27A8C2A5-6B67-4598-967C-E5EC4FB8AE70";
name = Condensed;
paths = (
{
closed = 1;
nodes = (
"268 100 LINE",
"278 100 LINE",
"381 155 OFFCURVE",
"462 266 OFFCURVE",
"506 378 CURVE SMOOTH",
"549 489 OFFCURVE",
"577 635 OFFCURVE",
"586 733 CURVE SMOOTH",
"590 782 OFFCURVE",
"592 829 OFFCURVE",
"592 874 CURVE SMOOTH",
"592 1273 OFFCURVE",
"482 1473 OFFCURVE",
"262 1473 CURVE SMOOTH",
"233 1473 OFFCURVE",
"219 1465 OFFCURVE",
"219 1450 CURVE SMOOTH",
"219 1411 OFFCURVE",
"222 1354 OFFCURVE",
"228 1279 CURVE SMOOTH",
"234 1204 OFFCURVE",
"237 1147 OFFCURVE",
"237 1110 CURVE SMOOTH",
"237 1022 OFFCURVE",
"242 892 OFFCURVE",
"253 719 CURVE SMOOTH",
"263 546 OFFCURVE",
"268 416 OFFCURVE",
"268 330 CURVE SMOOTH"
);
},
{
closed = 1;
nodes = (
"172 46 OFFCURVE",
"178 60 OFFCURVE",
"189 78 CURVE SMOOTH",
"200 95 OFFCURVE",
"205 109 OFFCURVE",
"204 119 CURVE",
"198 299 LINE",
"184 858 LINE",
"183 865 OFFCURVE",
"182 948 OFFCURVE",
"180 1105 CURVE SMOOTH",
"177 1262 OFFCURVE",
"173 1358 OFFCURVE",
"168 1391 CURVE",
"167 1400 OFFCURVE",
"162 1417 OFFCURVE",
"153 1441 CURVE SMOOTH",
"144 1465 OFFCURVE",
"139 1484 OFFCURVE",
"139 1497 CURVE SMOOTH",
"139 1530 OFFCURVE",
"190 1546 OFFCURVE",
"293 1546 CURVE SMOOTH",
"303 1546 LINE SMOOTH",
"376 1546 OFFCURVE",
"440 1517 OFFCURVE",
"485 1475 CURVE SMOOTH",
"529 1433 OFFCURVE",
"567 1364 OFFCURVE",
"590 1301 CURVE SMOOTH",
"613 1237 OFFCURVE",
"631 1151 OFFCURVE",
"639 1089 CURVE SMOOTH",
"647 1027 OFFCURVE",
"653 942 OFFCURVE",
"654 902 CURVE SMOOTH",
"654 881 OFFCURVE",
"654 860 OFFCURVE",
"654 837 CURVE SMOOTH",
"654 672 OFFCURVE",
"609 461 OFFCURVE",
"526 284 CURVE SMOOTH",
"443 107 OFFCURVE",
"279 -4 OFFCURVE",
"247 -4 CURVE SMOOTH",
"215 -4 OFFCURVE",
"172 12 OFFCURVE",
"172 37 CURVE SMOOTH"
);
}
);
width = 820;
}
);
note = D;
unicode = 0044;
},
{
glyphname = Eth;
lastChange = "2015-11-03 20:15:51 +0000";
layers = (
{
layerId = "27A8C2A5-6B67-4598-967C-E5EC4FB8AE70";
name = Condensed;
paths = (
{
closed = 1;
nodes = (
"288 449 LINE",
"288 400 OFFCURVE",
"292 327 OFFCURVE",
"299 228 CURVE SMOOTH",
"306 129 OFFCURVE",
"309 55 OFFCURVE",
"309 6 CURVE",
"321 9 OFFCURVE",
"332 13 OFFCURVE",
"343 21 CURVE SMOOTH",
"354 29 OFFCURVE",
"357 33 OFFCURVE",
"369 46 CURVE",
"375 52 OFFCURVE",
"379 56 OFFCURVE",
"382 59 CURVE SMOOTH",
"519 194 OFFCURVE",
"638 437 OFFCURVE",
"638 616 CURVE SMOOTH",
"638 759 OFFCURVE",
"638 808 OFFCURVE",
"625 925 CURVE SMOOTH",
"618 983 OFFCURVE",
"608 1037 OFFCURVE",
"595 1087 CURVE",
"551 1302 OFFCURVE",
"427 1481 OFFCURVE",
"235 1538 CURVE",
"231 1534 LINE",
"231 1362 OFFCURVE",
"253 858 OFFCURVE",
"280 821 CURVE",
"296 821 OFFCURVE",
"320 825 OFFCURVE",
"351 833 CURVE SMOOTH",
"382 840 OFFCURVE",
"406 844 OFFCURVE",
"421 844 CURVE SMOOTH",
"444 844 OFFCURVE",
"461 818 OFFCURVE",
"464 795 CURVE",
"444 770 LINE",
"375 770 OFFCURVE",
"319 765 OFFCURVE",
"276 756 CURVE",
"276 713 OFFCURVE",
"286 467 OFFCURVE",
"290 451 CURVE"
);
},
{
closed = 1;
nodes = (
"239 -49 LINE",
"239 132 OFFCURVE",
"233 349 OFFCURVE",
"221 602 CURVE",
"214 686 OFFCURVE",
"209 737 OFFCURVE",
"204 754 CURVE",
"189 754 OFFCURVE",
"168 752 OFFCURVE",
"141 748 CURVE SMOOTH",
"113 743 OFFCURVE",
"92 741 OFFCURVE",
"79 741 CURVE SMOOTH",
"56 741 OFFCURVE",
"51 752 OFFCURVE",
"51 776 CURVE SMOOTH",
"51 801 OFFCURVE",
"93 813 OFFCURVE",
"178 813 CURVE SMOOTH",
"196 813 LINE",
"204 817 LINE",
"204 818 OFFCURVE",
"204 819 OFFCURVE",
"205 822 CURVE SMOOTH",
"206 825 OFFCURVE",
"206 826 OFFCURVE",
"206 827 CURVE SMOOTH",
"206 868 OFFCURVE",
"201 929 OFFCURVE",
"192 1011 CURVE SMOOTH",
"183 1093 OFFCURVE",
"178 1155 OFFCURVE",
"178 1196 CURVE SMOOTH",
"178 1237 OFFCURVE",
"175 1299 OFFCURVE",
"170 1380 CURVE SMOOTH",
"164 1461 OFFCURVE",
"161 1522 OFFCURVE",
"161 1563 CURVE SMOOTH",
"161 1574 OFFCURVE",
"183 1606 OFFCURVE",
"194 1606 CURVE SMOOTH",
"279 1606 OFFCURVE",
"372 1553 OFFCURVE",
"445 1476 CURVE SMOOTH",
"518 1399 OFFCURVE",
"573 1321 OFFCURVE",
"616 1241 CURVE",
"616 1237 LINE",
"680 1056 OFFCURVE",
"712 860 OFFCURVE",
"712 649 CURVE SMOOTH",
"712 470 OFFCURVE",
"645 263 OFFCURVE",
"517 93 CURVE SMOOTH",
"452 8 OFFCURVE",
"380 -53 OFFCURVE",
"301 -88 CURVE",
"295 -85 OFFCURVE",
"287 -83 OFFCURVE",
"278 -80 CURVE",
"258 -75 OFFCURVE",
"250 -69 OFFCURVE",
"241 -49 CURVE"
);
}
);
width = 880;
}
);
note = Eth;
unicode = 00D0;
},
{
glyphname = Dcaron;
lastChange = "2015-11-03 20:15:51 +0000";
layers = (
{
layerId = "27A8C2A5-6B67-4598-967C-E5EC4FB8AE70";
name = Condensed;
paths = (
{
closed = 1;
nodes = (
"470 2064 LINE",
"495 2060 OFFCURVE",
"507 2052 OFFCURVE",
"507 2040 CURVE SMOOTH",
"507 2035 OFFCURVE",
"504 2028 OFFCURVE",
"499 2017 CURVE",
"501 2007 LINE",
"486 1976 LINE",
"488 1964 LINE",
"483 1947 OFFCURVE",
"475 1922 OFFCURVE",
"464 1890 CURVE SMOOTH",
"440 1825 OFFCURVE",
"427 1777 OFFCURVE",
"427 1724 CURVE SMOOTH",
"427 1695 OFFCURVE",
"417 1681 OFFCURVE",
"398 1681 CURVE SMOOTH",
"357 1681 OFFCURVE",
"229 1967 OFFCURVE",
"226 2027 CURVE",
"263 2054 LINE",
"298 2007 LINE",
"299 1994 OFFCURVE",
"305 1970 OFFCURVE",
"316 1937 CURVE SMOOTH",
"337 1870 OFFCURVE",
"381 1748 OFFCURVE",
"384 1741 CURVE",
"417 1863 OFFCURVE",
"436 1965 OFFCURVE",
"443 2048 CURVE"
);
},
{
closed = 1;
nodes = (
"268 100 LINE",
"278 100 LINE",
"381 155 OFFCURVE",
"462 266 OFFCURVE",
"506 378 CURVE SMOOTH",
"549 489 OFFCURVE",
"577 635 OFFCURVE",
"586 733 CURVE SMOOTH",
"590 782 OFFCURVE",
"592 829 OFFCURVE",
"592 874 CURVE SMOOTH",
"592 1273 OFFCURVE",
"482 1473 OFFCURVE",
"262 1473 CURVE SMOOTH",
"233 1473 OFFCURVE",
"219 1465 OFFCURVE",
"219 1450 CURVE SMOOTH",
"219 1411 OFFCURVE",
"222 1354 OFFCURVE",
"228 1279 CURVE SMOOTH",
"234 1204 OFFCURVE",
"237 1147 OFFCURVE",
"237 1110 CURVE SMOOTH",
"237 1022 OFFCURVE",
"242 892 OFFCURVE",
"253 719 CURVE SMOOTH",
"263 546 OFFCURVE",
"268 416 OFFCURVE",
"268 330 CURVE SMOOTH"
);
},
{
closed = 1;
nodes = (
"172 46 OFFCURVE",
"178 60 OFFCURVE",
"189 78 CURVE SMOOTH",
"200 95 OFFCURVE",
"205 109 OFFCURVE",
"204 119 CURVE",
"198 299 LINE",
"184 858 LINE",
"183 865 OFFCURVE",
"182 948 OFFCURVE",
"180 1105 CURVE SMOOTH",
"177 1262 OFFCURVE",
"173 1358 OFFCURVE",
"168 1391 CURVE",
"167 1400 OFFCURVE",
"162 1417 OFFCURVE",
"153 1441 CURVE SMOOTH",
"144 1465 OFFCURVE",
"139 1484 OFFCURVE",
"139 1497 CURVE SMOOTH",
"139 1530 OFFCURVE",
"190 1546 OFFCURVE",
"293 1546 CURVE SMOOTH",
"303 1546 LINE SMOOTH",
"376 1546 OFFCURVE",
"440 1517 OFFCURVE",
"485 1475 CURVE SMOOTH",
"529 1433 OFFCURVE",
"567 1364 OFFCURVE",
"590 1301 CURVE SMOOTH",
"613 1237 OFFCURVE",
"631 1151 OFFCURVE",
"639 1089 CURVE SMOOTH",
"647 1027 OFFCURVE",
"653 942 OFFCURVE",
"654 902 CURVE SMOOTH",
"654 881 OFFCURVE",
"654 860 OFFCURVE",
"654 837 CURVE SMOOTH",
"654 672 OFFCURVE",
"609 461 OFFCURVE",
"526 284 CURVE SMOOTH",
"443 107 OFFCURVE",
"279 -4 OFFCURVE",
"247 -4 CURVE SMOOTH",
"215 -4 OFFCURVE",
"172 12 OFFCURVE",
"172 37 CURVE SMOOTH"
);
}
);
width = 820;
}
);
note = Dcaron;
unicode = 010E;
},
{
glyphname = Dcroat;
lastChange = "2015-11-03 20:15:51 +0000";
layers = (
{
layerId = "27A8C2A5-6B67-4598-967C-E5EC4FB8AE70";
name = Condensed;
paths = (
{
closed = 1;
nodes = (
"288 449 LINE",
"288 400 OFFCURVE",
"292 327 OFFCURVE",
"299 228 CURVE SMOOTH",
"306 129 OFFCURVE",
"309 55 OFFCURVE",
"309 6 CURVE",
"321 9 OFFCURVE",
"332 13 OFFCURVE",
"343 21 CURVE SMOOTH",
"354 29 OFFCURVE",
"357 33 OFFCURVE",
"369 46 CURVE",
"375 52 OFFCURVE",
"379 56 OFFCURVE",
"382 59 CURVE SMOOTH",
"519 194 OFFCURVE",
"638 437 OFFCURVE",
"638 616 CURVE SMOOTH",
"638 759 OFFCURVE",
"638 808 OFFCURVE",
"625 925 CURVE SMOOTH",
"618 983 OFFCURVE",
"608 1037 OFFCURVE",
"595 1087 CURVE",
"551 1302 OFFCURVE",
"427 1481 OFFCURVE",
"235 1538 CURVE",
"231 1534 LINE",
"231 1362 OFFCURVE",
"253 858 OFFCURVE",
"280 821 CURVE",
"296 821 OFFCURVE",
"320 825 OFFCURVE",
"351 833 CURVE SMOOTH",
"382 840 OFFCURVE",
"406 844 OFFCURVE",
"421 844 CURVE SMOOTH",
"444 844 OFFCURVE",
"461 818 OFFCURVE",
"464 795 CURVE",
"444 770 LINE",
"375 770 OFFCURVE",
"319 765 OFFCURVE",
"276 756 CURVE",
"276 713 OFFCURVE",
"286 467 OFFCURVE",
"290 451 CURVE"
);
},
{
closed = 1;
nodes = (
"239 -49 LINE",
"239 132 OFFCURVE",
"233 349 OFFCURVE",
"221 602 CURVE",
"214 686 OFFCURVE",
"209 737 OFFCURVE",
"204 754 CURVE",
"189 754 OFFCURVE",
"168 752 OFFCURVE",
"141 748 CURVE SMOOTH",
"113 743 OFFCURVE",
"92 741 OFFCURVE",
"79 741 CURVE SMOOTH",
"56 741 OFFCURVE",
"51 752 OFFCURVE",
"51 776 CURVE SMOOTH",
"51 801 OFFCURVE",
"93 813 OFFCURVE",
"178 813 CURVE SMOOTH",
"196 813 LINE",
"204 817 LINE",
"204 818 OFFCURVE",
"204 819 OFFCURVE",
"205 822 CURVE SMOOTH",
"206 825 OFFCURVE",
"206 826 OFFCURVE",
"206 827 CURVE SMOOTH",
"206 868 OFFCURVE",
"201 929 OFFCURVE",
"192 1011 CURVE SMOOTH",
"183 1093 OFFCURVE",
"178 1155 OFFCURVE",
"178 1196 CURVE SMOOTH",
"178 1237 OFFCURVE",
"175 1299 OFFCURVE",
"170 1380 CURVE SMOOTH",
"164 1461 OFFCURVE",
"161 1522 OFFCURVE",
"161 1563 CURVE SMOOTH",
"161 1574 OFFCURVE",
"183 1606 OFFCURVE",
"194 1606 CURVE SMOOTH",
"279 1606 OFFCURVE",
"372 1553 OFFCURVE",
"445 1476 CURVE SMOOTH",
"518 1399 OFFCURVE",
"573 1321 OFFCURVE",
"616 1241 CURVE",
"616 1237 LINE",
"680 1056 OFFCURVE",
"712 860 OFFCURVE",
"712 649 CURVE SMOOTH",
"712 470 OFFCURVE",
"645 263 OFFCURVE",
"517 93 CURVE SMOOTH",
"452 8 OFFCURVE",
"380 -53 OFFCURVE",
"301 -88 CURVE",
"295 -85 OFFCURVE",
"287 -83 OFFCURVE",
"278 -80 CURVE",
"258 -75 OFFCURVE",
"250 -69 OFFCURVE",
"241 -49 CURVE"
);
}
);
width = 880;
}
);
note = Dcroat;
unicode = 0110;
},
{
glyphname = E;
lastChange = "2015-11-03 20:15:51 +0000";
layers = (
{
layerId = "27A8C2A5-6B67-4598-967C-E5EC4FB8AE70";
name = Condensed;
paths = (
{
closed = 1;
nodes = (
"192 42 OFFCURVE",
"192 54 OFFCURVE",
"192 71 CURVE",
"191 88 OFFCURVE",
"191 100 OFFCURVE",
"191 109 CURVE SMOOTH",
"191 113 LINE",
"193 412 LINE",
"191 1257 LINE",
"191 1313 OFFCURVE",
"190 1389 OFFCURVE",
"187 1485 CURVE",
"187 1517 OFFCURVE",
"200 1542 OFFCURVE",
"224 1542 CURVE SMOOTH",
"351 1542 LINE SMOOTH",
"371 1542 OFFCURVE",
"378 1542 OFFCURVE",
"393 1538 CURVE",
"408 1533 OFFCURVE",
"414 1522 OFFCURVE",
"414 1503 CURVE SMOOTH",
"414 1479 OFFCURVE",
"390 1466 OFFCURVE",
"374 1465 CURVE",
"365 1464 OFFCURVE",
"354 1464 OFFCURVE",
"340 1464 CURVE SMOOTH",
"334 1464 OFFCURVE",
"323 1465 OFFCURVE",
"307 1466 CURVE SMOOTH",
"291 1467 OFFCURVE",
"280 1468 OFFCURVE",
"274 1468 CURVE SMOOTH",
"255 1468 OFFCURVE",
"250 1465 OFFCURVE",
"250 1444 CURVE SMOOTH",
"250 1405 OFFCURVE",
"250 1347 OFFCURVE",
"251 1270 CURVE SMOOTH",
"251 1193 OFFCURVE",
"251 1135 OFFCURVE",
"251 1096 CURVE SMOOTH",
"251 840 LINE SMOOTH",
"251 837 OFFCURVE",
"252 836 OFFCURVE",
"255 836 CURVE SMOOTH",
"256 836 OFFCURVE",
"256 836 OFFCURVE",
"257 836 CURVE SMOOTH",
"258 836 OFFCURVE",
"258 836 OFFCURVE",
"259 836 CURVE",
"311 839 OFFCURVE",
"348 840 OFFCURVE",
"370 840 CURVE SMOOTH",
"393 840 OFFCURVE",
"404 830 OFFCURVE",
"404 810 CURVE SMOOTH",
"404 785 OFFCURVE",
"396 776 OFFCURVE",
"373 776 CURVE SMOOTH",
"256 776 LINE SMOOTH",
"251 776 OFFCURVE",
"248 773 OFFCURVE",
"248 766 CURVE SMOOTH",
"248 703 OFFCURVE",
"249 602 OFFCURVE",
"252 462 CURVE SMOOTH",
"255 321 OFFCURVE",
"256 213 OFFCURVE",
"256 137 CURVE SMOOTH",
"256 61 LINE",
"269 61 OFFCURVE",
"298 61 OFFCURVE",
"343 62 CURVE SMOOTH",
"388 62 OFFCURVE",
"417 62 OFFCURVE",
"430 62 CURVE SMOOTH",
"448 62 LINE SMOOTH",
"473 62 OFFCURVE",
"486 53 OFFCURVE",
"486 35 CURVE SMOOTH",
"486 14 OFFCURVE",
"480 1 OFFCURVE",
"467 -4 CURVE SMOOTH",
"454 -9 OFFCURVE",
"420 -12 OFFCURVE",
"367 -12 CURVE SMOOTH",
"280 -12 LINE SMOOTH",
"221 -12 OFFCURVE",
"192 -6 OFFCURVE",
"192 33 CURVE SMOOTH"
);
}
);
width = 620;
}
);
note = E;
unicode = 0045;
},
{
glyphname = Eacute;
lastChange = "2015-11-03 20:15:51 +0000";
layers = (
{
layerId = "27A8C2A5-6B67-4598-967C-E5EC4FB8AE70";
name = Condensed;
paths = (
{
closed = 1;
nodes = (
"201 1875 OFFCURVE",
"220 1893 OFFCURVE",
"257 1923 CURVE SMOOTH",
"294 1953 OFFCURVE",
"335 1985 OFFCURVE",
"379 2019 CURVE SMOOTH",
"422 2052 OFFCURVE",
"448 2072 OFFCURVE",
"455 2079 CURVE",
"485 2079 OFFCURVE",
"500 2068 OFFCURVE",
"500 2047 CURVE SMOOTH",
"500 2046 OFFCURVE",
"498 2036 OFFCURVE",
"494 2016 CURVE",
"425 1985 OFFCURVE",
"340 1927 OFFCURVE",
"238 1840 CURVE",
"218 1840 OFFCURVE",
"201 1851 OFFCURVE",
"201 1870 CURVE SMOOTH"
);
},
{
closed = 1;
nodes = (
"192 42 OFFCURVE",
"192 54 OFFCURVE",
"192 71 CURVE",
"191 88 OFFCURVE",
"191 100 OFFCURVE",
"191 109 CURVE SMOOTH",
"191 113 LINE",
"193 412 LINE",
"191 1257 LINE",
"191 1313 OFFCURVE",
"190 1389 OFFCURVE",
"187 1485 CURVE",
"187 1517 OFFCURVE",
"200 1542 OFFCURVE",
"224 1542 CURVE SMOOTH",
"351 1542 LINE SMOOTH",
"371 1542 OFFCURVE",
"378 1542 OFFCURVE",
"393 1538 CURVE",
"408 1533 OFFCURVE",
"414 1522 OFFCURVE",
"414 1503 CURVE SMOOTH",
"414 1479 OFFCURVE",
"390 1466 OFFCURVE",
"374 1465 CURVE",
"365 1464 OFFCURVE",
"354 1464 OFFCURVE",
"340 1464 CURVE SMOOTH",
"334 1464 OFFCURVE",
"323 1465 OFFCURVE",
"307 1466 CURVE SMOOTH",
"291 1467 OFFCURVE",
"280 1468 OFFCURVE",
"274 1468 CURVE SMOOTH",
"255 1468 OFFCURVE",
"250 1465 OFFCURVE",
"250 1444 CURVE SMOOTH",
"250 1405 OFFCURVE",
"250 1347 OFFCURVE",
"251 1270 CURVE SMOOTH",
"251 1193 OFFCURVE",
"251 1135 OFFCURVE",
"251 1096 CURVE SMOOTH",
"251 840 LINE SMOOTH",
"251 837 OFFCURVE",
"252 836 OFFCURVE",
"255 836 CURVE SMOOTH",
"256 836 OFFCURVE",
"256 836 OFFCURVE",
"257 836 CURVE SMOOTH",
"258 836 OFFCURVE",
"258 836 OFFCURVE",
"259 836 CURVE",
"311 839 OFFCURVE",
"348 840 OFFCURVE",
"370 840 CURVE SMOOTH",
"393 840 OFFCURVE",
"404 830 OFFCURVE",
"404 810 CURVE SMOOTH",
"404 785 OFFCURVE",
"396 776 OFFCURVE",
"373 776 CURVE SMOOTH",
"256 776 LINE SMOOTH",
"251 776 OFFCURVE",
"248 773 OFFCURVE",
"248 766 CURVE SMOOTH",
"248 703 OFFCURVE",
"249 602 OFFCURVE",
"252 462 CURVE SMOOTH",
"255 321 OFFCURVE",
"256 213 OFFCURVE",
"256 137 CURVE SMOOTH",
"256 61 LINE",
"269 61 OFFCURVE",
"298 61 OFFCURVE",
"343 62 CURVE SMOOTH",
"388 62 OFFCURVE",
"417 62 OFFCURVE",
"430 62 CURVE SMOOTH",
"448 62 LINE SMOOTH",
"473 62 OFFCURVE",
"486 53 OFFCURVE",
"486 35 CURVE SMOOTH",
"486 14 OFFCURVE",
"480 1 OFFCURVE",
"467 -4 CURVE SMOOTH",
"454 -9 OFFCURVE",
"420 -12 OFFCURVE",
"367 -12 CURVE SMOOTH",
"280 -12 LINE SMOOTH",
"221 -12 OFFCURVE",
"192 -6 OFFCURVE",
"192 33 CURVE SMOOTH"
);
}
);
width = 620;
}
);
note = Eacute;
unicode = 00C9;
},
{
glyphname = Ebreve;
lastChange = "2015-11-03 20:15:51 +0000";
layers = (
{
layerId = "27A8C2A5-6B67-4598-967C-E5EC4FB8AE70";
name = Condensed;
paths = (
{
closed = 1;
nodes = (
"223 1959 LINE",
"232 1958 OFFCURVE",
"239 1948 OFFCURVE",
"243 1927 CURVE SMOOTH",
"250 1886 OFFCURVE",
"262 1819 OFFCURVE",
"295 1795 CURVE SMOOTH",
"317 1779 LINE",
"368 1779 LINE SMOOTH",
"404 1779 OFFCURVE",
"438 1844 OFFCURVE",
"438 1883 CURVE SMOOTH",
"438 1886 OFFCURVE",
"438 1891 OFFCURVE",
"437 1898 CURVE SMOOTH",
"436 1904 OFFCURVE",
"436 1909 OFFCURVE",
"436 1912 CURVE SMOOTH",
"436 1938 OFFCURVE",
"448 1951 OFFCURVE",
"473 1951 CURVE SMOOTH",
"488 1951 OFFCURVE",
"504 1938 OFFCURVE",
"504 1922 CURVE SMOOTH",
"504 1919 OFFCURVE",
"502 1913 OFFCURVE",
"499 1905 CURVE SMOOTH",
"496 1897 OFFCURVE",
"494 1892 OFFCURVE",
"493 1890 CURVE",
"498 1875 LINE",
"495 1868 OFFCURVE",
"489 1857 OFFCURVE",
"482 1840 CURVE SMOOTH",
"467 1806 OFFCURVE",
"465 1800 OFFCURVE",
"449 1777 CURVE SMOOTH",
"433 1753 OFFCURVE",
"420 1747 OFFCURVE",
"394 1739 CURVE",
"381 1734 OFFCURVE",
"366 1732 OFFCURVE",
"350 1732 CURVE SMOOTH",
"295 1732 OFFCURVE",
"253 1759 OFFCURVE",
"232 1802 CURVE SMOOTH",
"211 1845 OFFCURVE",
"201 1890 OFFCURVE",
"201 1941 CURVE"
);
},
{
closed = 1;
nodes = (
"192 42 OFFCURVE",
"192 54 OFFCURVE",
"192 71 CURVE",
"191 88 OFFCURVE",
"191 100 OFFCURVE",
"191 109 CURVE SMOOTH",
"191 113 LINE",
"193 412 LINE",
"191 1257 LINE",
"191 1313 OFFCURVE",
"190 1389 OFFCURVE",
"187 1485 CURVE",
"187 1517 OFFCURVE",
"200 1542 OFFCURVE",
"224 1542 CURVE SMOOTH",
"351 1542 LINE SMOOTH",
"371 1542 OFFCURVE",
"378 1542 OFFCURVE",
"393 1538 CURVE",
"408 1533 OFFCURVE",
"414 1522 OFFCURVE",
"414 1503 CURVE SMOOTH",
"414 1479 OFFCURVE",
"390 1466 OFFCURVE",
"374 1465 CURVE",
"365 1464 OFFCURVE",
"354 1464 OFFCURVE",
"340 1464 CURVE SMOOTH",
"334 1464 OFFCURVE",
"323 1465 OFFCURVE",
"307 1466 CURVE SMOOTH",
"291 1467 OFFCURVE",
"280 1468 OFFCURVE",
"274 1468 CURVE SMOOTH",
"255 1468 OFFCURVE",
"250 1465 OFFCURVE",
"250 1444 CURVE SMOOTH",
"250 1405 OFFCURVE",
"250 1347 OFFCURVE",
"251 1270 CURVE SMOOTH",
"251 1193 OFFCURVE",
"251 1135 OFFCURVE",
"251 1096 CURVE SMOOTH",
"251 840 LINE SMOOTH",
"251 837 OFFCURVE",
"252 836 OFFCURVE",
"255 836 CURVE SMOOTH",
"256 836 OFFCURVE",
"256 836 OFFCURVE",
"257 836 CURVE SMOOTH",
"258 836 OFFCURVE",
"258 836 OFFCURVE",
"259 836 CURVE",
"311 839 OFFCURVE",
"348 840 OFFCURVE",
"370 840 CURVE SMOOTH",
"393 840 OFFCURVE",
"404 830 OFFCURVE",
"404 810 CURVE SMOOTH",
"404 785 OFFCURVE",
"396 776 OFFCURVE",
"373 776 CURVE SMOOTH",
"256 776 LINE SMOOTH",
"251 776 OFFCURVE",
"248 773 OFFCURVE",
"248 766 CURVE SMOOTH",
"248 703 OFFCURVE",
"249 602 OFFCURVE",
"252 462 CURVE SMOOTH",
"255 321 OFFCURVE",
"256 213 OFFCURVE",
"256 137 CURVE SMOOTH",
"256 61 LINE",
"269 61 OFFCURVE",
"298 61 OFFCURVE",
"343 62 CURVE SMOOTH",
"388 62 OFFCURVE",
"417 62 OFFCURVE",
"430 62 CURVE SMOOTH",
"448 62 LINE SMOOTH",
"473 62 OFFCURVE",
"486 53 OFFCURVE",
"486 35 CURVE SMOOTH",
"486 14 OFFCURVE",
"480 1 OFFCURVE",
"467 -4 CURVE SMOOTH",
"454 -9 OFFCURVE",
"420 -12 OFFCURVE",
"367 -12 CURVE SMOOTH",
"280 -12 LINE SMOOTH",
"221 -12 OFFCURVE",
"192 -6 OFFCURVE",
"192 33 CURVE SMOOTH"
);
}
);
width = 620;
}
);
note = Ebreve;
unicode = 0114;
},
{
glyphname = Ecaron;
lastChange = "2015-11-03 20:15:51 +0000";
layers = (
{
layerId = "27A8C2A5-6B67-4598-967C-E5EC4FB8AE70";
name = Condensed;
paths = (
{
closed = 1;
nodes = (
"419 2064 LINE",
"444 2060 OFFCURVE",
"456 2052 OFFCURVE",
"456 2040 CURVE SMOOTH",
"456 2035 OFFCURVE",
"453 2028 OFFCURVE",
"448 2017 CURVE",
"450 2007 LINE",
"435 1976 LINE",
"437 1964 LINE",
"432 1947 OFFCURVE",
"424 1922 OFFCURVE",
"413 1890 CURVE SMOOTH",
"389 1825 OFFCURVE",
"376 1777 OFFCURVE",
"376 1724 CURVE SMOOTH",
"376 1695 OFFCURVE",
"366 1681 OFFCURVE",
"347 1681 CURVE SMOOTH",
"306 1681 OFFCURVE",
"178 1967 OFFCURVE",
"175 2027 CURVE",
"212 2054 LINE",
"247 2007 LINE",
"248 1994 OFFCURVE",
"254 1970 OFFCURVE",
"265 1937 CURVE SMOOTH",
"286 1870 OFFCURVE",
"330 1748 OFFCURVE",
"333 1741 CURVE",
"366 1863 OFFCURVE",
"385 1965 OFFCURVE",
"392 2048 CURVE"
);
},
{
closed = 1;
nodes = (
"192 42 OFFCURVE",
"192 54 OFFCURVE",
"192 71 CURVE",
"191 88 OFFCURVE",
"191 100 OFFCURVE",
"191 109 CURVE SMOOTH",
"191 113 LINE",
"193 412 LINE",
"191 1257 LINE",
"191 1313 OFFCURVE",
"190 1389 OFFCURVE",
"187 1485 CURVE",
"187 1517 OFFCURVE",
"200 1542 OFFCURVE",
"224 1542 CURVE SMOOTH",
"351 1542 LINE SMOOTH",
"371 1542 OFFCURVE",
"378 1542 OFFCURVE",
"393 1538 CURVE",
"408 1533 OFFCURVE",
"414 1522 OFFCURVE",
"414 1503 CURVE SMOOTH",
"414 1479 OFFCURVE",
"390 1466 OFFCURVE",
"374 1465 CURVE",
"365 1464 OFFCURVE",
"354 1464 OFFCURVE",
"340 1464 CURVE SMOOTH",
"334 1464 OFFCURVE",
"323 1465 OFFCURVE",
"307 1466 CURVE SMOOTH",
"291 1467 OFFCURVE",
"280 1468 OFFCURVE",
"274 1468 CURVE SMOOTH",
"255 1468 OFFCURVE",
"250 1465 OFFCURVE",
"250 1444 CURVE SMOOTH",
"250 1405 OFFCURVE",
"250 1347 OFFCURVE",
"251 1270 CURVE SMOOTH",
"251 1193 OFFCURVE",
"251 1135 OFFCURVE",
"251 1096 CURVE SMOOTH",
"251 840 LINE SMOOTH",
"251 837 OFFCURVE",
"252 836 OFFCURVE",
"255 836 CURVE SMOOTH",
"256 836 OFFCURVE",
"256 836 OFFCURVE",
"257 836 CURVE SMOOTH",
"258 836 OFFCURVE",
"258 836 OFFCURVE",
"259 836 CURVE",
"311 839 OFFCURVE",
"348 840 OFFCURVE",
"370 840 CURVE SMOOTH",
"393 840 OFFCURVE",
"404 830 OFFCURVE",
"404 810 CURVE SMOOTH",
"404 785 OFFCURVE",
"396 776 OFFCURVE",
"373 776 CURVE SMOOTH",
"256 776 LINE SMOOTH",
"251 776 OFFCURVE",
"248 773 OFFCURVE",
"248 766 CURVE SMOOTH",
"248 703 OFFCURVE",
"249 602 OFFCURVE",
"252 462 CURVE SMOOTH",
"255 321 OFFCURVE",
"256 213 OFFCURVE",
"256 137 CURVE SMOOTH",
"256 61 LINE",
"269 61 OFFCURVE",
"298 61 OFFCURVE",
"343 62 CURVE SMOOTH",
"388 62 OFFCURVE",
"417 62 OFFCURVE",
"430 62 CURVE SMOOTH",
"448 62 LINE SMOOTH",
"473 62 OFFCURVE",
"486 53 OFFCURVE",
"486 35 CURVE SMOOTH",
"486 14 OFFCURVE",
"480 1 OFFCURVE",
"467 -4 CURVE SMOOTH",
"454 -9 OFFCURVE",
"420 -12 OFFCURVE",
"367 -12 CURVE SMOOTH",
"280 -12 LINE SMOOTH",
"221 -12 OFFCURVE",
"192 -6 OFFCURVE",
"192 33 CURVE SMOOTH"
);
}
);
width = 620;
}
);
note = Ecaron;
unicode = 011A;
},
{
glyphname = Ecircumflex;
lastChange = "2015-11-03 20:15:51 +0000";
layers = (
{
layerId = "27A8C2A5-6B67-4598-967C-E5EC4FB8AE70";
name = Condensed;
paths = (
{
closed = 1;
nodes = (
"402 1698 LINE",
"395 1781 OFFCURVE",
"376 1883 OFFCURVE",
"343 2005 CURVE",
"340 1998 OFFCURVE",
"296 1876 OFFCURVE",
"275 1809 CURVE SMOOTH",
"264 1776 OFFCURVE",
"258 1752 OFFCURVE",
"257 1739 CURVE",
"222 1692 LINE",
"185 1718 LINE",
"188 1778 OFFCURVE",
"316 2064 OFFCURVE",
"357 2064 CURVE SMOOTH",
"376 2064 OFFCURVE",
"386 2050 OFFCURVE",
"386 2021 CURVE SMOOTH",
"386 1968 OFFCURVE",
"399 1920 OFFCURVE",
"423 1856 CURVE SMOOTH",
"434 1824 OFFCURVE",
"442 1799 OFFCURVE",
"447 1782 CURVE",
"445 1769 LINE",
"460 1739 LINE",
"458 1728 LINE",
"463 1717 OFFCURVE",
"466 1710 OFFCURVE",
"466 1706 CURVE SMOOTH",
"466 1693 OFFCURVE",
"454 1685 OFFCURVE",
"429 1681 CURVE"
);
},
{
closed = 1;
nodes = (
"192 42 OFFCURVE",
"192 54 OFFCURVE",
"192 71 CURVE",
"191 88 OFFCURVE",
"191 100 OFFCURVE",
"191 109 CURVE SMOOTH",
"191 113 LINE",
"193 412 LINE",
"191 1257 LINE",
"191 1313 OFFCURVE",
"190 1389 OFFCURVE",
"187 1485 CURVE",
"187 1517 OFFCURVE",
"200 1542 OFFCURVE",
"224 1542 CURVE SMOOTH",
"351 1542 LINE SMOOTH",
"371 1542 OFFCURVE",
"378 1542 OFFCURVE",
"393 1538 CURVE",
"408 1533 OFFCURVE",
"414 1522 OFFCURVE",
"414 1503 CURVE SMOOTH",
"414 1479 OFFCURVE",
"390 1466 OFFCURVE",
"374 1465 CURVE",
"365 1464 OFFCURVE",
"354 1464 OFFCURVE",
"340 1464 CURVE SMOOTH",
"334 1464 OFFCURVE",
"323 1465 OFFCURVE",
"307 1466 CURVE SMOOTH",
"291 1467 OFFCURVE",
"280 1468 OFFCURVE",
"274 1468 CURVE SMOOTH",
"255 1468 OFFCURVE",
"250 1465 OFFCURVE",
"250 1444 CURVE SMOOTH",
"250 1405 OFFCURVE",
"250 1347 OFFCURVE",
"251 1270 CURVE SMOOTH",
"251 1193 OFFCURVE",
"251 1135 OFFCURVE",
"251 1096 CURVE SMOOTH",
"251 840 LINE SMOOTH",
"251 837 OFFCURVE",
"252 836 OFFCURVE",
"255 836 CURVE SMOOTH",
"256 836 OFFCURVE",
"256 836 OFFCURVE",
"257 836 CURVE SMOOTH",
"258 836 OFFCURVE",
"258 836 OFFCURVE",
"259 836 CURVE",
"311 839 OFFCURVE",
"348 840 OFFCURVE",
"370 840 CURVE SMOOTH",
"393 840 OFFCURVE",
"404 830 OFFCURVE",
"404 810 CURVE SMOOTH",
"404 785 OFFCURVE",
"396 776 OFFCURVE",
"373 776 CURVE SMOOTH",
"256 776 LINE SMOOTH",
"251 776 OFFCURVE",
"248 773 OFFCURVE",
"248 766 CURVE SMOOTH",
"248 703 OFFCURVE",
"249 602 OFFCURVE",
"252 462 CURVE SMOOTH",
"255 321 OFFCURVE",
"256 213 OFFCURVE",
"256 137 CURVE SMOOTH",
"256 61 LINE",
"269 61 OFFCURVE",
"298 61 OFFCURVE",
"343 62 CURVE SMOOTH",
"388 62 OFFCURVE",
"417 62 OFFCURVE",
"430 62 CURVE SMOOTH",
"448 62 LINE SMOOTH",
"473 62 OFFCURVE",
"486 53 OFFCURVE",
"486 35 CURVE SMOOTH",
"486 14 OFFCURVE",
"480 1 OFFCURVE",
"467 -4 CURVE SMOOTH",
"454 -9 OFFCURVE",
"420 -12 OFFCURVE",
"367 -12 CURVE SMOOTH",
"280 -12 LINE SMOOTH",
"221 -12 OFFCURVE",
"192 -6 OFFCURVE",
"192 33 CURVE SMOOTH"
);
}
);
width = 620;
}
);
note = Ecircumflex;
unicode = 00CA;
},
{
glyphname = Edieresis;
lastChange = "2015-11-03 20:15:51 +0000";
layers = (
{
layerId = "27A8C2A5-6B67-4598-967C-E5EC4FB8AE70";
name = Condensed;
paths = (
{
closed = 1;
nodes = (
"53 1887 OFFCURVE",
"78 1914 OFFCURVE",
"102 1914 CURVE SMOOTH",
"131 1914 OFFCURVE",
"143 1880 OFFCURVE",
"143 1847 CURVE SMOOTH",
"143 1824 OFFCURVE",
"116 1812 OFFCURVE",
"92 1812 CURVE SMOOTH",
"69 1812 OFFCURVE",
"53 1840 OFFCURVE",
"53 1863 CURVE SMOOTH"
);
},
{
closed = 1;
nodes = (
"513 1890 OFFCURVE",
"538 1916 OFFCURVE",
"563 1916 CURVE SMOOTH",
"586 1916 OFFCURVE",
"608 1888 OFFCURVE",
"608 1867 CURVE SMOOTH",
"608 1836 OFFCURVE",
"590 1820 OFFCURVE",
"554 1820 CURVE SMOOTH",
"533 1820 OFFCURVE",
"513 1844 OFFCURVE",
"513 1865 CURVE SMOOTH"
);
},
{
closed = 1;
nodes = (
"192 42 OFFCURVE",
"192 54 OFFCURVE",
"192 71 CURVE",
"191 88 OFFCURVE",
"191 100 OFFCURVE",
"191 109 CURVE SMOOTH",
"191 113 LINE",
"193 412 LINE",
"191 1257 LINE",
"191 1313 OFFCURVE",
"190 1389 OFFCURVE",
"187 1485 CURVE",
"187 1517 OFFCURVE",
"200 1542 OFFCURVE",
"224 1542 CURVE SMOOTH",
"351 1542 LINE SMOOTH",
"371 1542 OFFCURVE",
"378 1542 OFFCURVE",
"393 1538 CURVE",
"408 1533 OFFCURVE",
"414 1522 OFFCURVE",
"414 1503 CURVE SMOOTH",
"414 1479 OFFCURVE",
"390 1466 OFFCURVE",
"374 1465 CURVE",
"365 1464 OFFCURVE",
"354 1464 OFFCURVE",
"340 1464 CURVE SMOOTH",
"334 1464 OFFCURVE",
"323 1465 OFFCURVE",
"307 1466 CURVE SMOOTH",
"291 1467 OFFCURVE",
"280 1468 OFFCURVE",
"274 1468 CURVE SMOOTH",
"255 1468 OFFCURVE",
"250 1465 OFFCURVE",
"250 1444 CURVE SMOOTH",
"250 1405 OFFCURVE",
"250 1347 OFFCURVE",
"251 1270 CURVE SMOOTH",
"251 1193 OFFCURVE",
"251 1135 OFFCURVE",
"251 1096 CURVE SMOOTH",
"251 840 LINE SMOOTH",
"251 837 OFFCURVE",
"252 836 OFFCURVE",
"255 836 CURVE SMOOTH",
"256 836 OFFCURVE",
"256 836 OFFCURVE",
"257 836 CURVE SMOOTH",
"258 836 OFFCURVE",
"258 836 OFFCURVE",
"259 836 CURVE",
"311 839 OFFCURVE",
"348 840 OFFCURVE",
"370 840 CURVE SMOOTH",
"393 840 OFFCURVE",
"404 830 OFFCURVE",
"404 810 CURVE SMOOTH",
"404 785 OFFCURVE",
"396 776 OFFCURVE",
"373 776 CURVE SMOOTH",
"256 776 LINE SMOOTH",
"251 776 OFFCURVE",
"248 773 OFFCURVE",
"248 766 CURVE SMOOTH",
"248 703 OFFCURVE",
"249 602 OFFCURVE",
"252 462 CURVE SMOOTH",
"255 321 OFFCURVE",
"256 213 OFFCURVE",
"256 137 CURVE SMOOTH",
"256 61 LINE",
"269 61 OFFCURVE",
"298 61 OFFCURVE",
"343 62 CURVE SMOOTH",
"388 62 OFFCURVE",
"417 62 OFFCURVE",
"430 62 CURVE SMOOTH",
"448 62 LINE SMOOTH",
"473 62 OFFCURVE",
"486 53 OFFCURVE",
"486 35 CURVE SMOOTH",
"486 14 OFFCURVE",
"480 1 OFFCURVE",
"467 -4 CURVE SMOOTH",
"454 -9 OFFCURVE",
"420 -12 OFFCURVE",
"367 -12 CURVE SMOOTH",
"280 -12 LINE SMOOTH",
"221 -12 OFFCURVE",
"192 -6 OFFCURVE",
"192 33 CURVE SMOOTH"
);
}
);
width = 620;
}
);
note = Edieresis;
unicode = 00CB;
},
{
glyphname = Edotaccent;
lastChange = "2015-11-03 20:15:51 +0000";
layers = (
{
layerId = "27A8C2A5-6B67-4598-967C-E5EC4FB8AE70";
name = Condensed;
paths = (
{
closed = 1;
nodes = (
"267 1960 OFFCURVE",
"293 1988 OFFCURVE",
"320 1988 CURVE SMOOTH",
"344 1988 OFFCURVE",
"369 1959 OFFCURVE",
"369 1935 CURVE SMOOTH",
"369 1901 OFFCURVE",
"350 1884 OFFCURVE",
"312 1884 CURVE SMOOTH",
"288 1884 OFFCURVE",
"267 1909 OFFCURVE",
"267 1933 CURVE SMOOTH"
);
},
{
closed = 1;
nodes = (
"192 42 OFFCURVE",
"192 54 OFFCURVE",
"192 71 CURVE",
"191 88 OFFCURVE",
"191 100 OFFCURVE",
"191 109 CURVE SMOOTH",
"191 113 LINE",
"193 412 LINE",
"191 1257 LINE",
"191 1313 OFFCURVE",
"190 1389 OFFCURVE",
"187 1485 CURVE",
"187 1517 OFFCURVE",
"200 1542 OFFCURVE",
"224 1542 CURVE SMOOTH",
"351 1542 LINE SMOOTH",
"371 1542 OFFCURVE",
"378 1542 OFFCURVE",
"393 1538 CURVE",
"408 1533 OFFCURVE",
"414 1522 OFFCURVE",
"414 1503 CURVE SMOOTH",
"414 1479 OFFCURVE",
"390 1466 OFFCURVE",
"374 1465 CURVE",
"365 1464 OFFCURVE",
"354 1464 OFFCURVE",
"340 1464 CURVE SMOOTH",
"334 1464 OFFCURVE",
"323 1465 OFFCURVE",
"307 1466 CURVE SMOOTH",
"291 1467 OFFCURVE",
"280 1468 OFFCURVE",
"274 1468 CURVE SMOOTH",
"255 1468 OFFCURVE",
"250 1465 OFFCURVE",
"250 1444 CURVE SMOOTH",
"250 1405 OFFCURVE",
"250 1347 OFFCURVE",
"251 1270 CURVE SMOOTH",
"251 1193 OFFCURVE",
"251 1135 OFFCURVE",
"251 1096 CURVE SMOOTH",
"251 840 LINE SMOOTH",
"251 837 OFFCURVE",
"252 836 OFFCURVE",
"255 836 CURVE SMOOTH",
"256 836 OFFCURVE",
"256 836 OFFCURVE",
"257 836 CURVE SMOOTH",
"258 836 OFFCURVE",
"258 836 OFFCURVE",
"259 836 CURVE",
"311 839 OFFCURVE",
"348 840 OFFCURVE",
"370 840 CURVE SMOOTH",
"393 840 OFFCURVE",
"404 830 OFFCURVE",
"404 810 CURVE SMOOTH",
"404 785 OFFCURVE",
"396 776 OFFCURVE",
"373 776 CURVE SMOOTH",
"256 776 LINE SMOOTH",
"251 776 OFFCURVE",
"248 773 OFFCURVE",
"248 766 CURVE SMOOTH",
"248 703 OFFCURVE",
"249 602 OFFCURVE",
"252 462 CURVE SMOOTH",
"255 321 OFFCURVE",
"256 213 OFFCURVE",
"256 137 CURVE SMOOTH",
"256 61 LINE",
"269 61 OFFCURVE",
"298 61 OFFCURVE",
"343 62 CURVE SMOOTH",
"388 62 OFFCURVE",
"417 62 OFFCURVE",
"430 62 CURVE SMOOTH",
"448 62 LINE SMOOTH",
"473 62 OFFCURVE",
"486 53 OFFCURVE",
"486 35 CURVE SMOOTH",
"486 14 OFFCURVE",
"480 1 OFFCURVE",
"467 -4 CURVE SMOOTH",
"454 -9 OFFCURVE",
"420 -12 OFFCURVE",
"367 -12 CURVE SMOOTH",
"280 -12 LINE SMOOTH",
"221 -12 OFFCURVE",
"192 -6 OFFCURVE",
"192 33 CURVE SMOOTH"
);
}
);
width = 620;
}
);
note = Edotaccent;
unicode = 0116;
},
{
glyphname = Egrave;
lastChange = "2015-11-03 20:15:51 +0000";
layers = (
{
layerId = "27A8C2A5-6B67-4598-967C-E5EC4FB8AE70";
name = Condensed;
paths = (
{
closed = 1;
nodes = (
"116 1948 OFFCURVE",
"105 1947 OFFCURVE",
"96 1947 CURVE SMOOTH",
"49 1947 OFFCURVE",
"26 1961 OFFCURVE",
"26 1988 CURVE SMOOTH",
"26 2012 OFFCURVE",
"30 2027 OFFCURVE",
"39 2033 CURVE",
"52 2033 LINE SMOOTH",
"93 2033 OFFCURVE",
"119 2025 OFFCURVE",
"131 2010 CURVE",
"132 2009 OFFCURVE",
"141 2007 OFFCURVE",
"156 2002 CURVE SMOOTH",
"186 1992 OFFCURVE",
"201 1986 OFFCURVE",
"237 1972 CURVE SMOOTH",
"272 1958 OFFCURVE",
"296 1947 OFFCURVE",
"321 1933 CURVE SMOOTH",
"346 1919 OFFCURVE",
"360 1905 OFFCURVE",
"360 1894 CURVE SMOOTH",
"360 1885 OFFCURVE",
"345 1877 OFFCURVE",
"336 1877 CURVE SMOOTH",
"331 1877 OFFCURVE",
"141 1944 OFFCURVE",
"129 1951 CURVE"
);
},
{
closed = 1;
nodes = (
"192 42 OFFCURVE",
"192 54 OFFCURVE",
"192 71 CURVE",
"191 88 OFFCURVE",
"191 100 OFFCURVE",
"191 109 CURVE SMOOTH",
"191 113 LINE",
"193 412 LINE",
"191 1257 LINE",
"191 1313 OFFCURVE",
"190 1389 OFFCURVE",
"187 1485 CURVE",
"187 1517 OFFCURVE",
"200 1542 OFFCURVE",
"224 1542 CURVE SMOOTH",
"351 1542 LINE SMOOTH",
"371 1542 OFFCURVE",
"378 1542 OFFCURVE",
"393 1538 CURVE",
"408 1533 OFFCURVE",
"414 1522 OFFCURVE",
"414 1503 CURVE SMOOTH",
"414 1479 OFFCURVE",
"390 1466 OFFCURVE",
"374 1465 CURVE",
"365 1464 OFFCURVE",
"354 1464 OFFCURVE",
"340 1464 CURVE SMOOTH",
"334 1464 OFFCURVE",
"323 1465 OFFCURVE",
"307 1466 CURVE SMOOTH",
"291 1467 OFFCURVE",
"280 1468 OFFCURVE",
"274 1468 CURVE SMOOTH",
"255 1468 OFFCURVE",
"250 1465 OFFCURVE",
"250 1444 CURVE SMOOTH",
"250 1405 OFFCURVE",
"250 1347 OFFCURVE",
"251 1270 CURVE SMOOTH",
"251 1193 OFFCURVE",
"251 1135 OFFCURVE",
"251 1096 CURVE SMOOTH",
"251 840 LINE SMOOTH",
"251 837 OFFCURVE",
"252 836 OFFCURVE",
"255 836 CURVE SMOOTH",
"256 836 OFFCURVE",
"256 836 OFFCURVE",
"257 836 CURVE SMOOTH",
"258 836 OFFCURVE",
"258 836 OFFCURVE",
"259 836 CURVE",
"311 839 OFFCURVE",
"348 840 OFFCURVE",
"370 840 CURVE SMOOTH",
"393 840 OFFCURVE",
"404 830 OFFCURVE",
"404 810 CURVE SMOOTH",
"404 785 OFFCURVE",
"396 776 OFFCURVE",
"373 776 CURVE SMOOTH",
"256 776 LINE SMOOTH",
"251 776 OFFCURVE",
"248 773 OFFCURVE",
"248 766 CURVE SMOOTH",
"248 703 OFFCURVE",
"249 602 OFFCURVE",
"252 462 CURVE SMOOTH",
"255 321 OFFCURVE",
"256 213 OFFCURVE",
"256 137 CURVE SMOOTH",
"256 61 LINE",
"269 61 OFFCURVE",
"298 61 OFFCURVE",
"343 62 CURVE SMOOTH",
"388 62 OFFCURVE",
"417 62 OFFCURVE",
"430 62 CURVE SMOOTH",
"448 62 LINE SMOOTH",
"473 62 OFFCURVE",
"486 53 OFFCURVE",
"486 35 CURVE SMOOTH",
"486 14 OFFCURVE",
"480 1 OFFCURVE",
"467 -4 CURVE SMOOTH",
"454 -9 OFFCURVE",
"420 -12 OFFCURVE",
"367 -12 CURVE SMOOTH",
"280 -12 LINE SMOOTH",
"221 -12 OFFCURVE",
"192 -6 OFFCURVE",
"192 33 CURVE SMOOTH"
);
}
);
width = 620;
}
);
note = Egrave;
unicode = 00C8;
},
{
glyphname = Emacron;
lastChange = "2015-11-03 20:15:51 +0000";
layers = (
{
layerId = "27A8C2A5-6B67-4598-967C-E5EC4FB8AE70";
name = Condensed;
paths = (
{
closed = 1;
nodes = (
"563 1840 OFFCURVE",
"519 1834 OFFCURVE",
"433 1834 CURVE SMOOTH",
"318 1834 LINE SMOOTH",
"300 1834 OFFCURVE",
"287 1834 OFFCURVE",
"278 1834 CURVE SMOOTH",
"261 1834 OFFCURVE",
"227 1835 OFFCURVE",
"213 1838 CURVE SMOOTH",
"199 1841 OFFCURVE",
"180 1845 OFFCURVE",
"174 1853 CURVE SMOOTH",
"171 1857 OFFCURVE",
"169 1862 OFFCURVE",
"169 1867 CURVE",
"170 1878 OFFCURVE",
"214 1884 OFFCURVE",
"300 1884 CURVE SMOOTH",
"416 1884 LINE SMOOTH",
"471 1884 OFFCURVE",
"487 1884 OFFCURVE",
"520 1880 CURVE SMOOTH",
"552 1876 OFFCURVE",
"564 1867 OFFCURVE",
"564 1851 CURVE"
);
},
{
closed = 1;
nodes = (
"192 42 OFFCURVE",
"192 54 OFFCURVE",
"192 71 CURVE",
"191 88 OFFCURVE",
"191 100 OFFCURVE",
"191 109 CURVE SMOOTH",
"191 113 LINE",
"193 412 LINE",
"191 1257 LINE",
"191 1313 OFFCURVE",
"190 1389 OFFCURVE",
"187 1485 CURVE",
"187 1517 OFFCURVE",
"200 1542 OFFCURVE",
"224 1542 CURVE SMOOTH",
"351 1542 LINE SMOOTH",
"371 1542 OFFCURVE",
"378 1542 OFFCURVE",
"393 1538 CURVE",
"408 1533 OFFCURVE",
"414 1522 OFFCURVE",
"414 1503 CURVE SMOOTH",
"414 1479 OFFCURVE",
"390 1466 OFFCURVE",
"374 1465 CURVE",
"365 1464 OFFCURVE",
"354 1464 OFFCURVE",
"340 1464 CURVE SMOOTH",
"334 1464 OFFCURVE",
"323 1465 OFFCURVE",
"307 1466 CURVE SMOOTH",
"291 1467 OFFCURVE",
"280 1468 OFFCURVE",
"274 1468 CURVE SMOOTH",
"255 1468 OFFCURVE",
"250 1465 OFFCURVE",
"250 1444 CURVE SMOOTH",
"250 1405 OFFCURVE",
"250 1347 OFFCURVE",
"251 1270 CURVE SMOOTH",
"251 1193 OFFCURVE",
"251 1135 OFFCURVE",
"251 1096 CURVE SMOOTH",
"251 840 LINE SMOOTH",
"251 837 OFFCURVE",
"252 836 OFFCURVE",
"255 836 CURVE SMOOTH",
"256 836 OFFCURVE",
"256 836 OFFCURVE",
"257 836 CURVE SMOOTH",
"258 836 OFFCURVE",
"258 836 OFFCURVE",
"259 836 CURVE",
"311 839 OFFCURVE",
"348 840 OFFCURVE",
"370 840 CURVE SMOOTH",
"393 840 OFFCURVE",
"404 830 OFFCURVE",
"404 810 CURVE SMOOTH",
"404 785 OFFCURVE",
"396 776 OFFCURVE",
"373 776 CURVE SMOOTH",
"256 776 LINE SMOOTH",
"251 776 OFFCURVE",
"248 773 OFFCURVE",
"248 766 CURVE SMOOTH",
"248 703 OFFCURVE",
"249 602 OFFCURVE",
"252 462 CURVE SMOOTH",
"255 321 OFFCURVE",
"256 213 OFFCURVE",
"256 137 CURVE SMOOTH",
"256 61 LINE",
"269 61 OFFCURVE",
"298 61 OFFCURVE",
"343 62 CURVE SMOOTH",
"388 62 OFFCURVE",
"417 62 OFFCURVE",
"430 62 CURVE SMOOTH",
"448 62 LINE SMOOTH",
"473 62 OFFCURVE",
"486 53 OFFCURVE",
"486 35 CURVE SMOOTH",
"486 14 OFFCURVE",
"480 1 OFFCURVE",
"467 -4 CURVE SMOOTH",
"454 -9 OFFCURVE",
"420 -12 OFFCURVE",
"367 -12 CURVE SMOOTH",
"280 -12 LINE SMOOTH",
"221 -12 OFFCURVE",
"192 -6 OFFCURVE",
"192 33 CURVE SMOOTH"
);
}
);
width = 620;
}
);
note = Emacron;
unicode = 0112;
},
{
glyphname = Eogonek;
lastChange = "2015-11-03 20:15:51 +0000";
layers = (
{
layerId = "27A8C2A5-6B67-4598-967C-E5EC4FB8AE70";
name = Condensed;
paths = (
{
closed = 1;
nodes = (
"360 22 LINE",
"419 14 LINE",
"421 15 LINE",
"422 14 LINE",
"422 13 OFFCURVE",
"416 4 OFFCURVE",
"405 -12 CURVE",
"381 -44 OFFCURVE",
"352 -84 OFFCURVE",
"329 -141 CURVE SMOOTH",
"317 -170 OFFCURVE",
"311 -196 OFFCURVE",
"311 -220 CURVE SMOOTH",
"311 -233 OFFCURVE",
"310 -248 OFFCURVE",
"307 -267 CURVE",
"307 -270 OFFCURVE",
"307 -277 OFFCURVE",
"306 -287 CURVE SMOOTH",
"305 -297 OFFCURVE",
"305 -305 OFFCURVE",
"305 -310 CURVE SMOOTH",
"305 -345 OFFCURVE",
"341 -394 OFFCURVE",
"374 -394 CURVE SMOOTH",
"382 -394 OFFCURVE",
"393 -390 OFFCURVE",
"407 -383 CURVE SMOOTH",
"421 -376 OFFCURVE",
"432 -373 OFFCURVE",
"440 -373 CURVE SMOOTH",
"455 -373 OFFCURVE",
"462 -380 OFFCURVE",
"462 -394 CURVE SMOOTH",
"462 -429 OFFCURVE",
"413 -449 OFFCURVE",
"374 -449 CURVE SMOOTH",
"291 -449 OFFCURVE",
"219 -351 OFFCURVE",
"219 -287 CURVE SMOOTH",
"219 -222 OFFCURVE",
"241 -151 OFFCURVE",
"269 -102 CURVE SMOOTH",
"297 -54 OFFCURVE",
"326 -13 OFFCURVE",
"346 7 CURVE SMOOTH"
);
},
{
closed = 1;
nodes = (
"192 42 OFFCURVE",
"192 54 OFFCURVE",
"192 71 CURVE",
"191 88 OFFCURVE",
"191 100 OFFCURVE",
"191 109 CURVE SMOOTH",
"191 113 LINE",
"193 412 LINE",
"191 1257 LINE",
"191 1313 OFFCURVE",
"190 1389 OFFCURVE",
"187 1485 CURVE",
"187 1517 OFFCURVE",
"200 1542 OFFCURVE",
"224 1542 CURVE SMOOTH",
"351 1542 LINE SMOOTH",
"371 1542 OFFCURVE",
"378 1542 OFFCURVE",
"393 1538 CURVE",
"408 1533 OFFCURVE",
"414 1522 OFFCURVE",
"414 1503 CURVE SMOOTH",
"414 1479 OFFCURVE",
"390 1466 OFFCURVE",
"374 1465 CURVE",
"365 1464 OFFCURVE",
"354 1464 OFFCURVE",
"340 1464 CURVE SMOOTH",
"334 1464 OFFCURVE",
"323 1465 OFFCURVE",
"307 1466 CURVE SMOOTH",
"291 1467 OFFCURVE",
"280 1468 OFFCURVE",
"274 1468 CURVE SMOOTH",
"255 1468 OFFCURVE",
"250 1465 OFFCURVE",
"250 1444 CURVE SMOOTH",
"250 1405 OFFCURVE",
"250 1347 OFFCURVE",
"251 1270 CURVE SMOOTH",
"251 1193 OFFCURVE",
"251 1135 OFFCURVE",
"251 1096 CURVE SMOOTH",
"251 840 LINE SMOOTH",
"251 837 OFFCURVE",
"252 836 OFFCURVE",
"255 836 CURVE SMOOTH",
"256 836 OFFCURVE",
"256 836 OFFCURVE",
"257 836 CURVE SMOOTH",
"258 836 OFFCURVE",
"258 836 OFFCURVE",
"259 836 CURVE",
"311 839 OFFCURVE",
"348 840 OFFCURVE",
"370 840 CURVE SMOOTH",
"393 840 OFFCURVE",
"404 830 OFFCURVE",
"404 810 CURVE SMOOTH",
"404 785 OFFCURVE",
"396 776 OFFCURVE",
"373 776 CURVE SMOOTH",
"256 776 LINE SMOOTH",
"251 776 OFFCURVE",
"248 773 OFFCURVE",
"248 766 CURVE SMOOTH",
"248 703 OFFCURVE",
"249 602 OFFCURVE",
"252 462 CURVE SMOOTH",
"255 321 OFFCURVE",
"256 213 OFFCURVE",
"256 137 CURVE SMOOTH",
"256 61 LINE",
"269 61 OFFCURVE",
"298 61 OFFCURVE",
"343 62 CURVE SMOOTH",
"388 62 OFFCURVE",
"417 62 OFFCURVE",
"430 62 CURVE SMOOTH",
"448 62 LINE SMOOTH",
"473 62 OFFCURVE",
"486 53 OFFCURVE",
"486 35 CURVE SMOOTH",
"486 14 OFFCURVE",
"480 1 OFFCURVE",
"467 -4 CURVE SMOOTH",
"454 -9 OFFCURVE",
"420 -12 OFFCURVE",
"367 -12 CURVE SMOOTH",
"280 -12 LINE SMOOTH",
"221 -12 OFFCURVE",
"192 -6 OFFCURVE",
"192 33 CURVE SMOOTH"
);
}
);
width = 620;
}
);
note = Eogonek;
unicode = 0118;
},
{
glyphname = F;
lastChange = "2015-11-03 20:15:51 +0000";
layers = (
{
layerId = "27A8C2A5-6B67-4598-967C-E5EC4FB8AE70";
name = Condensed;
paths = (
{
closed = 1;
nodes = (
"229 -4 OFFCURVE",
"218 14 OFFCURVE",
"218 49 CURVE SMOOTH",
"218 201 LINE SMOOTH",
"218 209 OFFCURVE",
"216 251 OFFCURVE",
"212 326 CURVE SMOOTH",
"203 476 OFFCURVE",
"192 698 OFFCURVE",
"192 819 CURVE SMOOTH",
"192 875 OFFCURVE",
"181 1150 OFFCURVE",
"171 1355 CURVE SMOOTH",
"166 1457 OFFCURVE",
"163 1509 OFFCURVE",
"163 1512 CURVE SMOOTH",
"163 1525 LINE SMOOTH",
"163 1535 OFFCURVE",
"170 1542 OFFCURVE",
"183 1545 CURVE SMOOTH",
"196 1548 OFFCURVE",
"219 1549 OFFCURVE",
"254 1549 CURVE SMOOTH",
"262 1549 OFFCURVE",
"277 1549 OFFCURVE",
"300 1549 CURVE",
"323 1548 OFFCURVE",
"341 1548 OFFCURVE",
"356 1548 CURVE SMOOTH",
"379 1548 OFFCURVE",
"390 1525 OFFCURVE",
"390 1501 CURVE SMOOTH",
"390 1488 OFFCURVE",
"377 1481 OFFCURVE",
"352 1481 CURVE SMOOTH",
"349 1481 OFFCURVE",
"333 1481 OFFCURVE",
"305 1482 CURVE SMOOTH",
"276 1483 OFFCURVE",
"259 1483 OFFCURVE",
"252 1483 CURVE SMOOTH",
"231 1483 OFFCURVE",
"227 1480 OFFCURVE",
"227 1443 CURVE SMOOTH",
"227 1428 OFFCURVE",
"232 1329 OFFCURVE",
"242 1145 CURVE SMOOTH",
"252 960 OFFCURVE",
"257 860 OFFCURVE",
"257 844 CURVE",
"272 844 OFFCURVE",
"295 848 OFFCURVE",
"326 856 CURVE SMOOTH",
"357 864 OFFCURVE",
"380 868 OFFCURVE",
"395 868 CURVE SMOOTH",
"412 868 OFFCURVE",
"427 844 OFFCURVE",
"427 827 CURVE SMOOTH",
"427 794 OFFCURVE",
"356 791 OFFCURVE",
"300 786 CURVE SMOOTH",
"271 783 OFFCURVE",
"257 775 OFFCURVE",
"257 762 CURVE SMOOTH",
"257 685 OFFCURVE",
"264 570 OFFCURVE",
"277 417 CURVE SMOOTH",
"290 264 OFFCURVE",
"296 149 OFFCURVE",
"296 72 CURVE",
"290 61 LINE",
"294 51 OFFCURVE",
"296 42 OFFCURVE",
"296 34 CURVE SMOOTH",
"296 9 OFFCURVE",
"281 -4 OFFCURVE",
"251 -4 CURVE SMOOTH"
);
}
);
width = 580;
}
);
note = F;
unicode = 0046;
},
{
glyphname = G;
lastChange = "2015-11-03 20:15:51 +0000";
layers = (
{
layerId = "27A8C2A5-6B67-4598-967C-E5EC4FB8AE70";
name = Condensed;
paths = (
{
closed = 1;
nodes = (
"171 940 OFFCURVE",
"171 977 OFFCURVE",
"176 1054 CURVE SMOOTH",
"180 1131 OFFCURVE",
"187 1182 OFFCURVE",
"203 1258 CURVE SMOOTH",
"218 1333 OFFCURVE",
"239 1383 OFFCURVE",
"272 1440 CURVE SMOOTH",
"305 1497 OFFCURVE",
"345 1531 OFFCURVE",
"403 1554 CURVE SMOOTH",
"432 1565 OFFCURVE",
"463 1571 OFFCURVE",
"497 1571 CURVE SMOOTH",
"538 1571 OFFCURVE",
"558 1559 OFFCURVE",
"558 1536 CURVE SMOOTH",
"558 1519 OFFCURVE",
"548 1511 OFFCURVE",
"528 1511 CURVE SMOOTH",
"521 1511 OFFCURVE",
"512 1513 OFFCURVE",
"499 1517 CURVE",
"486 1520 OFFCURVE",
"477 1522 OFFCURVE",
"470 1522 CURVE SMOOTH",
"423 1522 OFFCURVE",
"382 1499 OFFCURVE",
"354 1466 CURVE SMOOTH",
"325 1433 OFFCURVE",
"301 1376 OFFCURVE",
"286 1325 CURVE SMOOTH",
"271 1274 OFFCURVE",
"260 1197 OFFCURVE",
"254 1143 CURVE SMOOTH",
"248 1089 OFFCURVE",
"244 1005 OFFCURVE",
"243 962 CURVE SMOOTH",
"242 919 OFFCURVE",
"241 844 OFFCURVE",
"241 827 CURVE",
"240 805 OFFCURVE",
"240 768 OFFCURVE",
"240 715 CURVE SMOOTH",
"240 591 OFFCURVE",
"246 481 OFFCURVE",
"270 353 CURVE SMOOTH",
"293 224 OFFCURVE",
"327 132 OFFCURVE",
"392 71 CURVE SMOOTH",
"424 40 OFFCURVE",
"461 25 OFFCURVE",
"503 25 CURVE SMOOTH",
"575 25 OFFCURVE",
"633 59 OFFCURVE",
"677 127 CURVE",
"677 158 OFFCURVE",
"675 205 OFFCURVE",
"668 272 CURVE SMOOTH",
"665 305 OFFCURVE",
"659 334 OFFCURVE",
"652 357 CURVE",
"644 380 OFFCURVE",
"635 391 OFFCURVE",
"624 391 CURVE SMOOTH",
"615 391 OFFCURVE",
"602 390 OFFCURVE",
"584 387 CURVE SMOOTH",
"566 384 OFFCURVE",
"552 383 OFFCURVE",
"542 383 CURVE SMOOTH",
"511 383 OFFCURVE",
"495 395 OFFCURVE",
"495 418 CURVE SMOOTH",
"495 443 OFFCURVE",
"605 463 OFFCURVE",
"648 463 CURVE SMOOTH",
"693 463 OFFCURVE",
"712 425 OFFCURVE",
"712 377 CURVE SMOOTH",
"712 336 OFFCURVE",
"719 276 OFFCURVE",
"733 195 CURVE SMOOTH",
"746 114 OFFCURVE",
"753 53 OFFCURVE",
"753 12 CURVE SMOOTH",
"753 -9 OFFCURVE",
"744 -20 OFFCURVE",
"726 -20 CURVE SMOOTH",
"693 -20 OFFCURVE",
"677 -5 OFFCURVE",
"677 25 CURVE SMOOTH",
"677 26 OFFCURVE",
"677 27 OFFCURVE",
"678 30 CURVE SMOOTH",
"679 33 OFFCURVE",
"679 34 OFFCURVE",
"679 35 CURVE",
"600 -10 OFFCURVE",
"532 -33 OFFCURVE",
"473 -33 CURVE SMOOTH",
"369 -33 OFFCURVE",
"293 41 OFFCURVE",
"244 188 CURVE SMOOTH",
"195 335 OFFCURVE",
"171 565 OFFCURVE",
"171 877 CURVE SMOOTH"
);
}
);
width = 920;
}
);
note = G;
unicode = 0047;
},
{
glyphname = Gbreve;
lastChange = "2015-11-03 20:15:51 +0000";
layers = (
{
layerId = "27A8C2A5-6B67-4598-967C-E5EC4FB8AE70";
name = Condensed;
paths = (
{
closed = 1;
nodes = (
"394 1959 LINE",
"403 1958 OFFCURVE",
"410 1948 OFFCURVE",
"414 1927 CURVE SMOOTH",
"421 1886 OFFCURVE",
"433 1819 OFFCURVE",
"466 1795 CURVE SMOOTH",
"488 1779 LINE",
"539 1779 LINE SMOOTH",
"575 1779 OFFCURVE",
"609 1844 OFFCURVE",
"609 1883 CURVE SMOOTH",
"609 1886 OFFCURVE",
"609 1891 OFFCURVE",
"608 1898 CURVE SMOOTH",
"607 1904 OFFCURVE",
"607 1909 OFFCURVE",
"607 1912 CURVE SMOOTH",
"607 1938 OFFCURVE",
"619 1951 OFFCURVE",
"644 1951 CURVE SMOOTH",
"659 1951 OFFCURVE",
"675 1938 OFFCURVE",
"675 1922 CURVE SMOOTH",
"675 1919 OFFCURVE",
"673 1913 OFFCURVE",
"670 1905 CURVE SMOOTH",
"667 1897 OFFCURVE",
"665 1892 OFFCURVE",
"664 1890 CURVE",
"669 1875 LINE",
"666 1868 OFFCURVE",
"660 1857 OFFCURVE",
"653 1840 CURVE SMOOTH",
"638 1806 OFFCURVE",
"636 1800 OFFCURVE",
"620 1777 CURVE SMOOTH",
"604 1753 OFFCURVE",
"591 1747 OFFCURVE",
"565 1739 CURVE",
"552 1734 OFFCURVE",
"537 1732 OFFCURVE",
"521 1732 CURVE SMOOTH",
"466 1732 OFFCURVE",
"424 1759 OFFCURVE",
"403 1802 CURVE SMOOTH",
"382 1845 OFFCURVE",
"372 1890 OFFCURVE",
"372 1941 CURVE"
);
},
{
closed = 1;
nodes = (
"171 940 OFFCURVE",
"171 977 OFFCURVE",
"176 1054 CURVE SMOOTH",
"180 1131 OFFCURVE",
"187 1182 OFFCURVE",
"203 1258 CURVE SMOOTH",
"218 1333 OFFCURVE",
"239 1383 OFFCURVE",
"272 1440 CURVE SMOOTH",
"305 1497 OFFCURVE",
"345 1531 OFFCURVE",
"403 1554 CURVE SMOOTH",
"432 1565 OFFCURVE",
"463 1571 OFFCURVE",
"497 1571 CURVE SMOOTH",
"538 1571 OFFCURVE",
"558 1559 OFFCURVE",
"558 1536 CURVE SMOOTH",
"558 1519 OFFCURVE",
"548 1511 OFFCURVE",
"528 1511 CURVE SMOOTH",
"521 1511 OFFCURVE",
"512 1513 OFFCURVE",
"499 1517 CURVE",
"486 1520 OFFCURVE",
"477 1522 OFFCURVE",
"470 1522 CURVE SMOOTH",
"423 1522 OFFCURVE",
"382 1499 OFFCURVE",
"354 1466 CURVE SMOOTH",
"325 1433 OFFCURVE",
"301 1376 OFFCURVE",
"286 1325 CURVE SMOOTH",
"271 1274 OFFCURVE",
"260 1197 OFFCURVE",
"254 1143 CURVE SMOOTH",
"248 1089 OFFCURVE",
"244 1005 OFFCURVE",
"243 962 CURVE SMOOTH",
"242 919 OFFCURVE",
"241 844 OFFCURVE",
"241 827 CURVE",
"240 805 OFFCURVE",
"240 768 OFFCURVE",
"240 715 CURVE SMOOTH",
"240 591 OFFCURVE",
"246 481 OFFCURVE",
"270 353 CURVE SMOOTH",
"293 224 OFFCURVE",
"327 132 OFFCURVE",
"392 71 CURVE SMOOTH",
"424 40 OFFCURVE",
"461 25 OFFCURVE",
"503 25 CURVE SMOOTH",
"575 25 OFFCURVE",
"633 59 OFFCURVE",
"677 127 CURVE",
"677 158 OFFCURVE",
"675 205 OFFCURVE",
"668 272 CURVE SMOOTH",
"665 305 OFFCURVE",
"659 334 OFFCURVE",
"652 357 CURVE",
"644 380 OFFCURVE",
"635 391 OFFCURVE",
"624 391 CURVE SMOOTH",
"615 391 OFFCURVE",
"602 390 OFFCURVE",
"584 387 CURVE SMOOTH",
"566 384 OFFCURVE",
"552 383 OFFCURVE",
"542 383 CURVE SMOOTH",
"511 383 OFFCURVE",
"495 395 OFFCURVE",
"495 418 CURVE SMOOTH",
"495 443 OFFCURVE",
"605 463 OFFCURVE",
"648 463 CURVE SMOOTH",
"693 463 OFFCURVE",
"712 425 OFFCURVE",
"712 377 CURVE SMOOTH",
"712 336 OFFCURVE",
"719 276 OFFCURVE",
"733 195 CURVE SMOOTH",
"746 114 OFFCURVE",
"753 53 OFFCURVE",
"753 12 CURVE SMOOTH",
"753 -9 OFFCURVE",
"744 -20 OFFCURVE",
"726 -20 CURVE SMOOTH",
"693 -20 OFFCURVE",
"677 -5 OFFCURVE",
"677 25 CURVE SMOOTH",
"677 26 OFFCURVE",
"677 27 OFFCURVE",
"678 30 CURVE SMOOTH",
"679 33 OFFCURVE",
"679 34 OFFCURVE",
"679 35 CURVE",
"600 -10 OFFCURVE",
"532 -33 OFFCURVE",
"473 -33 CURVE SMOOTH",
"369 -33 OFFCURVE",
"293 41 OFFCURVE",
"244 188 CURVE SMOOTH",
"195 335 OFFCURVE",
"171 565 OFFCURVE",
"171 877 CURVE SMOOTH"
);
}
);
width = 920;
}
);
note = Gbreve;
unicode = 011E;
},
{
glyphname = Gcaron;
lastChange = "2015-11-03 20:15:51 +0000";
layers = (
{
layerId = "27A8C2A5-6B67-4598-967C-E5EC4FB8AE70";
name = Condensed;
paths = (
{
closed = 1;
nodes = (
"590 2064 LINE",
"615 2060 OFFCURVE",
"627 2052 OFFCURVE",
"627 2040 CURVE SMOOTH",
"627 2035 OFFCURVE",
"624 2028 OFFCURVE",
"619 2017 CURVE",
"621 2007 LINE",
"606 1976 LINE",
"608 1964 LINE",
"603 1947 OFFCURVE",
"595 1922 OFFCURVE",
"584 1890 CURVE SMOOTH",
"560 1825 OFFCURVE",
"547 1777 OFFCURVE",
"547 1724 CURVE SMOOTH",
"547 1695 OFFCURVE",
"537 1681 OFFCURVE",
"518 1681 CURVE SMOOTH",
"477 1681 OFFCURVE",
"349 1967 OFFCURVE",
"346 2027 CURVE",
"383 2054 LINE",
"418 2007 LINE",
"419 1994 OFFCURVE",
"425 1970 OFFCURVE",
"436 1937 CURVE SMOOTH",
"457 1870 OFFCURVE",
"501 1748 OFFCURVE",
"504 1741 CURVE",
"537 1863 OFFCURVE",
"556 1965 OFFCURVE",
"563 2048 CURVE"
);
},
{
closed = 1;
nodes = (
"171 940 OFFCURVE",
"171 977 OFFCURVE",
"176 1054 CURVE SMOOTH",
"180 1131 OFFCURVE",
"187 1182 OFFCURVE",
"203 1258 CURVE SMOOTH",
"218 1333 OFFCURVE",
"239 1383 OFFCURVE",
"272 1440 CURVE SMOOTH",
"305 1497 OFFCURVE",
"345 1531 OFFCURVE",
"403 1554 CURVE SMOOTH",
"432 1565 OFFCURVE",
"463 1571 OFFCURVE",
"497 1571 CURVE SMOOTH",
"538 1571 OFFCURVE",
"558 1559 OFFCURVE",
"558 1536 CURVE SMOOTH",
"558 1519 OFFCURVE",
"548 1511 OFFCURVE",
"528 1511 CURVE SMOOTH",
"521 1511 OFFCURVE",
"512 1513 OFFCURVE",
"499 1517 CURVE",
"486 1520 OFFCURVE",
"477 1522 OFFCURVE",
"470 1522 CURVE SMOOTH",
"423 1522 OFFCURVE",
"382 1499 OFFCURVE",
"354 1466 CURVE SMOOTH",
"325 1433 OFFCURVE",
"301 1376 OFFCURVE",
"286 1325 CURVE SMOOTH",
"271 1274 OFFCURVE",
"260 1197 OFFCURVE",
"254 1143 CURVE SMOOTH",
"248 1089 OFFCURVE",
"244 1005 OFFCURVE",
"243 962 CURVE SMOOTH",
"242 919 OFFCURVE",
"241 844 OFFCURVE",
"241 827 CURVE",
"240 805 OFFCURVE",
"240 768 OFFCURVE",
"240 715 CURVE SMOOTH",
"240 591 OFFCURVE",
"246 481 OFFCURVE",
"270 353 CURVE SMOOTH",
"293 224 OFFCURVE",
"327 132 OFFCURVE",
"392 71 CURVE SMOOTH",
"424 40 OFFCURVE",
"461 25 OFFCURVE",
"503 25 CURVE SMOOTH",
"575 25 OFFCURVE",
"633 59 OFFCURVE",
"677 127 CURVE",
"677 158 OFFCURVE",
"675 205 OFFCURVE",
"668 272 CURVE SMOOTH",
"665 305 OFFCURVE",
"659 334 OFFCURVE",
"652 357 CURVE",
"644 380 OFFCURVE",
"635 391 OFFCURVE",
"624 391 CURVE SMOOTH",
"615 391 OFFCURVE",
"602 390 OFFCURVE",
"584 387 CURVE SMOOTH",
"566 384 OFFCURVE",
"552 383 OFFCURVE",
"542 383 CURVE SMOOTH",
"511 383 OFFCURVE",
"495 395 OFFCURVE",
"495 418 CURVE SMOOTH",
"495 443 OFFCURVE",
"605 463 OFFCURVE",
"648 463 CURVE SMOOTH",
"693 463 OFFCURVE",
"712 425 OFFCURVE",
"712 377 CURVE SMOOTH",
"712 336 OFFCURVE",
"719 276 OFFCURVE",
"733 195 CURVE SMOOTH",
"746 114 OFFCURVE",
"753 53 OFFCURVE",
"753 12 CURVE SMOOTH",
"753 -9 OFFCURVE",
"744 -20 OFFCURVE",
"726 -20 CURVE SMOOTH",
"693 -20 OFFCURVE",
"677 -5 OFFCURVE",
"677 25 CURVE SMOOTH",
"677 26 OFFCURVE",
"677 27 OFFCURVE",
"678 30 CURVE SMOOTH",
"679 33 OFFCURVE",
"679 34 OFFCURVE",
"679 35 CURVE",
"600 -10 OFFCURVE",
"532 -33 OFFCURVE",
"473 -33 CURVE SMOOTH",
"369 -33 OFFCURVE",
"293 41 OFFCURVE",
"244 188 CURVE SMOOTH",
"195 335 OFFCURVE",
"171 565 OFFCURVE",
"171 877 CURVE SMOOTH"
);
}
);
width = 920;
}
);
note = Gcaron;
unicode = 01E6;
},
{
glyphname = Gcircumflex;
lastChange = "2015-11-03 20:15:51 +0000";
layers = (
{
layerId = "27A8C2A5-6B67-4598-967C-E5EC4FB8AE70";
name = Condensed;
paths = (
{
closed = 1;
nodes = (
"573 1698 LINE",
"566 1781 OFFCURVE",
"547 1883 OFFCURVE",
"514 2005 CURVE",
"511 1998 OFFCURVE",
"467 1876 OFFCURVE",
"446 1809 CURVE SMOOTH",
"435 1776 OFFCURVE",
"429 1752 OFFCURVE",
"428 1739 CURVE",
"393 1692 LINE",
"356 1718 LINE",
"359 1778 OFFCURVE",
"487 2064 OFFCURVE",
"528 2064 CURVE SMOOTH",
"547 2064 OFFCURVE",
"557 2050 OFFCURVE",
"557 2021 CURVE SMOOTH",
"557 1968 OFFCURVE",
"570 1920 OFFCURVE",
"594 1856 CURVE SMOOTH",
"605 1824 OFFCURVE",
"613 1799 OFFCURVE",
"618 1782 CURVE",
"616 1769 LINE",
"631 1739 LINE",
"629 1728 LINE",
"634 1717 OFFCURVE",
"637 1710 OFFCURVE",
"637 1706 CURVE SMOOTH",
"637 1693 OFFCURVE",
"625 1685 OFFCURVE",
"600 1681 CURVE"
);
},
{
closed = 1;
nodes = (
"171 940 OFFCURVE",
"171 977 OFFCURVE",
"176 1054 CURVE SMOOTH",
"180 1131 OFFCURVE",
"187 1182 OFFCURVE",
"203 1258 CURVE SMOOTH",
"218 1333 OFFCURVE",
"239 1383 OFFCURVE",
"272 1440 CURVE SMOOTH",
"305 1497 OFFCURVE",
"345 1531 OFFCURVE",
"403 1554 CURVE SMOOTH",
"432 1565 OFFCURVE",
"463 1571 OFFCURVE",
"497 1571 CURVE SMOOTH",
"538 1571 OFFCURVE",
"558 1559 OFFCURVE",
"558 1536 CURVE SMOOTH",
"558 1519 OFFCURVE",
"548 1511 OFFCURVE",
"528 1511 CURVE SMOOTH",
"521 1511 OFFCURVE",
"512 1513 OFFCURVE",
"499 1517 CURVE",
"486 1520 OFFCURVE",
"477 1522 OFFCURVE",
"470 1522 CURVE SMOOTH",
"423 1522 OFFCURVE",
"382 1499 OFFCURVE",
"354 1466 CURVE SMOOTH",
"325 1433 OFFCURVE",
"301 1376 OFFCURVE",
"286 1325 CURVE SMOOTH",
"271 1274 OFFCURVE",
"260 1197 OFFCURVE",
"254 1143 CURVE SMOOTH",
"248 1089 OFFCURVE",
"244 1005 OFFCURVE",
"243 962 CURVE SMOOTH",
"242 919 OFFCURVE",
"241 844 OFFCURVE",
"241 827 CURVE",
"240 805 OFFCURVE",
"240 768 OFFCURVE",
"240 715 CURVE SMOOTH",
"240 591 OFFCURVE",
"246 481 OFFCURVE",
"270 353 CURVE SMOOTH",
"293 224 OFFCURVE",
"327 132 OFFCURVE",
"392 71 CURVE SMOOTH",
"424 40 OFFCURVE",
"461 25 OFFCURVE",
"503 25 CURVE SMOOTH",
"575 25 OFFCURVE",
"633 59 OFFCURVE",
"677 127 CURVE",
"677 158 OFFCURVE",
"675 205 OFFCURVE",
"668 272 CURVE SMOOTH",
"665 305 OFFCURVE",
"659 334 OFFCURVE",
"652 357 CURVE",
"644 380 OFFCURVE",
"635 391 OFFCURVE",
"624 391 CURVE SMOOTH",
"615 391 OFFCURVE",
"602 390 OFFCURVE",
"584 387 CURVE SMOOTH",
"566 384 OFFCURVE",
"552 383 OFFCURVE",
"542 383 CURVE SMOOTH",
"511 383 OFFCURVE",
"495 395 OFFCURVE",
"495 418 CURVE SMOOTH",
"495 443 OFFCURVE",
"605 463 OFFCURVE",
"648 463 CURVE SMOOTH",
"693 463 OFFCURVE",
"712 425 OFFCURVE",
"712 377 CURVE SMOOTH",
"712 336 OFFCURVE",
"719 276 OFFCURVE",
"733 195 CURVE SMOOTH",
"746 114 OFFCURVE",
"753 53 OFFCURVE",
"753 12 CURVE SMOOTH",
"753 -9 OFFCURVE",
"744 -20 OFFCURVE",
"726 -20 CURVE SMOOTH",
"693 -20 OFFCURVE",
"677 -5 OFFCURVE",
"677 25 CURVE SMOOTH",
"677 26 OFFCURVE",
"677 27 OFFCURVE",
"678 30 CURVE SMOOTH",
"679 33 OFFCURVE",
"679 34 OFFCURVE",
"679 35 CURVE",
"600 -10 OFFCURVE",
"532 -33 OFFCURVE",
"473 -33 CURVE SMOOTH",
"369 -33 OFFCURVE",
"293 41 OFFCURVE",
"244 188 CURVE SMOOTH",
"195 335 OFFCURVE",
"171 565 OFFCURVE",
"171 877 CURVE SMOOTH"
);
}
);
width = 920;
}
);
note = Gcircumflex;
unicode = 011C;
},
{
glyphname = Gdotaccent;
lastChange = "2015-11-03 20:15:51 +0000";
layers = (
{
layerId = "27A8C2A5-6B67-4598-967C-E5EC4FB8AE70";
name = Condensed;
paths = (
{
closed = 1;
nodes = (
"438 1960 OFFCURVE",
"464 1988 OFFCURVE",
"491 1988 CURVE SMOOTH",
"515 1988 OFFCURVE",
"540 1959 OFFCURVE",
"540 1935 CURVE SMOOTH",
"540 1901 OFFCURVE",
"521 1884 OFFCURVE",
"483 1884 CURVE SMOOTH",
"459 1884 OFFCURVE",
"438 1909 OFFCURVE",
"438 1933 CURVE SMOOTH"
);
},
{
closed = 1;
nodes = (
"171 940 OFFCURVE",
"171 977 OFFCURVE",
"176 1054 CURVE SMOOTH",
"180 1131 OFFCURVE",
"187 1182 OFFCURVE",
"203 1258 CURVE SMOOTH",
"218 1333 OFFCURVE",
"239 1383 OFFCURVE",
"272 1440 CURVE SMOOTH",
"305 1497 OFFCURVE",
"345 1531 OFFCURVE",
"403 1554 CURVE SMOOTH",
"432 1565 OFFCURVE",
"463 1571 OFFCURVE",
"497 1571 CURVE SMOOTH",
"538 1571 OFFCURVE",
"558 1559 OFFCURVE",
"558 1536 CURVE SMOOTH",
"558 1519 OFFCURVE",
"548 1511 OFFCURVE",
"528 1511 CURVE SMOOTH",
"521 1511 OFFCURVE",
"512 1513 OFFCURVE",
"499 1517 CURVE",
"486 1520 OFFCURVE",
"477 1522 OFFCURVE",
"470 1522 CURVE SMOOTH",
"423 1522 OFFCURVE",
"382 1499 OFFCURVE",
"354 1466 CURVE SMOOTH",
"325 1433 OFFCURVE",
"301 1376 OFFCURVE",
"286 1325 CURVE SMOOTH",
"271 1274 OFFCURVE",
"260 1197 OFFCURVE",
"254 1143 CURVE SMOOTH",
"248 1089 OFFCURVE",
"244 1005 OFFCURVE",
"243 962 CURVE SMOOTH",
"242 919 OFFCURVE",
"241 844 OFFCURVE",
"241 827 CURVE",
"240 805 OFFCURVE",
"240 768 OFFCURVE",
"240 715 CURVE SMOOTH",
"240 591 OFFCURVE",
"246 481 OFFCURVE",
"270 353 CURVE SMOOTH",
"293 224 OFFCURVE",
"327 132 OFFCURVE",
"392 71 CURVE SMOOTH",
"424 40 OFFCURVE",
"461 25 OFFCURVE",
"503 25 CURVE SMOOTH",
"575 25 OFFCURVE",
"633 59 OFFCURVE",
"677 127 CURVE",
"677 158 OFFCURVE",
"675 205 OFFCURVE",
"668 272 CURVE SMOOTH",
"665 305 OFFCURVE",
"659 334 OFFCURVE",
"652 357 CURVE",
"644 380 OFFCURVE",
"635 391 OFFCURVE",
"624 391 CURVE SMOOTH",
"615 391 OFFCURVE",
"602 390 OFFCURVE",
"584 387 CURVE SMOOTH",
"566 384 OFFCURVE",
"552 383 OFFCURVE",
"542 383 CURVE SMOOTH",
"511 383 OFFCURVE",
"495 395 OFFCURVE",
"495 418 CURVE SMOOTH",
"495 443 OFFCURVE",
"605 463 OFFCURVE",
"648 463 CURVE SMOOTH",
"693 463 OFFCURVE",
"712 425 OFFCURVE",
"712 377 CURVE SMOOTH",
"712 336 OFFCURVE",
"719 276 OFFCURVE",
"733 195 CURVE SMOOTH",
"746 114 OFFCURVE",
"753 53 OFFCURVE",
"753 12 CURVE SMOOTH",
"753 -9 OFFCURVE",
"744 -20 OFFCURVE",
"726 -20 CURVE SMOOTH",
"693 -20 OFFCURVE",
"677 -5 OFFCURVE",
"677 25 CURVE SMOOTH",
"677 26 OFFCURVE",
"677 27 OFFCURVE",
"678 30 CURVE SMOOTH",
"679 33 OFFCURVE",
"679 34 OFFCURVE",
"679 35 CURVE",
"600 -10 OFFCURVE",
"532 -33 OFFCURVE",
"473 -33 CURVE SMOOTH",
"369 -33 OFFCURVE",
"293 41 OFFCURVE",
"244 188 CURVE SMOOTH",
"195 335 OFFCURVE",
"171 565 OFFCURVE",
"171 877 CURVE SMOOTH"
);
}
);
width = 920;
}
);
note = Gdotaccent;
unicode = 0120;
},
{
glyphname = H;
lastChange = "2015-11-03 20:15:51 +0000";
layers = (
{
layerId = "27A8C2A5-6B67-4598-967C-E5EC4FB8AE70";
name = Condensed;
paths = (
{
closed = 1;
nodes = (
"500 -20 OFFCURVE",
"495 -9 OFFCURVE",
"495 12 CURVE SMOOTH",
"495 17 OFFCURVE",
"495 25 OFFCURVE",
"496 36 CURVE SMOOTH",
"497 46 OFFCURVE",
"497 54 OFFCURVE",
"497 59 CURVE SMOOTH",
"497 275 OFFCURVE",
"490 512 OFFCURVE",
"477 771 CURVE",
"464 771 LINE SMOOTH",
"456 771 OFFCURVE",
"443 771 OFFCURVE",
"425 771 CURVE",
"407 770 OFFCURVE",
"394 770 OFFCURVE",
"386 770 CURVE SMOOTH",
"309 770 OFFCURVE",
"260 768 OFFCURVE",
"241 763 CURVE",
"241 684 OFFCURVE",
"247 560 OFFCURVE",
"259 393 CURVE SMOOTH",
"270 226 OFFCURVE",
"276 102 OFFCURVE",
"276 23 CURVE SMOOTH",
"276 2 OFFCURVE",
"269 -8 OFFCURVE",
"255 -8 CURVE SMOOTH",
"234 -8 OFFCURVE",
"223 1 OFFCURVE",
"223 20 CURVE SMOOTH",
"223 76 OFFCURVE",
"207 503 OFFCURVE",
"200 598 CURVE SMOOTH",
"175 931 OFFCURVE",
"163 1243 OFFCURVE",
"163 1532 CURVE SMOOTH",
"163 1546 OFFCURVE",
"172 1553 OFFCURVE",
"189 1553 CURVE SMOOTH",
"204 1553 OFFCURVE",
"215 1543 OFFCURVE",
"214 1526 CURVE",
"214 1374 LINE SMOOTH",
"214 1327 OFFCURVE",
"217 1258 OFFCURVE",
"223 1166 CURVE SMOOTH",
"228 1074 OFFCURVE",
"231 1005 OFFCURVE",
"231 958 CURVE SMOOTH",
"231 858 LINE SMOOTH",
"231 823 OFFCURVE",
"235 805 OFFCURVE",
"242 805 CURVE SMOOTH",
"269 805 OFFCURVE",
"308 808 OFFCURVE",
"360 813 CURVE SMOOTH",
"411 818 OFFCURVE",
"450 821 OFFCURVE",
"477 821 CURVE",
"479 825 LINE",
"479 902 OFFCURVE",
"476 1017 OFFCURVE",
"470 1172 CURVE SMOOTH",
"463 1327 OFFCURVE",
"460 1443 OFFCURVE",
"460 1520 CURVE SMOOTH",
"460 1537 OFFCURVE",
"469 1545 OFFCURVE",
"487 1545 CURVE SMOOTH",
"506 1545 OFFCURVE",
"522 1534 OFFCURVE",
"522 1518 CURVE SMOOTH",
"522 1275 OFFCURVE",
"527 981 OFFCURVE",
"537 638 CURVE SMOOTH",
"547 294 OFFCURVE",
"552 98 OFFCURVE",
"552 49 CURVE SMOOTH",
"552 20 LINE SMOOTH",
"552 1 OFFCURVE",
"543 -20 OFFCURVE",
"524 -20 CURVE SMOOTH"
);
}
);
width = 740;
}
);
note = H;
unicode = 0048;
},
{
glyphname = Hbar;
lastChange = "2015-11-03 20:15:51 +0000";
layers = (
{
layerId = "27A8C2A5-6B67-4598-967C-E5EC4FB8AE70";
name = Condensed;
paths = (
{
closed = 1;
nodes = (
"514 -33 OFFCURVE",
"504 -18 OFFCURVE",
"504 12 CURVE SMOOTH",
"504 17 OFFCURVE",
"504 25 OFFCURVE",
"505 36 CURVE SMOOTH",
"506 46 OFFCURVE",
"506 54 OFFCURVE",
"506 59 CURVE SMOOTH",
"506 269 OFFCURVE",
"499 503 OFFCURVE",
"486 762 CURVE",
"485 762 OFFCURVE",
"483 762 OFFCURVE",
"480 761 CURVE SMOOTH",
"477 760 OFFCURVE",
"474 760 OFFCURVE",
"473 760 CURVE SMOOTH",
"464 760 OFFCURVE",
"451 762 OFFCURVE",
"434 765 CURVE SMOOTH",
"417 768 OFFCURVE",
"404 770 OFFCURVE",
"395 770 CURVE SMOOTH",
"327 770 OFFCURVE",
"279 762 OFFCURVE",
"250 745 CURVE",
"250 666 OFFCURVE",
"256 548 OFFCURVE",
"268 391 CURVE SMOOTH",
"279 234 OFFCURVE",
"285 116 OFFCURVE",
"285 37 CURVE SMOOTH",
"285 16 OFFCURVE",
"278 6 OFFCURVE",
"264 6 CURVE SMOOTH",
"245 6 OFFCURVE",
"237 10 OFFCURVE",
"232 27 CURVE",
"226 44 OFFCURVE",
"222 92 OFFCURVE",
"219 171 CURVE SMOOTH",
"216 249 OFFCURVE",
"215 333 OFFCURVE",
"214 424 CURVE SMOOTH",
"213 515 OFFCURVE",
"211 573 OFFCURVE",
"209 598 CURVE SMOOTH",
"194 807 OFFCURVE",
"183 1010 OFFCURVE",
"177 1206 CURVE",
"174 1206 LINE SMOOTH",
"154 1206 OFFCURVE",
"131 1220 OFFCURVE",
"131 1241 CURVE SMOOTH",
"131 1242 OFFCURVE",
"146 1244 OFFCURVE",
"176 1245 CURVE",
"173 1330 OFFCURVE",
"172 1426 OFFCURVE",
"172 1532 CURVE",
"205 1548 LINE",
"232 1526 LINE",
"226 1475 OFFCURVE",
"223 1425 OFFCURVE",
"223 1374 CURVE SMOOTH",
"223 1345 OFFCURVE",
"224 1303 OFFCURVE",
"227 1247 CURVE",
"254 1248 OFFCURVE",
"336 1249 OFFCURVE",
"475 1251 CURVE",
"471 1371 OFFCURVE",
"469 1461 OFFCURVE",
"469 1520 CURVE SMOOTH",
"469 1525 OFFCURVE",
"470 1535 OFFCURVE",
"473 1548 CURVE",
"498 1548 OFFCURVE",
"515 1530 OFFCURVE",
"522 1495 CURVE SMOOTH",
"529 1459 OFFCURVE",
"531 1430 OFFCURVE",
"531 1382 CURVE SMOOTH",
"531 1251 LINE",
"544 1248 OFFCURVE",
"559 1232 OFFCURVE",
"559 1212 CURVE",
"532 1212 LINE",
"534 1010 OFFCURVE",
"539 781 OFFCURVE",
"548 524 CURVE SMOOTH",
"557 267 OFFCURVE",
"561 108 OFFCURVE",
"561 49 CURVE",
"567 37 OFFCURVE",
"570 27 OFFCURVE",
"570 20 CURVE SMOOTH",
"570 1 OFFCURVE",
"552 -33 OFFCURVE",
"533 -33 CURVE SMOOTH"
);
},
{
closed = 1;
nodes = (
"236 1085 OFFCURVE",
"240 1002 OFFCURVE",
"240 958 CURVE SMOOTH",
"240 949 OFFCURVE",
"240 935 OFFCURVE",
"239 917 CURVE SMOOTH",
"238 899 OFFCURVE",
"238 886 OFFCURVE",
"238 877 CURVE SMOOTH",
"238 850 OFFCURVE",
"241 826 OFFCURVE",
"246 805 CURVE",
"273 805 OFFCURVE",
"313 808 OFFCURVE",
"366 813 CURVE SMOOTH",
"419 818 OFFCURVE",
"459 821 OFFCURVE",
"486 821 CURVE",
"488 825 LINE",
"488 894 OFFCURVE",
"484 1023 OFFCURVE",
"477 1212 CURVE",
"430 1212 OFFCURVE",
"280 1208 OFFCURVE",
"229 1207 CURVE"
);
}
);
width = 760;
}
);
note = Hbar;
unicode = 0126;
},
{
glyphname = Hcircumflex;
lastChange = "2015-11-03 20:15:51 +0000";
layers = (
{
layerId = "27A8C2A5-6B67-4598-967C-E5EC4FB8AE70";
name = Condensed;
paths = (
{
closed = 1;
nodes = (
"432 1698 LINE",
"425 1781 OFFCURVE",
"406 1883 OFFCURVE",
"373 2005 CURVE",
"370 1998 OFFCURVE",
"326 1876 OFFCURVE",
"305 1809 CURVE SMOOTH",
"294 1776 OFFCURVE",
"288 1752 OFFCURVE",
"287 1739 CURVE",
"252 1692 LINE",
"215 1718 LINE",
"218 1778 OFFCURVE",
"346 2064 OFFCURVE",
"387 2064 CURVE SMOOTH",
"406 2064 OFFCURVE",
"416 2050 OFFCURVE",
"416 2021 CURVE SMOOTH",
"416 1968 OFFCURVE",
"429 1920 OFFCURVE",
"453 1856 CURVE SMOOTH",
"464 1824 OFFCURVE",
"472 1799 OFFCURVE",
"477 1782 CURVE",
"475 1769 LINE",
"490 1739 LINE",
"488 1728 LINE",
"493 1717 OFFCURVE",
"496 1710 OFFCURVE",
"496 1706 CURVE SMOOTH",
"496 1693 OFFCURVE",
"484 1685 OFFCURVE",
"459 1681 CURVE"
);
},
{
closed = 1;
nodes = (
"500 -20 OFFCURVE",
"495 -9 OFFCURVE",
"495 12 CURVE SMOOTH",
"495 17 OFFCURVE",
"495 25 OFFCURVE",
"496 36 CURVE SMOOTH",
"497 46 OFFCURVE",
"497 54 OFFCURVE",
"497 59 CURVE SMOOTH",
"497 275 OFFCURVE",
"490 512 OFFCURVE",
"477 771 CURVE",
"464 771 LINE SMOOTH",
"456 771 OFFCURVE",
"443 771 OFFCURVE",
"425 771 CURVE",
"407 770 OFFCURVE",
"394 770 OFFCURVE",
"386 770 CURVE SMOOTH",
"309 770 OFFCURVE",
"260 768 OFFCURVE",
"241 763 CURVE",
"241 684 OFFCURVE",
"247 560 OFFCURVE",
"259 393 CURVE SMOOTH",
"270 226 OFFCURVE",
"276 102 OFFCURVE",
"276 23 CURVE SMOOTH",
"276 2 OFFCURVE",
"269 -8 OFFCURVE",
"255 -8 CURVE SMOOTH",
"234 -8 OFFCURVE",
"223 1 OFFCURVE",
"223 20 CURVE SMOOTH",
"223 76 OFFCURVE",
"207 503 OFFCURVE",
"200 598 CURVE SMOOTH",
"175 931 OFFCURVE",
"163 1243 OFFCURVE",
"163 1532 CURVE SMOOTH",
"163 1546 OFFCURVE",
"172 1553 OFFCURVE",
"189 1553 CURVE SMOOTH",
"204 1553 OFFCURVE",
"215 1543 OFFCURVE",
"214 1526 CURVE",
"214 1374 LINE SMOOTH",
"214 1327 OFFCURVE",
"217 1258 OFFCURVE",
"223 1166 CURVE SMOOTH",
"228 1074 OFFCURVE",
"231 1005 OFFCURVE",
"231 958 CURVE SMOOTH",
"231 858 LINE SMOOTH",
"231 823 OFFCURVE",
"235 805 OFFCURVE",
"242 805 CURVE SMOOTH",
"269 805 OFFCURVE",
"308 808 OFFCURVE",
"360 813 CURVE SMOOTH",
"411 818 OFFCURVE",
"450 821 OFFCURVE",
"477 821 CURVE",
"479 825 LINE",
"479 902 OFFCURVE",
"476 1017 OFFCURVE",
"470 1172 CURVE SMOOTH",
"463 1327 OFFCURVE",
"460 1443 OFFCURVE",
"460 1520 CURVE SMOOTH",
"460 1537 OFFCURVE",
"469 1545 OFFCURVE",
"487 1545 CURVE SMOOTH",
"506 1545 OFFCURVE",
"522 1534 OFFCURVE",
"522 1518 CURVE SMOOTH",
"522 1275 OFFCURVE",
"527 981 OFFCURVE",
"537 638 CURVE SMOOTH",
"547 294 OFFCURVE",
"552 98 OFFCURVE",
"552 49 CURVE SMOOTH",
"552 20 LINE SMOOTH",
"552 1 OFFCURVE",
"543 -20 OFFCURVE",
"524 -20 CURVE SMOOTH"
);
}
);
width = 740;
}
);
note = Hcircumflex;
unicode = 0124;
},
{
glyphname = I;
lastChange = "2015-11-03 20:15:51 +0000";
layers = (
{
layerId = "27A8C2A5-6B67-4598-967C-E5EC4FB8AE70";
name = Condensed;
paths = (
{
closed = 1;
nodes = (
"289 70 LINE",
"289 211 OFFCURVE",
"284 408 OFFCURVE",
"275 663 CURVE SMOOTH",
"266 917 OFFCURVE",
"260 1067 OFFCURVE",
"259 1114 CURVE",
"259 1125 OFFCURVE",
"259 1160 OFFCURVE",
"260 1218 CURVE SMOOTH",
"261 1276 OFFCURVE",
"261 1321 OFFCURVE",
"261 1354 CURVE SMOOTH",
"261 1427 OFFCURVE",
"259 1471 OFFCURVE",
"255 1484 CURVE",
"185 1484 LINE SMOOTH",
"170 1484 OFFCURVE",
"163 1494 OFFCURVE",
"163 1513 CURVE SMOOTH",
"163 1528 OFFCURVE",
"169 1537 OFFCURVE",
"180 1542 CURVE",
"191 1546 OFFCURVE",
"217 1548 OFFCURVE",
"256 1548 CURVE SMOOTH",
"265 1548 OFFCURVE",
"284 1548 OFFCURVE",
"314 1548 CURVE SMOOTH",
"344 1547 OFFCURVE",
"370 1547 OFFCURVE",
"392 1547 CURVE SMOOTH",
"412 1547 OFFCURVE",
"429 1537 OFFCURVE",
"429 1518 CURVE SMOOTH",
"429 1502 OFFCURVE",
"420 1485 OFFCURVE",
"404 1485 CURVE SMOOTH",
"397 1485 OFFCURVE",
"389 1485 OFFCURVE",
"378 1486 CURVE SMOOTH",
"367 1487 OFFCURVE",
"360 1487 OFFCURVE",
"355 1487 CURVE SMOOTH",
"345 1487 OFFCURVE",
"338 1487 OFFCURVE",
"333 1487 CURVE SMOOTH",
"324 1487 OFFCURVE",
"312 1485 OFFCURVE",
"309 1482 CURVE SMOOTH",
"307 1480 OFFCURVE",
"306 1477 OFFCURVE",
"306 1474 CURVE SMOOTH",
"306 1344 OFFCURVE",
"315 1129 OFFCURVE",
"332 830 CURVE SMOOTH",
"349 531 OFFCURVE",
"357 315 OFFCURVE",
"357 184 CURVE SMOOTH",
"357 172 OFFCURVE",
"357 153 OFFCURVE",
"356 127 CURVE SMOOTH",
"355 101 OFFCURVE",
"355 82 OFFCURVE",
"355 71 CURVE",
"429 71 LINE SMOOTH",
"460 71 OFFCURVE",
"475 61 OFFCURVE",
"475 42 CURVE SMOOTH",
"475 26 OFFCURVE",
"460 8 OFFCURVE",
"447 8 CURVE SMOOTH",
"420 8 OFFCURVE",
"382 8 OFFCURVE",
"335 9 CURVE SMOOTH",
"287 10 OFFCURVE",
"246 10 OFFCURVE",
"211 10 CURVE SMOOTH",
"190 10 OFFCURVE",
"175 27 OFFCURVE",
"175 44 CURVE SMOOTH",
"175 61 OFFCURVE",
"186 70 OFFCURVE",
"209 70 CURVE SMOOTH"
);
}
);
width = 660;
}
);
note = I;
unicode = 0049;
},
{
glyphname = IJ;
lastChange = "2015-11-03 20:15:51 +0000";
layers = (
{
layerId = "27A8C2A5-6B67-4598-967C-E5EC4FB8AE70";
name = Condensed;
paths = (
{
closed = 1;
nodes = (
"849 -144 OFFCURVE",
"871 -127 OFFCURVE",
"897 -110 CURVE SMOOTH",
"910 -102 OFFCURVE",
"918 -96 OFFCURVE",
"922 -92 CURVE SMOOTH",
"982 -32 OFFCURVE",
"1012 72 OFFCURVE",
"1012 221 CURVE SMOOTH",
"1012 292 OFFCURVE",
"1009 393 OFFCURVE",
"1002 524 CURVE SMOOTH",
"995 655 OFFCURVE",
"991 748 OFFCURVE",
"990 801 CURVE SMOOTH",
"989 852 OFFCURVE",
"985 958 OFFCURVE",
"979 1119 CURVE SMOOTH",
"972 1279 OFFCURVE",
"969 1402 OFFCURVE",
"969 1489 CURVE",
"956 1489 OFFCURVE",
"936 1488 OFFCURVE",
"907 1487 CURVE SMOOTH",
"878 1486 OFFCURVE",
"858 1485 OFFCURVE",
"846 1485 CURVE SMOOTH",
"830 1485 OFFCURVE",
"818 1500 OFFCURVE",
"818 1516 CURVE SMOOTH",
"818 1532 OFFCURVE",
"824 1542 OFFCURVE",
"836 1547 CURVE SMOOTH",
"848 1552 OFFCURVE",
"874 1554 OFFCURVE",
"913 1554 CURVE SMOOTH",
"924 1554 OFFCURVE",
"950 1554 OFFCURVE",
"991 1553 CURVE SMOOTH",
"1032 1552 OFFCURVE",
"1068 1552 OFFCURVE",
"1100 1552 CURVE SMOOTH",
"1119 1552 OFFCURVE",
"1133 1537 OFFCURVE",
"1133 1520 CURVE SMOOTH",
"1133 1493 OFFCURVE",
"1120 1489 OFFCURVE",
"1077 1489 CURVE SMOOTH",
"1031 1489 LINE",
"1031 1330 OFFCURVE",
"1039 1099 OFFCURVE",
"1054 798 CURVE SMOOTH",
"1069 496 OFFCURVE",
"1076 332 OFFCURVE",
"1076 305 CURVE SMOOTH",
"1076 198 OFFCURVE",
"1075 144 OFFCURVE",
"1061 64 CURVE SMOOTH",
"1047 -16 OFFCURVE",
"1023 -65 OFFCURVE",
"977 -121 CURVE SMOOTH",
"954 -150 OFFCURVE",
"925 -176 OFFCURVE",
"891 -199 CURVE",
"862 -199 OFFCURVE",
"848 -186 OFFCURVE",
"848 -160 CURVE"
);
},
{
closed = 1;
nodes = (
"289 70 LINE",
"289 211 OFFCURVE",
"284 408 OFFCURVE",
"275 663 CURVE SMOOTH",
"266 917 OFFCURVE",
"260 1067 OFFCURVE",
"259 1114 CURVE",
"259 1125 OFFCURVE",
"259 1160 OFFCURVE",
"260 1218 CURVE SMOOTH",
"261 1276 OFFCURVE",
"261 1321 OFFCURVE",
"261 1354 CURVE SMOOTH",
"261 1427 OFFCURVE",
"259 1471 OFFCURVE",
"255 1484 CURVE",
"185 1484 LINE SMOOTH",
"170 1484 OFFCURVE",
"163 1494 OFFCURVE",
"163 1513 CURVE SMOOTH",
"163 1528 OFFCURVE",
"169 1537 OFFCURVE",
"180 1542 CURVE",
"191 1546 OFFCURVE",
"217 1548 OFFCURVE",
"256 1548 CURVE SMOOTH",
"265 1548 OFFCURVE",
"284 1548 OFFCURVE",
"314 1548 CURVE SMOOTH",
"344 1547 OFFCURVE",
"370 1547 OFFCURVE",
"392 1547 CURVE SMOOTH",
"412 1547 OFFCURVE",
"429 1537 OFFCURVE",
"429 1518 CURVE SMOOTH",
"429 1502 OFFCURVE",
"420 1485 OFFCURVE",
"404 1485 CURVE SMOOTH",
"397 1485 OFFCURVE",
"389 1485 OFFCURVE",
"378 1486 CURVE SMOOTH",
"367 1487 OFFCURVE",
"360 1487 OFFCURVE",
"355 1487 CURVE SMOOTH",
"345 1487 OFFCURVE",
"338 1487 OFFCURVE",
"333 1487 CURVE SMOOTH",
"324 1487 OFFCURVE",
"312 1485 OFFCURVE",
"309 1482 CURVE SMOOTH",
"307 1480 OFFCURVE",
"306 1477 OFFCURVE",
"306 1474 CURVE SMOOTH",
"306 1344 OFFCURVE",
"315 1129 OFFCURVE",
"332 830 CURVE SMOOTH",
"349 531 OFFCURVE",
"357 315 OFFCURVE",
"357 184 CURVE SMOOTH",
"357 172 OFFCURVE",
"357 153 OFFCURVE",
"356 127 CURVE SMOOTH",
"355 101 OFFCURVE",
"355 82 OFFCURVE",
"355 71 CURVE",
"429 71 LINE SMOOTH",
"460 71 OFFCURVE",
"475 61 OFFCURVE",
"475 42 CURVE SMOOTH",
"475 26 OFFCURVE",
"460 8 OFFCURVE",
"447 8 CURVE SMOOTH",
"420 8 OFFCURVE",
"382 8 OFFCURVE",
"335 9 CURVE SMOOTH",
"287 10 OFFCURVE",
"246 10 OFFCURVE",
"211 10 CURVE SMOOTH",
"190 10 OFFCURVE",
"175 27 OFFCURVE",
"175 44 CURVE SMOOTH",
"175 61 OFFCURVE",
"186 70 OFFCURVE",
"209 70 CURVE SMOOTH"
);
}
);
width = 1280;
}
);
note = IJ;
unicode = 0132;
},
{
glyphname = Iacute;
lastChange = "2015-11-03 20:15:51 +0000";
layers = (
{
layerId = "27A8C2A5-6B67-4598-967C-E5EC4FB8AE70";
name = Condensed;
paths = (
{
closed = 1;
nodes = (
"171 1875 OFFCURVE",
"190 1893 OFFCURVE",
"227 1923 CURVE SMOOTH",
"264 1953 OFFCURVE",
"305 1985 OFFCURVE",
"349 2019 CURVE SMOOTH",
"392 2052 OFFCURVE",
"418 2072 OFFCURVE",
"425 2079 CURVE",
"455 2079 OFFCURVE",
"470 2068 OFFCURVE",
"470 2047 CURVE SMOOTH",
"470 2046 OFFCURVE",
"468 2036 OFFCURVE",
"464 2016 CURVE",
"395 1985 OFFCURVE",
"310 1927 OFFCURVE",
"208 1840 CURVE",
"188 1840 OFFCURVE",
"171 1851 OFFCURVE",
"171 1870 CURVE SMOOTH"
);
},
{
closed = 1;
nodes = (
"289 70 LINE",
"289 211 OFFCURVE",
"284 408 OFFCURVE",
"275 663 CURVE SMOOTH",
"266 917 OFFCURVE",
"260 1067 OFFCURVE",
"259 1114 CURVE",
"259 1125 OFFCURVE",
"259 1160 OFFCURVE",
"260 1218 CURVE SMOOTH",
"261 1276 OFFCURVE",
"261 1321 OFFCURVE",
"261 1354 CURVE SMOOTH",
"261 1427 OFFCURVE",
"259 1471 OFFCURVE",
"255 1484 CURVE",
"185 1484 LINE SMOOTH",
"170 1484 OFFCURVE",
"163 1494 OFFCURVE",
"163 1513 CURVE SMOOTH",
"163 1528 OFFCURVE",
"169 1537 OFFCURVE",
"180 1542 CURVE",
"191 1546 OFFCURVE",
"217 1548 OFFCURVE",
"256 1548 CURVE SMOOTH",
"265 1548 OFFCURVE",
"284 1548 OFFCURVE",
"314 1548 CURVE SMOOTH",
"344 1547 OFFCURVE",
"370 1547 OFFCURVE",
"392 1547 CURVE SMOOTH",
"412 1547 OFFCURVE",
"429 1537 OFFCURVE",
"429 1518 CURVE SMOOTH",
"429 1502 OFFCURVE",
"420 1485 OFFCURVE",
"404 1485 CURVE SMOOTH",
"397 1485 OFFCURVE",
"389 1485 OFFCURVE",
"378 1486 CURVE SMOOTH",
"367 1487 OFFCURVE",
"360 1487 OFFCURVE",
"355 1487 CURVE SMOOTH",
"345 1487 OFFCURVE",
"338 1487 OFFCURVE",
"333 1487 CURVE SMOOTH",
"324 1487 OFFCURVE",
"312 1485 OFFCURVE",
"309 1482 CURVE SMOOTH",
"307 1480 OFFCURVE",
"306 1477 OFFCURVE",
"306 1474 CURVE SMOOTH",
"306 1344 OFFCURVE",
"315 1129 OFFCURVE",
"332 830 CURVE SMOOTH",
"349 531 OFFCURVE",
"357 315 OFFCURVE",
"357 184 CURVE SMOOTH",
"357 172 OFFCURVE",
"357 153 OFFCURVE",
"356 127 CURVE SMOOTH",
"355 101 OFFCURVE",
"355 82 OFFCURVE",
"355 71 CURVE",
"429 71 LINE SMOOTH",
"460 71 OFFCURVE",
"475 61 OFFCURVE",
"475 42 CURVE SMOOTH",
"475 26 OFFCURVE",
"460 8 OFFCURVE",
"447 8 CURVE SMOOTH",
"420 8 OFFCURVE",
"382 8 OFFCURVE",
"335 9 CURVE SMOOTH",
"287 10 OFFCURVE",
"246 10 OFFCURVE",
"211 10 CURVE SMOOTH",
"190 10 OFFCURVE",
"175 27 OFFCURVE",
"175 44 CURVE SMOOTH",
"175 61 OFFCURVE",
"186 70 OFFCURVE",
"209 70 CURVE SMOOTH"
);
}
);
width = 660;
}
);
note = Iacute;
unicode = 00CD;
},
{
glyphname = Ibreve;
lastChange = "2015-11-03 20:15:51 +0000";
layers = (
{
layerId = "27A8C2A5-6B67-4598-967C-E5EC4FB8AE70";
name = Condensed;
paths = (
{
closed = 1;
nodes = (
"193 1959 LINE",
"202 1958 OFFCURVE",
"209 1948 OFFCURVE",
"213 1927 CURVE SMOOTH",
"220 1886 OFFCURVE",
"232 1819 OFFCURVE",
"265 1795 CURVE SMOOTH",
"287 1779 LINE",
"338 1779 LINE SMOOTH",
"374 1779 OFFCURVE",
"408 1844 OFFCURVE",
"408 1883 CURVE SMOOTH",
"408 1886 OFFCURVE",
"408 1891 OFFCURVE",
"407 1898 CURVE SMOOTH",
"406 1904 OFFCURVE",
"406 1909 OFFCURVE",
"406 1912 CURVE SMOOTH",
"406 1938 OFFCURVE",
"418 1951 OFFCURVE",
"443 1951 CURVE SMOOTH",
"458 1951 OFFCURVE",
"474 1938 OFFCURVE",
"474 1922 CURVE SMOOTH",
"474 1919 OFFCURVE",
"472 1913 OFFCURVE",
"469 1905 CURVE SMOOTH",
"466 1897 OFFCURVE",
"464 1892 OFFCURVE",
"463 1890 CURVE",
"468 1875 LINE",
"465 1868 OFFCURVE",
"459 1857 OFFCURVE",
"452 1840 CURVE SMOOTH",
"437 1806 OFFCURVE",
"435 1800 OFFCURVE",
"419 1777 CURVE SMOOTH",
"403 1753 OFFCURVE",
"390 1747 OFFCURVE",
"364 1739 CURVE",
"351 1734 OFFCURVE",
"336 1732 OFFCURVE",
"320 1732 CURVE SMOOTH",
"265 1732 OFFCURVE",
"223 1759 OFFCURVE",
"202 1802 CURVE SMOOTH",
"181 1845 OFFCURVE",
"171 1890 OFFCURVE",
"171 1941 CURVE"
);
},
{
closed = 1;
nodes = (
"289 70 LINE",
"289 211 OFFCURVE",
"284 408 OFFCURVE",
"275 663 CURVE SMOOTH",
"266 917 OFFCURVE",
"260 1067 OFFCURVE",
"259 1114 CURVE",
"259 1125 OFFCURVE",
"259 1160 OFFCURVE",
"260 1218 CURVE SMOOTH",
"261 1276 OFFCURVE",
"261 1321 OFFCURVE",
"261 1354 CURVE SMOOTH",
"261 1427 OFFCURVE",
"259 1471 OFFCURVE",
"255 1484 CURVE",
"185 1484 LINE SMOOTH",
"170 1484 OFFCURVE",
"163 1494 OFFCURVE",
"163 1513 CURVE SMOOTH",
"163 1528 OFFCURVE",
"169 1537 OFFCURVE",
"180 1542 CURVE",
"191 1546 OFFCURVE",
"217 1548 OFFCURVE",
"256 1548 CURVE SMOOTH",
"265 1548 OFFCURVE",
"284 1548 OFFCURVE",
"314 1548 CURVE SMOOTH",
"344 1547 OFFCURVE",
"370 1547 OFFCURVE",
"392 1547 CURVE SMOOTH",
"412 1547 OFFCURVE",
"429 1537 OFFCURVE",
"429 1518 CURVE SMOOTH",
"429 1502 OFFCURVE",
"420 1485 OFFCURVE",
"404 1485 CURVE SMOOTH",
"397 1485 OFFCURVE",
"389 1485 OFFCURVE",
"378 1486 CURVE SMOOTH",
"367 1487 OFFCURVE",
"360 1487 OFFCURVE",
"355 1487 CURVE SMOOTH",
"345 1487 OFFCURVE",
"338 1487 OFFCURVE",
"333 1487 CURVE SMOOTH",
"324 1487 OFFCURVE",
"312 1485 OFFCURVE",
"309 1482 CURVE SMOOTH",
"307 1480 OFFCURVE",
"306 1477 OFFCURVE",
"306 1474 CURVE SMOOTH",
"306 1344 OFFCURVE",
"315 1129 OFFCURVE",
"332 830 CURVE SMOOTH",
"349 531 OFFCURVE",
"357 315 OFFCURVE",
"357 184 CURVE SMOOTH",
"357 172 OFFCURVE",
"357 153 OFFCURVE",
"356 127 CURVE SMOOTH",
"355 101 OFFCURVE",
"355 82 OFFCURVE",
"355 71 CURVE",
"429 71 LINE SMOOTH",
"460 71 OFFCURVE",
"475 61 OFFCURVE",
"475 42 CURVE SMOOTH",
"475 26 OFFCURVE",
"460 8 OFFCURVE",
"447 8 CURVE SMOOTH",
"420 8 OFFCURVE",
"382 8 OFFCURVE",
"335 9 CURVE SMOOTH",
"287 10 OFFCURVE",
"246 10 OFFCURVE",
"211 10 CURVE SMOOTH",
"190 10 OFFCURVE",
"175 27 OFFCURVE",
"175 44 CURVE SMOOTH",
"175 61 OFFCURVE",
"186 70 OFFCURVE",
"209 70 CURVE SMOOTH"
);
}
);
width = 660;
}
);
note = Ibreve;
unicode = 012C;
},
{
glyphname = Icircumflex;
lastChange = "2015-11-03 20:15:51 +0000";
layers = (
{
layerId = "27A8C2A5-6B67-4598-967C-E5EC4FB8AE70";
name = Condensed;
paths = (
{
closed = 1;
nodes = (
"372 1698 LINE",
"365 1781 OFFCURVE",
"346 1883 OFFCURVE",
"313 2005 CURVE",
"310 1998 OFFCURVE",
"266 1876 OFFCURVE",
"245 1809 CURVE SMOOTH",
"234 1776 OFFCURVE",
"228 1752 OFFCURVE",
"227 1739 CURVE",
"192 1692 LINE",
"155 1718 LINE",
"158 1778 OFFCURVE",
"286 2064 OFFCURVE",
"327 2064 CURVE SMOOTH",
"346 2064 OFFCURVE",
"356 2050 OFFCURVE",
"356 2021 CURVE SMOOTH",
"356 1968 OFFCURVE",
"369 1920 OFFCURVE",
"393 1856 CURVE SMOOTH",
"404 1824 OFFCURVE",
"412 1799 OFFCURVE",
"417 1782 CURVE",
"415 1769 LINE",
"430 1739 LINE",
"428 1728 LINE",
"433 1717 OFFCURVE",
"436 1710 OFFCURVE",
"436 1706 CURVE SMOOTH",
"436 1693 OFFCURVE",
"424 1685 OFFCURVE",
"399 1681 CURVE"
);
},
{
closed = 1;
nodes = (
"289 70 LINE",
"289 211 OFFCURVE",
"284 408 OFFCURVE",
"275 663 CURVE SMOOTH",
"266 917 OFFCURVE",
"260 1067 OFFCURVE",
"259 1114 CURVE",
"259 1125 OFFCURVE",
"259 1160 OFFCURVE",
"260 1218 CURVE SMOOTH",
"261 1276 OFFCURVE",
"261 1321 OFFCURVE",
"261 1354 CURVE SMOOTH",
"261 1427 OFFCURVE",
"259 1471 OFFCURVE",
"255 1484 CURVE",
"185 1484 LINE SMOOTH",
"170 1484 OFFCURVE",
"163 1494 OFFCURVE",
"163 1513 CURVE SMOOTH",
"163 1528 OFFCURVE",
"169 1537 OFFCURVE",
"180 1542 CURVE",
"191 1546 OFFCURVE",
"217 1548 OFFCURVE",
"256 1548 CURVE SMOOTH",
"265 1548 OFFCURVE",
"284 1548 OFFCURVE",
"314 1548 CURVE SMOOTH",
"344 1547 OFFCURVE",
"370 1547 OFFCURVE",
"392 1547 CURVE SMOOTH",
"412 1547 OFFCURVE",
"429 1537 OFFCURVE",
"429 1518 CURVE SMOOTH",
"429 1502 OFFCURVE",
"420 1485 OFFCURVE",
"404 1485 CURVE SMOOTH",
"397 1485 OFFCURVE",
"389 1485 OFFCURVE",
"378 1486 CURVE SMOOTH",
"367 1487 OFFCURVE",
"360 1487 OFFCURVE",
"355 1487 CURVE SMOOTH",
"345 1487 OFFCURVE",
"338 1487 OFFCURVE",
"333 1487 CURVE SMOOTH",
"324 1487 OFFCURVE",
"312 1485 OFFCURVE",
"309 1482 CURVE SMOOTH",
"307 1480 OFFCURVE",
"306 1477 OFFCURVE",
"306 1474 CURVE SMOOTH",
"306 1344 OFFCURVE",
"315 1129 OFFCURVE",
"332 830 CURVE SMOOTH",
"349 531 OFFCURVE",
"357 315 OFFCURVE",
"357 184 CURVE SMOOTH",
"357 172 OFFCURVE",
"357 153 OFFCURVE",
"356 127 CURVE SMOOTH",
"355 101 OFFCURVE",
"355 82 OFFCURVE",
"355 71 CURVE",
"429 71 LINE SMOOTH",
"460 71 OFFCURVE",
"475 61 OFFCURVE",
"475 42 CURVE SMOOTH",
"475 26 OFFCURVE",
"460 8 OFFCURVE",
"447 8 CURVE SMOOTH",
"420 8 OFFCURVE",
"382 8 OFFCURVE",
"335 9 CURVE SMOOTH",
"287 10 OFFCURVE",
"246 10 OFFCURVE",
"211 10 CURVE SMOOTH",
"190 10 OFFCURVE",
"175 27 OFFCURVE",
"175 44 CURVE SMOOTH",
"175 61 OFFCURVE",
"186 70 OFFCURVE",
"209 70 CURVE SMOOTH"
);
}
);
width = 660;
}
);
note = Icircumflex;
unicode = 00CE;
},
{
glyphname = Idieresis;
lastChange = "2015-11-03 20:15:51 +0000";
layers = (
{
layerId = "27A8C2A5-6B67-4598-967C-E5EC4FB8AE70";
name = Condensed;
paths = (
{
closed = 1;
nodes = (
"23 1887 OFFCURVE",
"48 1914 OFFCURVE",
"72 1914 CURVE SMOOTH",
"101 1914 OFFCURVE",
"113 1880 OFFCURVE",
"113 1847 CURVE SMOOTH",
"113 1824 OFFCURVE",
"86 1812 OFFCURVE",
"62 1812 CURVE SMOOTH",
"39 1812 OFFCURVE",
"23 1840 OFFCURVE",
"23 1863 CURVE SMOOTH"
);
},
{
closed = 1;
nodes = (
"483 1890 OFFCURVE",
"508 1916 OFFCURVE",
"533 1916 CURVE SMOOTH",
"556 1916 OFFCURVE",
"578 1888 OFFCURVE",
"578 1867 CURVE SMOOTH",
"578 1836 OFFCURVE",
"560 1820 OFFCURVE",
"524 1820 CURVE SMOOTH",
"503 1820 OFFCURVE",
"483 1844 OFFCURVE",
"483 1865 CURVE SMOOTH"
);
},
{
closed = 1;
nodes = (
"289 70 LINE",
"289 211 OFFCURVE",
"284 408 OFFCURVE",
"275 663 CURVE SMOOTH",
"266 917 OFFCURVE",
"260 1067 OFFCURVE",
"259 1114 CURVE",
"259 1125 OFFCURVE",
"259 1160 OFFCURVE",
"260 1218 CURVE SMOOTH",
"261 1276 OFFCURVE",
"261 1321 OFFCURVE",
"261 1354 CURVE SMOOTH",
"261 1427 OFFCURVE",
"259 1471 OFFCURVE",
"255 1484 CURVE",
"185 1484 LINE SMOOTH",
"170 1484 OFFCURVE",
"163 1494 OFFCURVE",
"163 1513 CURVE SMOOTH",
"163 1528 OFFCURVE",
"169 1537 OFFCURVE",
"180 1542 CURVE",
"191 1546 OFFCURVE",
"217 1548 OFFCURVE",
"256 1548 CURVE SMOOTH",
"265 1548 OFFCURVE",
"284 1548 OFFCURVE",
"314 1548 CURVE SMOOTH",
"344 1547 OFFCURVE",
"370 1547 OFFCURVE",
"392 1547 CURVE SMOOTH",
"412 1547 OFFCURVE",
"429 1537 OFFCURVE",
"429 1518 CURVE SMOOTH",
"429 1502 OFFCURVE",
"420 1485 OFFCURVE",
"404 1485 CURVE SMOOTH",
"397 1485 OFFCURVE",
"389 1485 OFFCURVE",
"378 1486 CURVE SMOOTH",
"367 1487 OFFCURVE",
"360 1487 OFFCURVE",
"355 1487 CURVE SMOOTH",
"345 1487 OFFCURVE",
"338 1487 OFFCURVE",
"333 1487 CURVE SMOOTH",
"324 1487 OFFCURVE",
"312 1485 OFFCURVE",
"309 1482 CURVE SMOOTH",
"307 1480 OFFCURVE",
"306 1477 OFFCURVE",
"306 1474 CURVE SMOOTH",
"306 1344 OFFCURVE",
"315 1129 OFFCURVE",
"332 830 CURVE SMOOTH",
"349 531 OFFCURVE",
"357 315 OFFCURVE",
"357 184 CURVE SMOOTH",
"357 172 OFFCURVE",
"357 153 OFFCURVE",
"356 127 CURVE SMOOTH",
"355 101 OFFCURVE",
"355 82 OFFCURVE",
"355 71 CURVE",
"429 71 LINE SMOOTH",
"460 71 OFFCURVE",
"475 61 OFFCURVE",
"475 42 CURVE SMOOTH",
"475 26 OFFCURVE",
"460 8 OFFCURVE",
"447 8 CURVE SMOOTH",
"420 8 OFFCURVE",
"382 8 OFFCURVE",
"335 9 CURVE SMOOTH",
"287 10 OFFCURVE",
"246 10 OFFCURVE",
"211 10 CURVE SMOOTH",
"190 10 OFFCURVE",
"175 27 OFFCURVE",
"175 44 CURVE SMOOTH",
"175 61 OFFCURVE",
"186 70 OFFCURVE",
"209 70 CURVE SMOOTH"
);
}
);
width = 660;
}
);
note = Idieresis;
unicode = 00CF;
},
{
glyphname = Idotaccent;
lastChange = "2015-11-03 20:15:51 +0000";
layers = (
{
layerId = "27A8C2A5-6B67-4598-967C-E5EC4FB8AE70";
name = Condensed;
paths = (
{
closed = 1;
nodes = (
"237 1960 OFFCURVE",
"263 1988 OFFCURVE",
"290 1988 CURVE SMOOTH",
"314 1988 OFFCURVE",
"339 1959 OFFCURVE",
"339 1935 CURVE SMOOTH",
"339 1901 OFFCURVE",
"320 1884 OFFCURVE",
"282 1884 CURVE SMOOTH",
"258 1884 OFFCURVE",
"237 1909 OFFCURVE",
"237 1933 CURVE SMOOTH"
);
},
{
closed = 1;
nodes = (
"289 70 LINE",
"289 211 OFFCURVE",
"284 408 OFFCURVE",
"275 663 CURVE SMOOTH",
"266 917 OFFCURVE",
"260 1067 OFFCURVE",
"259 1114 CURVE",
"259 1125 OFFCURVE",
"259 1160 OFFCURVE",
"260 1218 CURVE SMOOTH",
"261 1276 OFFCURVE",
"261 1321 OFFCURVE",
"261 1354 CURVE SMOOTH",
"261 1427 OFFCURVE",
"259 1471 OFFCURVE",
"255 1484 CURVE",
"185 1484 LINE SMOOTH",
"170 1484 OFFCURVE",
"163 1494 OFFCURVE",
"163 1513 CURVE SMOOTH",
"163 1528 OFFCURVE",
"169 1537 OFFCURVE",
"180 1542 CURVE",
"191 1546 OFFCURVE",
"217 1548 OFFCURVE",
"256 1548 CURVE SMOOTH",
"265 1548 OFFCURVE",
"284 1548 OFFCURVE",
"314 1548 CURVE SMOOTH",
"344 1547 OFFCURVE",
"370 1547 OFFCURVE",
"392 1547 CURVE SMOOTH",
"412 1547 OFFCURVE",
"429 1537 OFFCURVE",
"429 1518 CURVE SMOOTH",
"429 1502 OFFCURVE",
"420 1485 OFFCURVE",
"404 1485 CURVE SMOOTH",
"397 1485 OFFCURVE",
"389 1485 OFFCURVE",
"378 1486 CURVE SMOOTH",
"367 1487 OFFCURVE",
"360 1487 OFFCURVE",
"355 1487 CURVE SMOOTH",
"345 1487 OFFCURVE",
"338 1487 OFFCURVE",
"333 1487 CURVE SMOOTH",
"324 1487 OFFCURVE",
"312 1485 OFFCURVE",
"309 1482 CURVE SMOOTH",
"307 1480 OFFCURVE",
"306 1477 OFFCURVE",
"306 1474 CURVE SMOOTH",
"306 1344 OFFCURVE",
"315 1129 OFFCURVE",
"332 830 CURVE SMOOTH",
"349 531 OFFCURVE",
"357 315 OFFCURVE",
"357 184 CURVE SMOOTH",
"357 172 OFFCURVE",
"357 153 OFFCURVE",
"356 127 CURVE SMOOTH",
"355 101 OFFCURVE",
"355 82 OFFCURVE",
"355 71 CURVE",
"429 71 LINE SMOOTH",
"460 71 OFFCURVE",
"475 61 OFFCURVE",
"475 42 CURVE SMOOTH",
"475 26 OFFCURVE",
"460 8 OFFCURVE",
"447 8 CURVE SMOOTH",
"420 8 OFFCURVE",
"382 8 OFFCURVE",
"335 9 CURVE SMOOTH",
"287 10 OFFCURVE",
"246 10 OFFCURVE",
"211 10 CURVE SMOOTH",
"190 10 OFFCURVE",
"175 27 OFFCURVE",
"175 44 CURVE SMOOTH",
"175 61 OFFCURVE",
"186 70 OFFCURVE",
"209 70 CURVE SMOOTH"
);
}
);
width = 660;
}
);
note = Idotaccent;
unicode = 0130;
},
{
glyphname = Igrave;
lastChange = "2015-11-03 20:15:51 +0000";
layers = (
{
layerId = "27A8C2A5-6B67-4598-967C-E5EC4FB8AE70";
name = Condensed;
paths = (
{
closed = 1;
nodes = (
"86 1948 OFFCURVE",
"75 1947 OFFCURVE",
"66 1947 CURVE SMOOTH",
"19 1947 OFFCURVE",
"-4 1961 OFFCURVE",
"-4 1988 CURVE SMOOTH",
"-4 2012 OFFCURVE",
"0 2027 OFFCURVE",
"9 2033 CURVE",
"22 2033 LINE SMOOTH",
"63 2033 OFFCURVE",
"89 2025 OFFCURVE",
"101 2010 CURVE",
"102 2009 OFFCURVE",
"111 2007 OFFCURVE",
"126 2002 CURVE SMOOTH",
"156 1992 OFFCURVE",
"171 1986 OFFCURVE",
"207 1972 CURVE SMOOTH",
"242 1958 OFFCURVE",
"266 1947 OFFCURVE",
"291 1933 CURVE SMOOTH",
"316 1919 OFFCURVE",
"330 1905 OFFCURVE",
"330 1894 CURVE SMOOTH",
"330 1885 OFFCURVE",
"315 1877 OFFCURVE",
"306 1877 CURVE SMOOTH",
"301 1877 OFFCURVE",
"111 1944 OFFCURVE",
"99 1951 CURVE"
);
},
{
closed = 1;
nodes = (
"289 70 LINE",
"289 211 OFFCURVE",
"284 408 OFFCURVE",
"275 663 CURVE SMOOTH",
"266 917 OFFCURVE",
"260 1067 OFFCURVE",
"259 1114 CURVE",
"259 1125 OFFCURVE",
"259 1160 OFFCURVE",
"260 1218 CURVE SMOOTH",
"261 1276 OFFCURVE",
"261 1321 OFFCURVE",
"261 1354 CURVE SMOOTH",
"261 1427 OFFCURVE",
"259 1471 OFFCURVE",
"255 1484 CURVE",
"185 1484 LINE SMOOTH",
"170 1484 OFFCURVE",
"163 1494 OFFCURVE",
"163 1513 CURVE SMOOTH",
"163 1528 OFFCURVE",
"169 1537 OFFCURVE",
"180 1542 CURVE",
"191 1546 OFFCURVE",
"217 1548 OFFCURVE",
"256 1548 CURVE SMOOTH",
"265 1548 OFFCURVE",
"284 1548 OFFCURVE",
"314 1548 CURVE SMOOTH",
"344 1547 OFFCURVE",
"370 1547 OFFCURVE",
"392 1547 CURVE SMOOTH",
"412 1547 OFFCURVE",
"429 1537 OFFCURVE",
"429 1518 CURVE SMOOTH",
"429 1502 OFFCURVE",
"420 1485 OFFCURVE",
"404 1485 CURVE SMOOTH",
"397 1485 OFFCURVE",
"389 1485 OFFCURVE",
"378 1486 CURVE SMOOTH",
"367 1487 OFFCURVE",
"360 1487 OFFCURVE",
"355 1487 CURVE SMOOTH",
"345 1487 OFFCURVE",
"338 1487 OFFCURVE",
"333 1487 CURVE SMOOTH",
"324 1487 OFFCURVE",
"312 1485 OFFCURVE",
"309 1482 CURVE SMOOTH",
"307 1480 OFFCURVE",
"306 1477 OFFCURVE",
"306 1474 CURVE SMOOTH",
"306 1344 OFFCURVE",
"315 1129 OFFCURVE",
"332 830 CURVE SMOOTH",
"349 531 OFFCURVE",
"357 315 OFFCURVE",
"357 184 CURVE SMOOTH",
"357 172 OFFCURVE",
"357 153 OFFCURVE",
"356 127 CURVE SMOOTH",
"355 101 OFFCURVE",
"355 82 OFFCURVE",
"355 71 CURVE",
"429 71 LINE SMOOTH",
"460 71 OFFCURVE",
"475 61 OFFCURVE",
"475 42 CURVE SMOOTH",
"475 26 OFFCURVE",
"460 8 OFFCURVE",
"447 8 CURVE SMOOTH",
"420 8 OFFCURVE",
"382 8 OFFCURVE",
"335 9 CURVE SMOOTH",
"287 10 OFFCURVE",
"246 10 OFFCURVE",
"211 10 CURVE SMOOTH",
"190 10 OFFCURVE",
"175 27 OFFCURVE",
"175 44 CURVE SMOOTH",
"175 61 OFFCURVE",
"186 70 OFFCURVE",
"209 70 CURVE SMOOTH"
);
}
);
width = 660;
}
);
note = Igrave;
unicode = 00CC;
},
{
glyphname = Imacron;
lastChange = "2015-11-03 20:15:51 +0000";
layers = (
{
layerId = "27A8C2A5-6B67-4598-967C-E5EC4FB8AE70";
name = Condensed;
paths = (
{
closed = 1;
nodes = (
"533 1840 OFFCURVE",
"489 1834 OFFCURVE",
"403 1834 CURVE SMOOTH",
"288 1834 LINE SMOOTH",
"270 1834 OFFCURVE",
"257 1834 OFFCURVE",
"248 1834 CURVE SMOOTH",
"231 1834 OFFCURVE",
"197 1835 OFFCURVE",
"183 1838 CURVE SMOOTH",
"169 1841 OFFCURVE",
"150 1845 OFFCURVE",
"144 1853 CURVE SMOOTH",
"141 1857 OFFCURVE",
"139 1862 OFFCURVE",
"139 1867 CURVE",
"140 1878 OFFCURVE",
"184 1884 OFFCURVE",
"270 1884 CURVE SMOOTH",
"386 1884 LINE SMOOTH",
"441 1884 OFFCURVE",
"457 1884 OFFCURVE",
"490 1880 CURVE SMOOTH",
"522 1876 OFFCURVE",
"534 1867 OFFCURVE",
"534 1851 CURVE"
);
},
{
closed = 1;
nodes = (
"289 70 LINE",
"289 211 OFFCURVE",
"284 408 OFFCURVE",
"275 663 CURVE SMOOTH",
"266 917 OFFCURVE",
"260 1067 OFFCURVE",
"259 1114 CURVE",
"259 1125 OFFCURVE",
"259 1160 OFFCURVE",
"260 1218 CURVE SMOOTH",
"261 1276 OFFCURVE",
"261 1321 OFFCURVE",
"261 1354 CURVE SMOOTH",
"261 1427 OFFCURVE",
"259 1471 OFFCURVE",
"255 1484 CURVE",
"185 1484 LINE SMOOTH",
"170 1484 OFFCURVE",
"163 1494 OFFCURVE",
"163 1513 CURVE SMOOTH",
"163 1528 OFFCURVE",
"169 1537 OFFCURVE",
"180 1542 CURVE",
"191 1546 OFFCURVE",
"217 1548 OFFCURVE",
"256 1548 CURVE SMOOTH",
"265 1548 OFFCURVE",
"284 1548 OFFCURVE",
"314 1548 CURVE SMOOTH",
"344 1547 OFFCURVE",
"370 1547 OFFCURVE",
"392 1547 CURVE SMOOTH",
"412 1547 OFFCURVE",
"429 1537 OFFCURVE",
"429 1518 CURVE SMOOTH",
"429 1502 OFFCURVE",
"420 1485 OFFCURVE",
"404 1485 CURVE SMOOTH",
"397 1485 OFFCURVE",
"389 1485 OFFCURVE",
"378 1486 CURVE SMOOTH",
"367 1487 OFFCURVE",
"360 1487 OFFCURVE",
"355 1487 CURVE SMOOTH",
"345 1487 OFFCURVE",
"338 1487 OFFCURVE",
"333 1487 CURVE SMOOTH",
"324 1487 OFFCURVE",
"312 1485 OFFCURVE",
"309 1482 CURVE SMOOTH",
"307 1480 OFFCURVE",
"306 1477 OFFCURVE",
"306 1474 CURVE SMOOTH",
"306 1344 OFFCURVE",
"315 1129 OFFCURVE",
"332 830 CURVE SMOOTH",
"349 531 OFFCURVE",
"357 315 OFFCURVE",
"357 184 CURVE SMOOTH",
"357 172 OFFCURVE",
"357 153 OFFCURVE",
"356 127 CURVE SMOOTH",
"355 101 OFFCURVE",
"355 82 OFFCURVE",
"355 71 CURVE",
"429 71 LINE SMOOTH",
"460 71 OFFCURVE",
"475 61 OFFCURVE",
"475 42 CURVE SMOOTH",
"475 26 OFFCURVE",
"460 8 OFFCURVE",
"447 8 CURVE SMOOTH",
"420 8 OFFCURVE",
"382 8 OFFCURVE",
"335 9 CURVE SMOOTH",
"287 10 OFFCURVE",
"246 10 OFFCURVE",
"211 10 CURVE SMOOTH",
"190 10 OFFCURVE",
"175 27 OFFCURVE",
"175 44 CURVE SMOOTH",
"175 61 OFFCURVE",
"186 70 OFFCURVE",
"209 70 CURVE SMOOTH"
);
}
);
width = 660;
}
);
note = Imacron;
unicode = 012A;
},
{
glyphname = Iogonek;
lastChange = "2015-11-03 20:15:51 +0000";
layers = (
{
layerId = "27A8C2A5-6B67-4598-967C-E5EC4FB8AE70";
name = Condensed;
paths = (
{
closed = 1;
nodes = (
"301 22 LINE",
"360 14 LINE",
"362 15 LINE",
"363 14 LINE",
"363 13 OFFCURVE",
"357 4 OFFCURVE",
"346 -12 CURVE",
"322 -44 OFFCURVE",
"293 -84 OFFCURVE",
"270 -141 CURVE SMOOTH",
"258 -170 OFFCURVE",
"252 -196 OFFCURVE",
"252 -220 CURVE SMOOTH",
"252 -233 OFFCURVE",
"251 -248 OFFCURVE",
"248 -267 CURVE",
"248 -270 OFFCURVE",
"248 -277 OFFCURVE",
"247 -287 CURVE SMOOTH",
"246 -297 OFFCURVE",
"246 -305 OFFCURVE",
"246 -310 CURVE SMOOTH",
"246 -345 OFFCURVE",
"282 -394 OFFCURVE",
"315 -394 CURVE SMOOTH",
"323 -394 OFFCURVE",
"334 -390 OFFCURVE",
"348 -383 CURVE SMOOTH",
"362 -376 OFFCURVE",
"373 -373 OFFCURVE",
"381 -373 CURVE SMOOTH",
"396 -373 OFFCURVE",
"403 -380 OFFCURVE",
"403 -394 CURVE SMOOTH",
"403 -429 OFFCURVE",
"354 -449 OFFCURVE",
"315 -449 CURVE SMOOTH",
"232 -449 OFFCURVE",
"160 -351 OFFCURVE",
"160 -287 CURVE SMOOTH",
"160 -222 OFFCURVE",
"182 -151 OFFCURVE",
"210 -102 CURVE SMOOTH",
"238 -54 OFFCURVE",
"267 -13 OFFCURVE",
"287 7 CURVE SMOOTH"
);
},
{
closed = 1;
nodes = (
"289 70 LINE",
"289 211 OFFCURVE",
"284 408 OFFCURVE",
"275 663 CURVE SMOOTH",
"266 917 OFFCURVE",
"260 1067 OFFCURVE",
"259 1114 CURVE",
"259 1125 OFFCURVE",
"259 1160 OFFCURVE",
"260 1218 CURVE SMOOTH",
"261 1276 OFFCURVE",
"261 1321 OFFCURVE",
"261 1354 CURVE SMOOTH",
"261 1427 OFFCURVE",
"259 1471 OFFCURVE",
"255 1484 CURVE",
"185 1484 LINE SMOOTH",
"170 1484 OFFCURVE",
"163 1494 OFFCURVE",
"163 1513 CURVE SMOOTH",
"163 1528 OFFCURVE",
"169 1537 OFFCURVE",
"180 1542 CURVE",
"191 1546 OFFCURVE",
"217 1548 OFFCURVE",
"256 1548 CURVE SMOOTH",
"265 1548 OFFCURVE",
"284 1548 OFFCURVE",
"314 1548 CURVE SMOOTH",
"344 1547 OFFCURVE",
"370 1547 OFFCURVE",
"392 1547 CURVE SMOOTH",
"412 1547 OFFCURVE",
"429 1537 OFFCURVE",
"429 1518 CURVE SMOOTH",
"429 1502 OFFCURVE",
"420 1485 OFFCURVE",
"404 1485 CURVE SMOOTH",
"397 1485 OFFCURVE",
"389 1485 OFFCURVE",
"378 1486 CURVE SMOOTH",
"367 1487 OFFCURVE",
"360 1487 OFFCURVE",
"355 1487 CURVE SMOOTH",
"345 1487 OFFCURVE",
"338 1487 OFFCURVE",
"333 1487 CURVE SMOOTH",
"324 1487 OFFCURVE",
"312 1485 OFFCURVE",
"309 1482 CURVE SMOOTH",
"307 1480 OFFCURVE",
"306 1477 OFFCURVE",
"306 1474 CURVE SMOOTH",
"306 1344 OFFCURVE",
"315 1129 OFFCURVE",
"332 830 CURVE SMOOTH",
"349 531 OFFCURVE",
"357 315 OFFCURVE",
"357 184 CURVE SMOOTH",
"357 172 OFFCURVE",
"357 153 OFFCURVE",
"356 127 CURVE SMOOTH",
"355 101 OFFCURVE",
"355 82 OFFCURVE",
"355 71 CURVE",
"429 71 LINE SMOOTH",
"460 71 OFFCURVE",
"475 61 OFFCURVE",
"475 42 CURVE SMOOTH",
"475 26 OFFCURVE",
"460 8 OFFCURVE",
"447 8 CURVE SMOOTH",
"420 8 OFFCURVE",
"382 8 OFFCURVE",
"335 9 CURVE SMOOTH",
"287 10 OFFCURVE",
"246 10 OFFCURVE",
"211 10 CURVE SMOOTH",
"190 10 OFFCURVE",
"175 27 OFFCURVE",
"175 44 CURVE SMOOTH",
"175 61 OFFCURVE",
"186 70 OFFCURVE",
"209 70 CURVE SMOOTH"
);
}
);
width = 660;
}
);
note = Iogonek;
unicode = 012E;
},
{
glyphname = Itilde;
lastChange = "2015-11-03 20:15:51 +0000";
layers = (
{
layerId = "27A8C2A5-6B67-4598-967C-E5EC4FB8AE70";
name = Condensed;
paths = (
{
closed = 1;
nodes = (
"63 1874 OFFCURVE",
"118 1928 OFFCURVE",
"182 1928 CURVE SMOOTH",
"216 1928 OFFCURVE",
"245 1914 OFFCURVE",
"269 1886 CURVE",
"289 1846 OFFCURVE",
"345 1807 OFFCURVE",
"386 1807 CURVE SMOOTH",
"421 1807 OFFCURVE",
"439 1831 OFFCURVE",
"439 1880 CURVE SMOOTH",
"439 1885 OFFCURVE",
"437 1892 OFFCURVE",
"434 1901 CURVE",
"430 1909 OFFCURVE",
"428 1915 OFFCURVE",
"427 1919 CURVE",
"431 1927 OFFCURVE",
"438 1931 OFFCURVE",
"448 1931 CURVE SMOOTH",
"480 1931 OFFCURVE",
"495 1896 OFFCURVE",
"495 1861 CURVE SMOOTH",
"495 1804 OFFCURVE",
"443 1753 OFFCURVE",
"386 1753 CURVE SMOOTH",
"337 1753 OFFCURVE",
"281 1790 OFFCURVE",
"256 1816 CURVE SMOOTH",
"243 1829 OFFCURVE",
"226 1848 OFFCURVE",
"204 1874 CURVE",
"190 1880 LINE",
"150 1880 OFFCURVE",
"114 1856 OFFCURVE",
"114 1825 CURVE SMOOTH",
"114 1820 OFFCURVE",
"117 1805 OFFCURVE",
"124 1782 CURVE",
"102 1751 LINE",
"85 1751 OFFCURVE",
"63 1769 OFFCURVE",
"63 1786 CURVE SMOOTH"
);
},
{
closed = 1;
nodes = (
"289 70 LINE",
"289 211 OFFCURVE",
"284 408 OFFCURVE",
"275 663 CURVE SMOOTH",
"266 917 OFFCURVE",
"260 1067 OFFCURVE",
"259 1114 CURVE",
"259 1125 OFFCURVE",
"259 1160 OFFCURVE",
"260 1218 CURVE SMOOTH",
"261 1276 OFFCURVE",
"261 1321 OFFCURVE",
"261 1354 CURVE SMOOTH",
"261 1427 OFFCURVE",
"259 1471 OFFCURVE",
"255 1484 CURVE",
"185 1484 LINE SMOOTH",
"170 1484 OFFCURVE",
"163 1494 OFFCURVE",
"163 1513 CURVE SMOOTH",
"163 1528 OFFCURVE",
"169 1537 OFFCURVE",
"180 1542 CURVE",
"191 1546 OFFCURVE",
"217 1548 OFFCURVE",
"256 1548 CURVE SMOOTH",
"265 1548 OFFCURVE",
"284 1548 OFFCURVE",
"314 1548 CURVE SMOOTH",
"344 1547 OFFCURVE",
"370 1547 OFFCURVE",
"392 1547 CURVE SMOOTH",
"412 1547 OFFCURVE",
"429 1537 OFFCURVE",
"429 1518 CURVE SMOOTH",
"429 1502 OFFCURVE",
"420 1485 OFFCURVE",
"404 1485 CURVE SMOOTH",
"397 1485 OFFCURVE",
"389 1485 OFFCURVE",
"378 1486 CURVE SMOOTH",
"367 1487 OFFCURVE",
"360 1487 OFFCURVE",
"355 1487 CURVE SMOOTH",
"345 1487 OFFCURVE",
"338 1487 OFFCURVE",
"333 1487 CURVE SMOOTH",
"324 1487 OFFCURVE",
"312 1485 OFFCURVE",
"309 1482 CURVE SMOOTH",
"307 1480 OFFCURVE",
"306 1477 OFFCURVE",
"306 1474 CURVE SMOOTH",
"306 1344 OFFCURVE",
"315 1129 OFFCURVE",
"332 830 CURVE SMOOTH",
"349 531 OFFCURVE",
"357 315 OFFCURVE",
"357 184 CURVE SMOOTH",
"357 172 OFFCURVE",
"357 153 OFFCURVE",
"356 127 CURVE SMOOTH",
"355 101 OFFCURVE",
"355 82 OFFCURVE",
"355 71 CURVE",
"429 71 LINE SMOOTH",
"460 71 OFFCURVE",
"475 61 OFFCURVE",
"475 42 CURVE SMOOTH",
"475 26 OFFCURVE",
"460 8 OFFCURVE",
"447 8 CURVE SMOOTH",
"420 8 OFFCURVE",
"382 8 OFFCURVE",
"335 9 CURVE SMOOTH",
"287 10 OFFCURVE",
"246 10 OFFCURVE",
"211 10 CURVE SMOOTH",
"190 10 OFFCURVE",
"175 27 OFFCURVE",
"175 44 CURVE SMOOTH",
"175 61 OFFCURVE",
"186 70 OFFCURVE",
"209 70 CURVE SMOOTH"
);
}
);
width = 660;
}
);
note = Itilde;
unicode = 0128;
},
{
glyphname = J;
lastChange = "2015-11-03 20:15:51 +0000";
layers = (
{
layerId = "27A8C2A5-6B67-4598-967C-E5EC4FB8AE70";
name = Condensed;
paths = (
{
closed = 1;
nodes = (
"189 -144 OFFCURVE",
"211 -127 OFFCURVE",
"237 -110 CURVE SMOOTH",
"250 -102 OFFCURVE",
"258 -96 OFFCURVE",
"262 -92 CURVE SMOOTH",
"322 -32 OFFCURVE",
"352 72 OFFCURVE",
"352 221 CURVE SMOOTH",
"352 292 OFFCURVE",
"349 393 OFFCURVE",
"342 524 CURVE SMOOTH",
"335 655 OFFCURVE",
"331 748 OFFCURVE",
"330 801 CURVE SMOOTH",
"329 852 OFFCURVE",
"325 958 OFFCURVE",
"319 1119 CURVE SMOOTH",
"312 1279 OFFCURVE",
"309 1402 OFFCURVE",
"309 1489 CURVE",
"296 1489 OFFCURVE",
"276 1488 OFFCURVE",
"247 1487 CURVE SMOOTH",
"218 1486 OFFCURVE",
"198 1485 OFFCURVE",
"186 1485 CURVE SMOOTH",
"170 1485 OFFCURVE",
"158 1500 OFFCURVE",
"158 1516 CURVE SMOOTH",
"158 1532 OFFCURVE",
"164 1542 OFFCURVE",
"176 1547 CURVE SMOOTH",
"188 1552 OFFCURVE",
"214 1554 OFFCURVE",
"253 1554 CURVE SMOOTH",
"264 1554 OFFCURVE",
"290 1554 OFFCURVE",
"331 1553 CURVE SMOOTH",
"372 1552 OFFCURVE",
"408 1552 OFFCURVE",
"440 1552 CURVE SMOOTH",
"459 1552 OFFCURVE",
"473 1537 OFFCURVE",
"473 1520 CURVE SMOOTH",
"473 1493 OFFCURVE",
"460 1489 OFFCURVE",
"417 1489 CURVE SMOOTH",
"371 1489 LINE",
"371 1330 OFFCURVE",
"379 1099 OFFCURVE",
"394 798 CURVE SMOOTH",
"409 496 OFFCURVE",
"416 332 OFFCURVE",
"416 305 CURVE SMOOTH",
"416 198 OFFCURVE",
"415 144 OFFCURVE",
"401 64 CURVE SMOOTH",
"387 -16 OFFCURVE",
"363 -65 OFFCURVE",
"317 -121 CURVE SMOOTH",
"294 -150 OFFCURVE",
"265 -176 OFFCURVE",
"231 -199 CURVE",
"202 -199 OFFCURVE",
"188 -186 OFFCURVE",
"188 -160 CURVE"
);
}
);
width = 620;
}
);
note = J;
unicode = 004A;
},
{
glyphname = Jcircumflex;
lastChange = "2015-11-03 20:15:51 +0000";
layers = (
{
layerId = "27A8C2A5-6B67-4598-967C-E5EC4FB8AE70";
name = Condensed;
paths = (
{
closed = 1;
nodes = (
"422 1698 LINE",
"415 1781 OFFCURVE",
"396 1883 OFFCURVE",
"363 2005 CURVE",
"360 1998 OFFCURVE",
"316 1876 OFFCURVE",
"295 1809 CURVE SMOOTH",
"284 1776 OFFCURVE",
"278 1752 OFFCURVE",
"277 1739 CURVE",
"242 1692 LINE",
"205 1718 LINE",
"208 1778 OFFCURVE",
"336 2064 OFFCURVE",
"377 2064 CURVE SMOOTH",
"396 2064 OFFCURVE",
"406 2050 OFFCURVE",
"406 2021 CURVE SMOOTH",
"406 1968 OFFCURVE",
"419 1920 OFFCURVE",
"443 1856 CURVE SMOOTH",
"454 1824 OFFCURVE",
"462 1799 OFFCURVE",
"467 1782 CURVE",
"465 1769 LINE",
"480 1739 LINE",
"478 1728 LINE",
"483 1717 OFFCURVE",
"486 1710 OFFCURVE",
"486 1706 CURVE SMOOTH",
"486 1693 OFFCURVE",
"474 1685 OFFCURVE",
"449 1681 CURVE"
);
},
{
closed = 1;
nodes = (
"189 -144 OFFCURVE",
"211 -127 OFFCURVE",
"237 -110 CURVE SMOOTH",
"250 -102 OFFCURVE",
"258 -96 OFFCURVE",
"262 -92 CURVE SMOOTH",
"322 -32 OFFCURVE",
"352 72 OFFCURVE",
"352 221 CURVE SMOOTH",
"352 292 OFFCURVE",
"349 393 OFFCURVE",
"342 524 CURVE SMOOTH",
"335 655 OFFCURVE",
"331 748 OFFCURVE",
"330 801 CURVE SMOOTH",
"329 852 OFFCURVE",
"325 958 OFFCURVE",
"319 1119 CURVE SMOOTH",
"312 1279 OFFCURVE",
"309 1402 OFFCURVE",
"309 1489 CURVE",
"296 1489 OFFCURVE",
"276 1488 OFFCURVE",
"247 1487 CURVE SMOOTH",
"218 1486 OFFCURVE",
"198 1485 OFFCURVE",
"186 1485 CURVE SMOOTH",
"170 1485 OFFCURVE",
"158 1500 OFFCURVE",
"158 1516 CURVE SMOOTH",
"158 1532 OFFCURVE",
"164 1542 OFFCURVE",
"176 1547 CURVE SMOOTH",
"188 1552 OFFCURVE",
"214 1554 OFFCURVE",
"253 1554 CURVE SMOOTH",
"264 1554 OFFCURVE",
"290 1554 OFFCURVE",
"331 1553 CURVE SMOOTH",
"372 1552 OFFCURVE",
"408 1552 OFFCURVE",
"440 1552 CURVE SMOOTH",
"459 1552 OFFCURVE",
"473 1537 OFFCURVE",
"473 1520 CURVE SMOOTH",
"473 1493 OFFCURVE",
"460 1489 OFFCURVE",
"417 1489 CURVE SMOOTH",
"371 1489 LINE",
"371 1330 OFFCURVE",
"379 1099 OFFCURVE",
"394 798 CURVE SMOOTH",
"409 496 OFFCURVE",
"416 332 OFFCURVE",
"416 305 CURVE SMOOTH",
"416 198 OFFCURVE",
"415 144 OFFCURVE",
"401 64 CURVE SMOOTH",
"387 -16 OFFCURVE",
"363 -65 OFFCURVE",
"317 -121 CURVE SMOOTH",
"294 -150 OFFCURVE",
"265 -176 OFFCURVE",
"231 -199 CURVE",
"202 -199 OFFCURVE",
"188 -186 OFFCURVE",
"188 -160 CURVE"
);
}
);
width = 620;
}
);
note = Jcircumflex;
unicode = 0134;
},
{
glyphname = K;
lastChange = "2015-11-03 20:15:51 +0000";
layers = (
{
layerId = "27A8C2A5-6B67-4598-967C-E5EC4FB8AE70";
name = Condensed;
paths = (
{
closed = 1;
nodes = (
"347 919 LINE",
"344 914 OFFCURVE",
"337 901 OFFCURVE",
"324 880 CURVE SMOOTH",
"311 858 OFFCURVE",
"298 835 OFFCURVE",
"283 811 CURVE SMOOTH",
"268 786 OFFCURVE",
"258 770 OFFCURVE",
"254 763 CURVE",
"254 34 LINE SMOOTH",
"254 -9 OFFCURVE",
"249 -26 OFFCURVE",
"221 -26 CURVE SMOOTH",
"192 -26 OFFCURVE",
"187 -10 OFFCURVE",
"187 38 CURVE SMOOTH",
"187 657 LINE SMOOTH",
"187 738 OFFCURVE",
"189 869 OFFCURVE",
"192 1050 CURVE SMOOTH",
"195 1231 OFFCURVE",
"196 1362 OFFCURVE",
"196 1443 CURVE SMOOTH",
"196 1475 OFFCURVE",
"198 1499 OFFCURVE",
"201 1516 CURVE SMOOTH",
"204 1532 OFFCURVE",
"212 1540 OFFCURVE",
"223 1540 CURVE SMOOTH",
"243 1540 OFFCURVE",
"255 1535 OFFCURVE",
"260 1525 CURVE SMOOTH",
"265 1515 OFFCURVE",
"267 1491 OFFCURVE",
"267 1453 CURVE SMOOTH",
"267 1385 OFFCURVE",
"266 1271 OFFCURVE",
"264 1112 CURVE SMOOTH",
"261 952 OFFCURVE",
"260 869 OFFCURVE",
"260 864 CURVE",
"262 864 LINE",
"289 922 OFFCURVE",
"326 1008 OFFCURVE",
"372 1122 CURVE SMOOTH",
"417 1235 OFFCURVE",
"443 1299 OFFCURVE",
"449 1313 CURVE SMOOTH",
"523 1502 OFFCURVE",
"571 1597 OFFCURVE",
"594 1597 CURVE SMOOTH",
"613 1597 OFFCURVE",
"629 1586 OFFCURVE",
"629 1567 CURVE",
"625 1538 OFFCURVE",
"614 1513 OFFCURVE",
"596 1484 CURVE SMOOTH",
"587 1469 OFFCURVE",
"580 1457 OFFCURVE",
"576 1448 CURVE SMOOTH",
"561 1415 OFFCURVE",
"526 1333 OFFCURVE",
"473 1203 CURVE SMOOTH",
"419 1073 OFFCURVE",
"390 1003 OFFCURVE",
"385 993 CURVE",
"382 984 OFFCURVE",
"382 976 OFFCURVE",
"387 969 CURVE",
"446 820 OFFCURVE",
"523 579 OFFCURVE",
"562 444 CURVE SMOOTH",
"601 309 OFFCURVE",
"680 28 OFFCURVE",
"684 12 CURVE",
"686 7 OFFCURVE",
"687 2 OFFCURVE",
"687 -2 CURVE SMOOTH",
"687 -21 OFFCURVE",
"670 -32 OFFCURVE",
"651 -32 CURVE SMOOTH",
"638 -32 OFFCURVE",
"630 -28 OFFCURVE",
"627 -19 CURVE",
"622 -1 OFFCURVE",
"581 140 OFFCURVE",
"505 403 CURVE SMOOTH",
"429 666 OFFCURVE",
"381 827 OFFCURVE",
"361 884 CURVE"
);
}
);
width = 820;
}
);
note = K;
unicode = 004B;
},
{
glyphname = L;
lastChange = "2015-11-03 20:15:51 +0000";
layers = (
{
layerId = "27A8C2A5-6B67-4598-967C-E5EC4FB8AE70";
name = Condensed;
paths = (
{
closed = 1;
nodes = (
"211 35 OFFCURVE",
"211 46 OFFCURVE",
"212 64 CURVE",
"212 81 OFFCURVE",
"212 98 OFFCURVE",
"212 113 CURVE SMOOTH",
"212 177 OFFCURVE",
"209 274 OFFCURVE",
"202 403 CURVE SMOOTH",
"195 532 OFFCURVE",
"192 629 OFFCURVE",
"192 694 CURVE SMOOTH",
"192 789 OFFCURVE",
"189 931 OFFCURVE",
"182 1122 CURVE SMOOTH",
"175 1313 OFFCURVE",
"171 1455 OFFCURVE",
"171 1550 CURVE SMOOTH",
"171 1565 OFFCURVE",
"185 1574 OFFCURVE",
"201 1574 CURVE SMOOTH",
"225 1574 OFFCURVE",
"237 1564 OFFCURVE",
"237 1545 CURVE SMOOTH",
"237 1290 OFFCURVE",
"240 1101 OFFCURVE",
"245 977 CURVE SMOOTH",
"255 610 LINE SMOOTH",
"255 552 OFFCURVE",
"259 459 OFFCURVE",
"266 330 CURVE SMOOTH",
"273 201 OFFCURVE",
"277 116 OFFCURVE",
"278 75 CURVE SMOOTH",
"278 72 OFFCURVE",
"280 70 OFFCURVE",
"284 69 CURVE",
"287 68 OFFCURVE",
"297 68 OFFCURVE",
"312 68 CURVE SMOOTH",
"438 68 LINE SMOOTH",
"457 68 OFFCURVE",
"466 56 OFFCURVE",
"466 31 CURVE SMOOTH",
"466 11 OFFCURVE",
"457 -9 OFFCURVE",
"441 -9 CURVE SMOOTH",
"439 -9 OFFCURVE",
"434 -9 OFFCURVE",
"427 -10 CURVE SMOOTH",
"420 -11 OFFCURVE",
"414 -11 OFFCURVE",
"410 -11 CURVE SMOOTH",
"367 -12 OFFCURVE",
"312 -12 OFFCURVE",
"245 -12 CURVE SMOOTH",
"225 -12 OFFCURVE",
"211 7 OFFCURVE",
"211 31 CURVE SMOOTH"
);
}
);
width = 580;
}
);
note = L;
unicode = 004C;
},
{
glyphname = Lacute;
lastChange = "2015-11-03 20:15:51 +0000";
layers = (
{
layerId = "27A8C2A5-6B67-4598-967C-E5EC4FB8AE70";
name = Condensed;
paths = (
{
closed = 1;
nodes = (
"201 1875 OFFCURVE",
"220 1893 OFFCURVE",
"257 1923 CURVE SMOOTH",
"294 1953 OFFCURVE",
"335 1985 OFFCURVE",
"379 2019 CURVE SMOOTH",
"422 2052 OFFCURVE",
"448 2072 OFFCURVE",
"455 2079 CURVE",
"485 2079 OFFCURVE",
"500 2068 OFFCURVE",
"500 2047 CURVE SMOOTH",
"500 2046 OFFCURVE",
"498 2036 OFFCURVE",
"494 2016 CURVE",
"425 1985 OFFCURVE",
"340 1927 OFFCURVE",
"238 1840 CURVE",
"218 1840 OFFCURVE",
"201 1851 OFFCURVE",
"201 1870 CURVE SMOOTH"
);
},
{
closed = 1;
nodes = (
"211 35 OFFCURVE",
"211 46 OFFCURVE",
"212 64 CURVE",
"212 81 OFFCURVE",
"212 98 OFFCURVE",
"212 113 CURVE SMOOTH",
"212 177 OFFCURVE",
"209 274 OFFCURVE",
"202 403 CURVE SMOOTH",
"195 532 OFFCURVE",
"192 629 OFFCURVE",
"192 694 CURVE SMOOTH",
"192 789 OFFCURVE",
"189 931 OFFCURVE",
"182 1122 CURVE SMOOTH",
"175 1313 OFFCURVE",
"171 1455 OFFCURVE",
"171 1550 CURVE SMOOTH",
"171 1565 OFFCURVE",
"185 1574 OFFCURVE",
"201 1574 CURVE SMOOTH",
"225 1574 OFFCURVE",
"237 1564 OFFCURVE",
"237 1545 CURVE SMOOTH",
"237 1290 OFFCURVE",
"240 1101 OFFCURVE",
"245 977 CURVE SMOOTH",
"255 610 LINE SMOOTH",
"255 552 OFFCURVE",
"259 459 OFFCURVE",
"266 330 CURVE SMOOTH",
"273 201 OFFCURVE",
"277 116 OFFCURVE",
"278 75 CURVE SMOOTH",
"278 72 OFFCURVE",
"280 70 OFFCURVE",
"284 69 CURVE",
"287 68 OFFCURVE",
"297 68 OFFCURVE",
"312 68 CURVE SMOOTH",
"438 68 LINE SMOOTH",
"457 68 OFFCURVE",
"466 56 OFFCURVE",
"466 31 CURVE SMOOTH",
"466 11 OFFCURVE",
"457 -9 OFFCURVE",
"441 -9 CURVE SMOOTH",
"439 -9 OFFCURVE",
"434 -9 OFFCURVE",
"427 -10 CURVE SMOOTH",
"420 -11 OFFCURVE",
"414 -11 OFFCURVE",
"410 -11 CURVE SMOOTH",
"367 -12 OFFCURVE",
"312 -12 OFFCURVE",
"245 -12 CURVE SMOOTH",
"225 -12 OFFCURVE",
"211 7 OFFCURVE",
"211 31 CURVE SMOOTH"
);
}
);
width = 580;
}
);
note = Lacute;
unicode = 0139;
},
{
glyphname = Lcaron;
lastChange = "2015-11-03 20:15:51 +0000";
layers = (
{
layerId = "27A8C2A5-6B67-4598-967C-E5EC4FB8AE70";
name = Condensed;
paths = (
{
closed = 1;
nodes = (
"616 1278 OFFCURVE",
"651 1310 OFFCURVE",
"664 1323 CURVE SMOOTH",
"677 1336 OFFCURVE",
"700 1362 OFFCURVE",
"709 1385 CURVE SMOOTH",
"713 1396 OFFCURVE",
"715 1408 OFFCURVE",
"715 1420 CURVE",
"671 1429 OFFCURVE",
"656 1459 OFFCURVE",
"656 1510 CURVE SMOOTH",
"656 1555 OFFCURVE",
"692 1574 OFFCURVE",
"733 1574 CURVE SMOOTH",
"793 1574 OFFCURVE",
"823 1547 OFFCURVE",
"823 1492 CURVE SMOOTH",
"823 1424 OFFCURVE",
"747 1303 OFFCURVE",
"659 1244 CURVE",
"649 1238 OFFCURVE",
"640 1235 OFFCURVE",
"631 1235 CURVE SMOOTH",
"615 1235 OFFCURVE",
"605 1245 OFFCURVE",
"605 1258 CURVE SMOOTH",
"605 1263 OFFCURVE",
"606 1267 OFFCURVE",
"608 1271 CURVE"
);
},
{
closed = 1;
nodes = (
"211 35 OFFCURVE",
"211 46 OFFCURVE",
"212 64 CURVE",
"212 81 OFFCURVE",
"212 98 OFFCURVE",
"212 113 CURVE SMOOTH",
"212 177 OFFCURVE",
"209 274 OFFCURVE",
"202 403 CURVE SMOOTH",
"195 532 OFFCURVE",
"192 629 OFFCURVE",
"192 694 CURVE SMOOTH",
"192 789 OFFCURVE",
"189 931 OFFCURVE",
"182 1122 CURVE SMOOTH",
"175 1313 OFFCURVE",
"171 1455 OFFCURVE",
"171 1550 CURVE SMOOTH",
"171 1565 OFFCURVE",
"185 1574 OFFCURVE",
"201 1574 CURVE SMOOTH",
"225 1574 OFFCURVE",
"237 1564 OFFCURVE",
"237 1545 CURVE SMOOTH",
"237 1290 OFFCURVE",
"240 1101 OFFCURVE",
"245 977 CURVE SMOOTH",
"255 610 LINE SMOOTH",
"255 552 OFFCURVE",
"259 459 OFFCURVE",
"266 330 CURVE SMOOTH",
"273 201 OFFCURVE",
"277 116 OFFCURVE",
"278 75 CURVE SMOOTH",
"278 72 OFFCURVE",
"280 70 OFFCURVE",
"284 69 CURVE",
"287 68 OFFCURVE",
"297 68 OFFCURVE",
"312 68 CURVE SMOOTH",
"438 68 LINE SMOOTH",
"457 68 OFFCURVE",
"466 56 OFFCURVE",
"466 31 CURVE SMOOTH",
"466 11 OFFCURVE",
"457 -9 OFFCURVE",
"441 -9 CURVE SMOOTH",
"439 -9 OFFCURVE",
"434 -9 OFFCURVE",
"427 -10 CURVE SMOOTH",
"420 -11 OFFCURVE",
"414 -11 OFFCURVE",
"410 -11 CURVE SMOOTH",
"367 -12 OFFCURVE",
"312 -12 OFFCURVE",
"245 -12 CURVE SMOOTH",
"225 -12 OFFCURVE",
"211 7 OFFCURVE",
"211 31 CURVE SMOOTH"
);
}
);
width = 580;
}
);
note = Lcaron;
unicode = 013D;
},
{
glyphname = Ldot;
lastChange = "2015-11-03 20:15:51 +0000";
layers = (
{
layerId = "27A8C2A5-6B67-4598-967C-E5EC4FB8AE70";
name = Condensed;
paths = (
{
closed = 1;
nodes = (
"346 875 OFFCURVE",
"372 903 OFFCURVE",
"399 903 CURVE SMOOTH",
"423 903 OFFCURVE",
"448 874 OFFCURVE",
"448 850 CURVE SMOOTH",
"448 815 OFFCURVE",
"429 798 OFFCURVE",
"391 798 CURVE SMOOTH",
"367 798 OFFCURVE",
"346 823 OFFCURVE",
"346 847 CURVE SMOOTH"
);
},
{
closed = 1;
nodes = (
"211 35 OFFCURVE",
"211 46 OFFCURVE",
"212 64 CURVE",
"212 81 OFFCURVE",
"212 98 OFFCURVE",
"212 113 CURVE SMOOTH",
"212 177 OFFCURVE",
"209 274 OFFCURVE",
"202 403 CURVE SMOOTH",
"195 532 OFFCURVE",
"192 629 OFFCURVE",
"192 694 CURVE SMOOTH",
"192 789 OFFCURVE",
"189 931 OFFCURVE",
"182 1122 CURVE SMOOTH",
"175 1313 OFFCURVE",
"171 1455 OFFCURVE",
"171 1550 CURVE SMOOTH",
"171 1565 OFFCURVE",
"185 1574 OFFCURVE",
"201 1574 CURVE SMOOTH",
"225 1574 OFFCURVE",
"237 1564 OFFCURVE",
"237 1545 CURVE SMOOTH",
"237 1290 OFFCURVE",
"240 1101 OFFCURVE",
"245 977 CURVE SMOOTH",
"255 610 LINE SMOOTH",
"255 552 OFFCURVE",
"259 459 OFFCURVE",
"266 330 CURVE SMOOTH",
"273 201 OFFCURVE",
"277 116 OFFCURVE",
"278 75 CURVE SMOOTH",
"278 72 OFFCURVE",
"280 70 OFFCURVE",
"284 69 CURVE",
"287 68 OFFCURVE",
"297 68 OFFCURVE",
"312 68 CURVE SMOOTH",
"438 68 LINE SMOOTH",
"457 68 OFFCURVE",
"466 56 OFFCURVE",
"466 31 CURVE SMOOTH",
"466 11 OFFCURVE",
"457 -9 OFFCURVE",
"441 -9 CURVE SMOOTH",
"439 -9 OFFCURVE",
"434 -9 OFFCURVE",
"427 -10 CURVE SMOOTH",
"420 -11 OFFCURVE",
"414 -11 OFFCURVE",
"410 -11 CURVE SMOOTH",
"367 -12 OFFCURVE",
"312 -12 OFFCURVE",
"245 -12 CURVE SMOOTH",
"225 -12 OFFCURVE",
"211 7 OFFCURVE",
"211 31 CURVE SMOOTH"
);
}
);
width = 580;
}
);
note = Ldot;
unicode = 013F;
},
{
glyphname = Lslash;
lastChange = "2015-11-03 20:15:51 +0000";
layers = (
{
layerId = "27A8C2A5-6B67-4598-967C-E5EC4FB8AE70";
name = Condensed;
paths = (
{
closed = 1;
nodes = (
"33 727 OFFCURVE",
"13 735 OFFCURVE",
"13 748 CURVE SMOOTH",
"13 776 OFFCURVE",
"246 889 OFFCURVE",
"389 952 CURVE SMOOTH",
"396 955 OFFCURVE",
"402 956 OFFCURVE",
"409 956 CURVE SMOOTH",
"424 956 OFFCURVE",
"444 948 OFFCURVE",
"444 936 CURVE SMOOTH",
"444 913 OFFCURVE",
"318 845 OFFCURVE",
"66 731 CURVE",
"58 728 OFFCURVE",
"51 727 OFFCURVE",
"46 727 CURVE SMOOTH"
);
},
{
closed = 1;
nodes = (
"211 35 OFFCURVE",
"211 46 OFFCURVE",
"212 64 CURVE",
"212 81 OFFCURVE",
"212 98 OFFCURVE",
"212 113 CURVE SMOOTH",
"212 177 OFFCURVE",
"209 274 OFFCURVE",
"202 403 CURVE SMOOTH",
"195 532 OFFCURVE",
"192 629 OFFCURVE",
"192 694 CURVE SMOOTH",
"192 789 OFFCURVE",
"189 931 OFFCURVE",
"182 1122 CURVE SMOOTH",
"175 1313 OFFCURVE",
"171 1455 OFFCURVE",
"171 1550 CURVE SMOOTH",
"171 1565 OFFCURVE",
"185 1574 OFFCURVE",
"201 1574 CURVE SMOOTH",
"225 1574 OFFCURVE",
"237 1564 OFFCURVE",
"237 1545 CURVE SMOOTH",
"237 1290 OFFCURVE",
"240 1101 OFFCURVE",
"245 977 CURVE SMOOTH",
"255 610 LINE SMOOTH",
"255 552 OFFCURVE",
"259 459 OFFCURVE",
"266 330 CURVE SMOOTH",
"273 201 OFFCURVE",
"277 116 OFFCURVE",
"278 75 CURVE SMOOTH",
"278 72 OFFCURVE",
"280 70 OFFCURVE",
"284 69 CURVE",
"287 68 OFFCURVE",
"297 68 OFFCURVE",
"312 68 CURVE SMOOTH",
"438 68 LINE SMOOTH",
"457 68 OFFCURVE",
"466 56 OFFCURVE",
"466 31 CURVE SMOOTH",
"466 11 OFFCURVE",
"457 -9 OFFCURVE",
"441 -9 CURVE SMOOTH",
"439 -9 OFFCURVE",
"434 -9 OFFCURVE",
"427 -10 CURVE SMOOTH",
"420 -11 OFFCURVE",
"414 -11 OFFCURVE",
"410 -11 CURVE SMOOTH",
"367 -12 OFFCURVE",
"312 -12 OFFCURVE",
"245 -12 CURVE SMOOTH",
"225 -12 OFFCURVE",
"211 7 OFFCURVE",
"211 31 CURVE SMOOTH"
);
}
);
width = 740;
}
);
note = Lslash;
unicode = 0141;
},
{
glyphname = M;
lastChange = "2015-11-03 20:15:51 +0000";
layers = (
{
layerId = "27A8C2A5-6B67-4598-967C-E5EC4FB8AE70";
name = Condensed;
paths = (
{
closed = 1;
nodes = (
"741 197 LINE SMOOTH",
"741 272 OFFCURVE",
"739 385 OFFCURVE",
"734 534 CURVE SMOOTH",
"729 683 OFFCURVE",
"726 795 OFFCURVE",
"726 870 CURVE SMOOTH",
"726 895 OFFCURVE",
"727 934 OFFCURVE",
"728 985 CURVE SMOOTH",
"729 1036 OFFCURVE",
"730 1075 OFFCURVE",
"730 1100 CURVE SMOOTH",
"730 1123 OFFCURVE",
"729 1156 OFFCURVE",
"727 1198 CURVE SMOOTH",
"724 1240 OFFCURVE",
"723 1268 OFFCURVE",
"722 1282 CURVE",
"721 1281 OFFCURVE",
"719 1276 OFFCURVE",
"718 1268 CURVE SMOOTH",
"683 1044 OFFCURVE",
"603 618 OFFCURVE",
"575 483 CURVE SMOOTH",
"557 398 OFFCURVE",
"545 335 OFFCURVE",
"538 296 CURVE",
"533 261 OFFCURVE",
"512 238 OFFCURVE",
"491 238 CURVE SMOOTH",
"471 238 OFFCURVE",
"453 261 OFFCURVE",
"448 302 CURVE SMOOTH",
"433 411 OFFCURVE",
"261 1294 OFFCURVE",
"245 1317 CURVE",
"240 1194 OFFCURVE",
"237 1056 OFFCURVE",
"237 903 CURVE SMOOTH",
"237 830 OFFCURVE",
"238 722 OFFCURVE",
"240 577 CURVE SMOOTH",
"242 432 OFFCURVE",
"243 324 OFFCURVE",
"243 252 CURVE SMOOTH",
"243 230 OFFCURVE",
"245 198 OFFCURVE",
"248 155 CURVE SMOOTH",
"251 112 OFFCURVE",
"253 79 OFFCURVE",
"253 57 CURVE SMOOTH",
"253 32 OFFCURVE",
"248 15 OFFCURVE",
"237 4 CURVE",
"198 4 OFFCURVE",
"179 40 OFFCURVE",
"179 111 CURVE SMOOTH",
"179 453 LINE SMOOTH",
"179 498 OFFCURVE",
"180 567 OFFCURVE",
"181 660 CURVE SMOOTH",
"182 752 OFFCURVE",
"182 821 OFFCURVE",
"182 868 CURVE SMOOTH",
"182 922 OFFCURVE",
"183 1003 OFFCURVE",
"185 1111 CURVE SMOOTH",
"187 1219 OFFCURVE",
"188 1300 OFFCURVE",
"188 1354 CURVE SMOOTH",
"188 1533 LINE SMOOTH",
"188 1548 OFFCURVE",
"203 1561 OFFCURVE",
"218 1561 CURVE SMOOTH",
"228 1561 OFFCURVE",
"235 1555 OFFCURVE",
"239 1544 CURVE",
"263 1468 OFFCURVE",
"391 949 OFFCURVE",
"442 717 CURVE SMOOTH",
"453 665 OFFCURVE",
"473 551 OFFCURVE",
"502 376 CURVE",
"505 395 OFFCURVE",
"516 456 OFFCURVE",
"534 559 CURVE SMOOTH",
"551 662 OFFCURVE",
"562 722 OFFCURVE",
"565 739 CURVE SMOOTH",
"573 778 OFFCURVE",
"604 945 OFFCURVE",
"659 1241 CURVE SMOOTH",
"664 1265 OFFCURVE",
"670 1300 OFFCURVE",
"679 1347 CURVE SMOOTH",
"687 1393 OFFCURVE",
"694 1431 OFFCURVE",
"700 1462 CURVE SMOOTH",
"705 1493 OFFCURVE",
"709 1513 OFFCURVE",
"710 1523 CURVE",
"715 1551 OFFCURVE",
"729 1566 OFFCURVE",
"745 1566 CURVE SMOOTH",
"760 1566 OFFCURVE",
"773 1552 OFFCURVE",
"773 1528 CURVE SMOOTH",
"773 1325 LINE SMOOTH",
"773 1222 OFFCURVE",
"779 1067 OFFCURVE",
"790 861 CURVE SMOOTH",
"801 655 OFFCURVE",
"806 501 OFFCURVE",
"806 399 CURVE SMOOTH",
"806 361 OFFCURVE",
"808 305 OFFCURVE",
"811 230 CURVE SMOOTH",
"814 155 OFFCURVE",
"816 86 OFFCURVE",
"816 24 CURVE SMOOTH",
"816 -6 OFFCURVE",
"814 -25 OFFCURVE",
"809 -34 CURVE SMOOTH",
"804 -43 OFFCURVE",
"796 -47 OFFCURVE",
"786 -47 CURVE SMOOTH",
"747 -47 OFFCURVE",
"741 -27 OFFCURVE",
"741 10 CURVE SMOOTH"
);
}
);
width = 980;
}
);
note = M;
unicode = 004D;
},
{
glyphname = N;
lastChange = "2015-11-03 20:15:51 +0000";
layers = (
{
layerId = "27A8C2A5-6B67-4598-967C-E5EC4FB8AE70";
name = Condensed;
paths = (
{
closed = 1;
nodes = (
"243 1413 OFFCURVE",
"242 1384 OFFCURVE",
"242 1341 CURVE SMOOTH",
"242 600 LINE SMOOTH",
"242 535 OFFCURVE",
"244 437 OFFCURVE",
"247 308 CURVE SMOOTH",
"250 179 OFFCURVE",
"252 81 OFFCURVE",
"252 16 CURVE",
"238 0 LINE",
"191 0 LINE",
"185 16 LINE",
"188 27 OFFCURVE",
"189 54 OFFCURVE",
"189 98 CURVE SMOOTH",
"189 177 OFFCURVE",
"188 296 OFFCURVE",
"187 455 CURVE SMOOTH",
"185 613 OFFCURVE",
"184 732 OFFCURVE",
"184 811 CURVE SMOOTH",
"184 1079 LINE SMOOTH",
"184 1122 OFFCURVE",
"184 1187 OFFCURVE",
"183 1273 CURVE SMOOTH",
"182 1359 OFFCURVE",
"181 1423 OFFCURVE",
"181 1466 CURVE SMOOTH",
"181 1471 OFFCURVE",
"181 1478 OFFCURVE",
"180 1488 CURVE SMOOTH",
"179 1497 OFFCURVE",
"179 1504 OFFCURVE",
"179 1509 CURVE SMOOTH",
"179 1544 OFFCURVE",
"197 1552 OFFCURVE",
"234 1552 CURVE SMOOTH",
"251 1552 OFFCURVE",
"276 1532 OFFCURVE",
"281 1513 CURVE SMOOTH",
"290 1478 OFFCURVE",
"304 1411 OFFCURVE",
"325 1313 CURVE SMOOTH",
"346 1214 OFFCURVE",
"362 1142 OFFCURVE",
"373 1096 CURVE SMOOTH",
"375 1087 OFFCURVE",
"424 901 OFFCURVE",
"521 539 CURVE SMOOTH",
"561 373 OFFCURVE",
"596 243 OFFCURVE",
"627 150 CURVE",
"636 169 OFFCURVE",
"640 202 OFFCURVE",
"640 248 CURVE SMOOTH",
"640 327 OFFCURVE",
"641 446 OFFCURVE",
"644 605 CURVE SMOOTH",
"647 763 OFFCURVE",
"648 882 OFFCURVE",
"648 961 CURVE SMOOTH",
"648 996 OFFCURVE",
"649 1049 OFFCURVE",
"650 1120 CURVE SMOOTH",
"651 1190 OFFCURVE",
"651 1243 OFFCURVE",
"651 1278 CURVE",
"649 1567 LINE",
"654 1586 OFFCURVE",
"668 1595 OFFCURVE",
"691 1595 CURVE SMOOTH",
"702 1595 OFFCURVE",
"707 1575 OFFCURVE",
"707 1535 CURVE SMOOTH",
"707 1524 OFFCURVE",
"707 1510 OFFCURVE",
"706 1493 CURVE SMOOTH",
"705 1475 OFFCURVE",
"704 1464 OFFCURVE",
"704 1460 CURVE SMOOTH",
"704 1329 LINE SMOOTH",
"704 1219 OFFCURVE",
"703 1057 OFFCURVE",
"702 843 CURVE SMOOTH",
"700 629 OFFCURVE",
"699 468 OFFCURVE",
"699 360 CURVE SMOOTH",
"699 325 OFFCURVE",
"697 272 OFFCURVE",
"694 199 CURVE SMOOTH",
"691 126 OFFCURVE",
"689 72 OFFCURVE",
"689 37 CURVE SMOOTH",
"689 -3 OFFCURVE",
"672 -23 OFFCURVE",
"637 -23 CURVE SMOOTH",
"616 -23 OFFCURVE",
"599 2 OFFCURVE",
"594 24 CURVE",
"591 35 OFFCURVE",
"589 48 OFFCURVE",
"586 64 CURVE SMOOTH",
"583 79 OFFCURVE",
"581 89 OFFCURVE",
"580 94 CURVE",
"430 634 OFFCURVE",
"346 941 OFFCURVE",
"328 1016 CURVE SMOOTH",
"320 1050 OFFCURVE",
"292 1187 OFFCURVE",
"244 1426 CURVE"
);
}
);
width = 900;
}
);
note = N;
unicode = 004E;
},
{
glyphname = Nacute;
lastChange = "2015-11-03 20:15:51 +0000";
layers = (
{
layerId = "27A8C2A5-6B67-4598-967C-E5EC4FB8AE70";
name = Condensed;
paths = (
{
closed = 1;
nodes = (
"341 1875 OFFCURVE",
"360 1893 OFFCURVE",
"397 1923 CURVE SMOOTH",
"434 1953 OFFCURVE",
"475 1985 OFFCURVE",
"519 2019 CURVE SMOOTH",
"562 2052 OFFCURVE",
"588 2072 OFFCURVE",
"595 2079 CURVE",
"625 2079 OFFCURVE",
"640 2068 OFFCURVE",
"640 2047 CURVE SMOOTH",
"640 2046 OFFCURVE",
"638 2036 OFFCURVE",
"634 2016 CURVE",
"565 1985 OFFCURVE",
"480 1927 OFFCURVE",
"378 1840 CURVE",
"358 1840 OFFCURVE",
"341 1851 OFFCURVE",
"341 1870 CURVE SMOOTH"
);
},
{
closed = 1;
nodes = (
"243 1413 OFFCURVE",
"242 1384 OFFCURVE",
"242 1341 CURVE SMOOTH",
"242 600 LINE SMOOTH",
"242 535 OFFCURVE",
"244 437 OFFCURVE",
"247 308 CURVE SMOOTH",
"250 179 OFFCURVE",
"252 81 OFFCURVE",
"252 16 CURVE",
"238 0 LINE",
"191 0 LINE",
"185 16 LINE",
"188 27 OFFCURVE",
"189 54 OFFCURVE",
"189 98 CURVE SMOOTH",
"189 177 OFFCURVE",
"188 296 OFFCURVE",
"187 455 CURVE SMOOTH",
"185 613 OFFCURVE",
"184 732 OFFCURVE",
"184 811 CURVE SMOOTH",
"184 1079 LINE SMOOTH",
"184 1122 OFFCURVE",
"184 1187 OFFCURVE",
"183 1273 CURVE SMOOTH",
"182 1359 OFFCURVE",
"181 1423 OFFCURVE",
"181 1466 CURVE SMOOTH",
"181 1471 OFFCURVE",
"181 1478 OFFCURVE",
"180 1488 CURVE SMOOTH",
"179 1497 OFFCURVE",
"179 1504 OFFCURVE",
"179 1509 CURVE SMOOTH",
"179 1544 OFFCURVE",
"197 1552 OFFCURVE",
"234 1552 CURVE SMOOTH",
"251 1552 OFFCURVE",
"276 1532 OFFCURVE",
"281 1513 CURVE SMOOTH",
"290 1478 OFFCURVE",
"304 1411 OFFCURVE",
"325 1313 CURVE SMOOTH",
"346 1214 OFFCURVE",
"362 1142 OFFCURVE",
"373 1096 CURVE SMOOTH",
"375 1087 OFFCURVE",
"424 901 OFFCURVE",
"521 539 CURVE SMOOTH",
"561 373 OFFCURVE",
"596 243 OFFCURVE",
"627 150 CURVE",
"636 169 OFFCURVE",
"640 202 OFFCURVE",
"640 248 CURVE SMOOTH",
"640 327 OFFCURVE",
"641 446 OFFCURVE",
"644 605 CURVE SMOOTH",
"647 763 OFFCURVE",
"648 882 OFFCURVE",
"648 961 CURVE SMOOTH",
"648 996 OFFCURVE",
"649 1049 OFFCURVE",
"650 1120 CURVE SMOOTH",
"651 1190 OFFCURVE",
"651 1243 OFFCURVE",
"651 1278 CURVE",
"649 1567 LINE",
"654 1586 OFFCURVE",
"668 1595 OFFCURVE",
"691 1595 CURVE SMOOTH",
"702 1595 OFFCURVE",
"707 1575 OFFCURVE",
"707 1535 CURVE SMOOTH",
"707 1524 OFFCURVE",
"707 1510 OFFCURVE",
"706 1493 CURVE SMOOTH",
"705 1475 OFFCURVE",
"704 1464 OFFCURVE",
"704 1460 CURVE SMOOTH",
"704 1329 LINE SMOOTH",
"704 1219 OFFCURVE",
"703 1057 OFFCURVE",
"702 843 CURVE SMOOTH",
"700 629 OFFCURVE",
"699 468 OFFCURVE",
"699 360 CURVE SMOOTH",
"699 325 OFFCURVE",
"697 272 OFFCURVE",
"694 199 CURVE SMOOTH",
"691 126 OFFCURVE",
"689 72 OFFCURVE",
"689 37 CURVE SMOOTH",
"689 -3 OFFCURVE",
"672 -23 OFFCURVE",
"637 -23 CURVE SMOOTH",
"616 -23 OFFCURVE",
"599 2 OFFCURVE",
"594 24 CURVE",
"591 35 OFFCURVE",
"589 48 OFFCURVE",
"586 64 CURVE SMOOTH",
"583 79 OFFCURVE",
"581 89 OFFCURVE",
"580 94 CURVE",
"430 634 OFFCURVE",
"346 941 OFFCURVE",
"328 1016 CURVE SMOOTH",
"320 1050 OFFCURVE",
"292 1187 OFFCURVE",
"244 1426 CURVE"
);
}
);
width = 900;
}
);
note = Nacute;
unicode = 0143;
},
{
glyphname = Ncaron;
lastChange = "2015-11-03 20:15:51 +0000";
layers = (
{
layerId = "27A8C2A5-6B67-4598-967C-E5EC4FB8AE70";
name = Condensed;
paths = (
{
closed = 1;
nodes = (
"559 2064 LINE",
"584 2060 OFFCURVE",
"596 2052 OFFCURVE",
"596 2040 CURVE SMOOTH",
"596 2035 OFFCURVE",
"593 2028 OFFCURVE",
"588 2017 CURVE",
"590 2007 LINE",
"575 1976 LINE",
"577 1964 LINE",
"572 1947 OFFCURVE",
"564 1922 OFFCURVE",
"553 1890 CURVE SMOOTH",
"529 1825 OFFCURVE",
"516 1777 OFFCURVE",
"516 1724 CURVE SMOOTH",
"516 1695 OFFCURVE",
"506 1681 OFFCURVE",
"487 1681 CURVE SMOOTH",
"446 1681 OFFCURVE",
"318 1967 OFFCURVE",
"315 2027 CURVE",
"352 2054 LINE",
"387 2007 LINE",
"388 1994 OFFCURVE",
"394 1970 OFFCURVE",
"405 1937 CURVE SMOOTH",
"426 1870 OFFCURVE",
"470 1748 OFFCURVE",
"473 1741 CURVE",
"506 1863 OFFCURVE",
"525 1965 OFFCURVE",
"532 2048 CURVE"
);
},
{
closed = 1;
nodes = (
"243 1413 OFFCURVE",
"242 1384 OFFCURVE",
"242 1341 CURVE SMOOTH",
"242 600 LINE SMOOTH",
"242 535 OFFCURVE",
"244 437 OFFCURVE",
"247 308 CURVE SMOOTH",
"250 179 OFFCURVE",
"252 81 OFFCURVE",
"252 16 CURVE",
"238 0 LINE",
"191 0 LINE",
"185 16 LINE",
"188 27 OFFCURVE",
"189 54 OFFCURVE",
"189 98 CURVE SMOOTH",
"189 177 OFFCURVE",
"188 296 OFFCURVE",
"187 455 CURVE SMOOTH",
"185 613 OFFCURVE",
"184 732 OFFCURVE",
"184 811 CURVE SMOOTH",
"184 1079 LINE SMOOTH",
"184 1122 OFFCURVE",
"184 1187 OFFCURVE",
"183 1273 CURVE SMOOTH",
"182 1359 OFFCURVE",
"181 1423 OFFCURVE",
"181 1466 CURVE SMOOTH",
"181 1471 OFFCURVE",
"181 1478 OFFCURVE",
"180 1488 CURVE SMOOTH",
"179 1497 OFFCURVE",
"179 1504 OFFCURVE",
"179 1509 CURVE SMOOTH",
"179 1544 OFFCURVE",
"197 1552 OFFCURVE",
"234 1552 CURVE SMOOTH",
"251 1552 OFFCURVE",
"276 1532 OFFCURVE",
"281 1513 CURVE SMOOTH",
"290 1478 OFFCURVE",
"304 1411 OFFCURVE",
"325 1313 CURVE SMOOTH",
"346 1214 OFFCURVE",
"362 1142 OFFCURVE",
"373 1096 CURVE SMOOTH",
"375 1087 OFFCURVE",
"424 901 OFFCURVE",
"521 539 CURVE SMOOTH",
"561 373 OFFCURVE",
"596 243 OFFCURVE",
"627 150 CURVE",
"636 169 OFFCURVE",
"640 202 OFFCURVE",
"640 248 CURVE SMOOTH",
"640 327 OFFCURVE",
"641 446 OFFCURVE",
"644 605 CURVE SMOOTH",
"647 763 OFFCURVE",
"648 882 OFFCURVE",
"648 961 CURVE SMOOTH",
"648 996 OFFCURVE",
"649 1049 OFFCURVE",
"650 1120 CURVE SMOOTH",
"651 1190 OFFCURVE",
"651 1243 OFFCURVE",
"651 1278 CURVE",
"649 1567 LINE",
"654 1586 OFFCURVE",
"668 1595 OFFCURVE",
"691 1595 CURVE SMOOTH",
"702 1595 OFFCURVE",
"707 1575 OFFCURVE",
"707 1535 CURVE SMOOTH",
"707 1524 OFFCURVE",
"707 1510 OFFCURVE",
"706 1493 CURVE SMOOTH",
"705 1475 OFFCURVE",
"704 1464 OFFCURVE",
"704 1460 CURVE SMOOTH",
"704 1329 LINE SMOOTH",
"704 1219 OFFCURVE",
"703 1057 OFFCURVE",
"702 843 CURVE SMOOTH",
"700 629 OFFCURVE",
"699 468 OFFCURVE",
"699 360 CURVE SMOOTH",
"699 325 OFFCURVE",
"697 272 OFFCURVE",
"694 199 CURVE SMOOTH",
"691 126 OFFCURVE",
"689 72 OFFCURVE",
"689 37 CURVE SMOOTH",
"689 -3 OFFCURVE",
"672 -23 OFFCURVE",
"637 -23 CURVE SMOOTH",
"616 -23 OFFCURVE",
"599 2 OFFCURVE",
"594 24 CURVE",
"591 35 OFFCURVE",
"589 48 OFFCURVE",
"586 64 CURVE SMOOTH",
"583 79 OFFCURVE",
"581 89 OFFCURVE",
"580 94 CURVE",
"430 634 OFFCURVE",
"346 941 OFFCURVE",
"328 1016 CURVE SMOOTH",
"320 1050 OFFCURVE",
"292 1187 OFFCURVE",
"244 1426 CURVE"
);
}
);
width = 900;
}
);
note = Ncaron;
unicode = 0147;
},
{
glyphname = Eng;
lastChange = "2015-11-03 20:15:51 +0000";
layers = (
{
layerId = "27A8C2A5-6B67-4598-967C-E5EC4FB8AE70";
name = Condensed;
paths = (
{
closed = 1;
nodes = (
"691 -274 OFFCURVE",
"617 -394 OFFCURVE",
"517 -467 CURVE",
"488 -467 OFFCURVE",
"474 -454 OFFCURVE",
"474 -428 CURVE",
"475 -412 OFFCURVE",
"497 -395 OFFCURVE",
"523 -378 CURVE SMOOTH",
"536 -370 OFFCURVE",
"544 -364 OFFCURVE",
"548 -360 CURVE SMOOTH",
"608 -300 OFFCURVE",
"638 -196 OFFCURVE",
"638 -47 CURVE SMOOTH",
"638 -29 LINE",
"630 -18 OFFCURVE",
"623 0 OFFCURVE",
"616 23 CURVE SMOOTH",
"516 339 OFFCURVE",
"495 398 OFFCURVE",
"422 669 CURVE SMOOTH",
"385 804 OFFCURVE",
"358 920 OFFCURVE",
"341 1016 CURVE SMOOTH",
"340 1022 OFFCURVE",
"339 1032 OFFCURVE",
"338 1045 CURVE",
"337 1071 OFFCURVE",
"332 1089 OFFCURVE",
"319 1102 CURVE",
"323 1112 LINE",
"322 1120 OFFCURVE",
"305 1211 OFFCURVE",
"301 1232 CURVE",
"298 1242 OFFCURVE",
"294 1259 OFFCURVE",
"289 1284 CURVE SMOOTH",
"278 1333 OFFCURVE",
"268 1366 OFFCURVE",
"253 1401 CURVE",
"252 1392 OFFCURVE",
"249 1373 OFFCURVE",
"248 1360 CURVE",
"247 1353 OFFCURVE",
"247 1347 OFFCURVE",
"247 1341 CURVE SMOOTH",
"247 1324 OFFCURVE",
"248 1311 OFFCURVE",
"251 1303 CURVE",
"242 1271 OFFCURVE",
"237 1224 OFFCURVE",
"237 1161 CURVE SMOOTH",
"237 600 LINE SMOOTH",
"237 535 OFFCURVE",
"242 437 OFFCURVE",
"251 308 CURVE SMOOTH",
"260 179 OFFCURVE",
"265 81 OFFCURVE",
"265 16 CURVE",
"251 0 LINE",
"204 0 LINE",
"198 16 LINE",
"201 27 OFFCURVE",
"202 54 OFFCURVE",
"202 98 CURVE SMOOTH",
"202 177 OFFCURVE",
"198 296 OFFCURVE",
"191 455 CURVE SMOOTH",
"183 613 OFFCURVE",
"179 732 OFFCURVE",
"179 811 CURVE SMOOTH",
"179 1079 LINE SMOOTH",
"179 1122 OFFCURVE",
"182 1187 OFFCURVE",
"187 1273 CURVE SMOOTH",
"192 1359 OFFCURVE",
"194 1423 OFFCURVE",
"194 1466 CURVE SMOOTH",
"194 1471 OFFCURVE",
"194 1478 OFFCURVE",
"193 1488 CURVE SMOOTH",
"192 1497 OFFCURVE",
"192 1504 OFFCURVE",
"192 1509 CURVE SMOOTH",
"192 1544 OFFCURVE",
"210 1552 OFFCURVE",
"247 1552 CURVE SMOOTH",
"267 1552 OFFCURVE",
"294 1532 OFFCURVE",
"294 1513 CURVE SMOOTH",
"294 1460 OFFCURVE",
"306 1422 OFFCURVE",
"329 1370 CURVE SMOOTH",
"352 1317 OFFCURVE",
"362 1289 OFFCURVE",
"373 1194 CURVE SMOOTH",
"378 1146 OFFCURVE",
"383 1113 OFFCURVE",
"386 1096 CURVE SMOOTH",
"409 984 OFFCURVE",
"442 864 OFFCURVE",
"486 713 CURVE SMOOTH",
"529 562 OFFCURVE",
"532 554 OFFCURVE",
"557 435 CURVE SMOOTH",
"569 375 OFFCURVE",
"578 334 OFFCURVE",
"585 313 CURVE SMOOTH",
"644 115 LINE",
"650 184 OFFCURVE",
"653 229 OFFCURVE",
"653 248 CURVE SMOOTH",
"653 327 OFFCURVE",
"654 446 OFFCURVE",
"657 605 CURVE SMOOTH",
"660 763 OFFCURVE",
"661 882 OFFCURVE",
"661 961 CURVE SMOOTH",
"661 996 OFFCURVE",
"660 1049 OFFCURVE",
"658 1120 CURVE SMOOTH",
"656 1190 OFFCURVE",
"655 1243 OFFCURVE",
"655 1278 CURVE SMOOTH",
"655 1287 OFFCURVE",
"656 1301 OFFCURVE",
"658 1318 CURVE SMOOTH",
"660 1335 OFFCURVE",
"661 1348 OFFCURVE",
"661 1356 CURVE SMOOTH",
"661 1371 OFFCURVE",
"659 1379 OFFCURVE",
"655 1382 CURVE",
"661 1399 LINE",
"661 1446 LINE SMOOTH",
"661 1501 OFFCURVE",
"658 1541 OFFCURVE",
"653 1567 CURVE",
"658 1586 OFFCURVE",
"675 1595 OFFCURVE",
"704 1595 CURVE SMOOTH",
"726 1595 OFFCURVE",
"737 1573 OFFCURVE",
"737 1528 CURVE",
"728 1511 OFFCURVE",
"724 1488 OFFCURVE",
"724 1460 CURVE SMOOTH",
"724 1452 OFFCURVE",
"724 1440 OFFCURVE",
"725 1425 CURVE SMOOTH",
"726 1410 OFFCURVE",
"726 1398 OFFCURVE",
"726 1391 CURVE SMOOTH",
"726 1362 OFFCURVE",
"723 1341 OFFCURVE",
"718 1329 CURVE",
"718 1258 OFFCURVE",
"717 1150 OFFCURVE",
"715 1006 CURVE SMOOTH",
"713 862 OFFCURVE",
"712 754 OFFCURVE",
"712 682 CURVE SMOOTH",
"712 669 OFFCURVE",
"713 651 OFFCURVE",
"716 627 CURVE",
"712 618 LINE",
"712 360 LINE SMOOTH",
"712 325 OFFCURVE",
"710 272 OFFCURVE",
"707 199 CURVE SMOOTH",
"704 126 OFFCURVE",
"702 72 OFFCURVE",
"702 37 CURVE SMOOTH",
"702 22 OFFCURVE",
"700 -4 OFFCURVE",
"697 -39 CURVE SMOOTH",
"693 -74 OFFCURVE",
"691 -105 OFFCURVE",
"691 -131 CURVE SMOOTH"
);
}
);
width = 920;
}
);
note = Eng;
unicode = 014A;
},
{
glyphname = Ntilde;
lastChange = "2015-11-03 20:15:51 +0000";
layers = (
{
layerId = "27A8C2A5-6B67-4598-967C-E5EC4FB8AE70";
name = Condensed;
paths = (
{
closed = 1;
nodes = (
"233 1874 OFFCURVE",
"288 1928 OFFCURVE",
"352 1928 CURVE SMOOTH",
"386 1928 OFFCURVE",
"415 1914 OFFCURVE",
"439 1886 CURVE",
"459 1846 OFFCURVE",
"515 1807 OFFCURVE",
"556 1807 CURVE SMOOTH",
"591 1807 OFFCURVE",
"609 1831 OFFCURVE",
"609 1880 CURVE SMOOTH",
"609 1885 OFFCURVE",
"607 1892 OFFCURVE",
"604 1901 CURVE",
"600 1909 OFFCURVE",
"598 1915 OFFCURVE",
"597 1919 CURVE",
"601 1927 OFFCURVE",
"608 1931 OFFCURVE",
"618 1931 CURVE SMOOTH",
"650 1931 OFFCURVE",
"665 1896 OFFCURVE",
"665 1861 CURVE SMOOTH",
"665 1804 OFFCURVE",
"613 1753 OFFCURVE",
"556 1753 CURVE SMOOTH",
"507 1753 OFFCURVE",
"451 1790 OFFCURVE",
"426 1816 CURVE SMOOTH",
"413 1829 OFFCURVE",
"396 1848 OFFCURVE",
"374 1874 CURVE",
"360 1880 LINE",
"320 1880 OFFCURVE",
"284 1856 OFFCURVE",
"284 1825 CURVE SMOOTH",
"284 1820 OFFCURVE",
"287 1805 OFFCURVE",
"294 1782 CURVE",
"272 1751 LINE",
"255 1751 OFFCURVE",
"233 1769 OFFCURVE",
"233 1786 CURVE SMOOTH"
);
},
{
closed = 1;
nodes = (
"243 1413 OFFCURVE",
"242 1384 OFFCURVE",
"242 1341 CURVE SMOOTH",
"242 600 LINE SMOOTH",
"242 535 OFFCURVE",
"244 437 OFFCURVE",
"247 308 CURVE SMOOTH",
"250 179 OFFCURVE",
"252 81 OFFCURVE",
"252 16 CURVE",
"238 0 LINE",
"191 0 LINE",
"185 16 LINE",
"188 27 OFFCURVE",
"189 54 OFFCURVE",
"189 98 CURVE SMOOTH",
"189 177 OFFCURVE",
"188 296 OFFCURVE",
"187 455 CURVE SMOOTH",
"185 613 OFFCURVE",
"184 732 OFFCURVE",
"184 811 CURVE SMOOTH",
"184 1079 LINE SMOOTH",
"184 1122 OFFCURVE",
"184 1187 OFFCURVE",
"183 1273 CURVE SMOOTH",
"182 1359 OFFCURVE",
"181 1423 OFFCURVE",
"181 1466 CURVE SMOOTH",
"181 1471 OFFCURVE",
"181 1478 OFFCURVE",
"180 1488 CURVE SMOOTH",
"179 1497 OFFCURVE",
"179 1504 OFFCURVE",
"179 1509 CURVE SMOOTH",
"179 1544 OFFCURVE",
"197 1552 OFFCURVE",
"234 1552 CURVE SMOOTH",
"251 1552 OFFCURVE",
"276 1532 OFFCURVE",
"281 1513 CURVE SMOOTH",
"290 1478 OFFCURVE",
"304 1411 OFFCURVE",
"325 1313 CURVE SMOOTH",
"346 1214 OFFCURVE",
"362 1142 OFFCURVE",
"373 1096 CURVE SMOOTH",
"375 1087 OFFCURVE",
"424 901 OFFCURVE",
"521 539 CURVE SMOOTH",
"561 373 OFFCURVE",
"596 243 OFFCURVE",
"627 150 CURVE",
"636 169 OFFCURVE",
"640 202 OFFCURVE",
"640 248 CURVE SMOOTH",
"640 327 OFFCURVE",
"641 446 OFFCURVE",
"644 605 CURVE SMOOTH",
"647 763 OFFCURVE",
"648 882 OFFCURVE",
"648 961 CURVE SMOOTH",
"648 996 OFFCURVE",
"649 1049 OFFCURVE",
"650 1120 CURVE SMOOTH",
"651 1190 OFFCURVE",
"651 1243 OFFCURVE",
"651 1278 CURVE",
"649 1567 LINE",
"654 1586 OFFCURVE",
"668 1595 OFFCURVE",
"691 1595 CURVE SMOOTH",
"702 1595 OFFCURVE",
"707 1575 OFFCURVE",
"707 1535 CURVE SMOOTH",
"707 1524 OFFCURVE",
"707 1510 OFFCURVE",
"706 1493 CURVE SMOOTH",
"705 1475 OFFCURVE",
"704 1464 OFFCURVE",
"704 1460 CURVE SMOOTH",
"704 1329 LINE SMOOTH",
"704 1219 OFFCURVE",
"703 1057 OFFCURVE",
"702 843 CURVE SMOOTH",
"700 629 OFFCURVE",
"699 468 OFFCURVE",
"699 360 CURVE SMOOTH",
"699 325 OFFCURVE",
"697 272 OFFCURVE",
"694 199 CURVE SMOOTH",
"691 126 OFFCURVE",
"689 72 OFFCURVE",
"689 37 CURVE SMOOTH",
"689 -3 OFFCURVE",
"672 -23 OFFCURVE",
"637 -23 CURVE SMOOTH",
"616 -23 OFFCURVE",
"599 2 OFFCURVE",
"594 24 CURVE",
"591 35 OFFCURVE",
"589 48 OFFCURVE",
"586 64 CURVE SMOOTH",
"583 79 OFFCURVE",
"581 89 OFFCURVE",
"580 94 CURVE",
"430 634 OFFCURVE",
"346 941 OFFCURVE",
"328 1016 CURVE SMOOTH",
"320 1050 OFFCURVE",
"292 1187 OFFCURVE",
"244 1426 CURVE"
);
}
);
width = 900;
}
);
note = Ntilde;
unicode = 00D1;
},
{
glyphname = O;
lastChange = "2015-11-03 20:15:51 +0000";
layers = (
{
layerId = "27A8C2A5-6B67-4598-967C-E5EC4FB8AE70";
name = Condensed;
paths = (
{
closed = 1;
nodes = (
"336 1518 OFFCURVE",
"299 1472 OFFCURVE",
"279 1393 CURVE SMOOTH",
"258 1314 OFFCURVE",
"243 1239 OFFCURVE",
"238 1139 CURVE SMOOTH",
"233 1038 OFFCURVE",
"232 994 OFFCURVE",
"232 931 CURVE SMOOTH",
"232 831 LINE SMOOTH",
"232 760 OFFCURVE",
"238 646 OFFCURVE",
"259 484 CURVE SMOOTH",
"280 322 OFFCURVE",
"308 182 OFFCURVE",
"365 86 CURVE SMOOTH",
"393 38 OFFCURVE",
"424 14 OFFCURVE",
"459 14 CURVE SMOOTH",
"504 14 OFFCURVE",
"541 68 OFFCURVE",
"561 157 CURVE SMOOTH",
"581 245 OFFCURVE",
"595 330 OFFCURVE",
"600 439 CURVE SMOOTH",
"605 548 OFFCURVE",
"606 594 OFFCURVE",
"606 653 CURVE SMOOTH",
"606 662 LINE SMOOTH",
"606 727 OFFCURVE",
"606 762 OFFCURVE",
"603 867 CURVE SMOOTH",
"599 972 OFFCURVE",
"590 1046 OFFCURVE",
"578 1154 CURVE SMOOTH",
"565 1261 OFFCURVE",
"540 1336 OFFCURVE",
"511 1408 CURVE SMOOTH",
"482 1479 OFFCURVE",
"436 1518 OFFCURVE",
"383 1518 CURVE SMOOTH"
);
},
{
closed = 1;
nodes = (
"171 1025 LINE SMOOTH",
"171 1138 OFFCURVE",
"174 1220 OFFCURVE",
"191 1323 CURVE SMOOTH",
"207 1426 OFFCURVE",
"232 1492 OFFCURVE",
"283 1537 CURVE SMOOTH",
"308 1560 OFFCURVE",
"338 1571 OFFCURVE",
"373 1571 CURVE SMOOTH",
"442 1571 OFFCURVE",
"498 1541 OFFCURVE",
"531 1501 CURVE SMOOTH",
"563 1461 OFFCURVE",
"589 1391 OFFCURVE",
"601 1336 CURVE SMOOTH",
"606 1309 OFFCURVE",
"612 1276 OFFCURVE",
"617 1239 CURVE SMOOTH",
"650 1006 OFFCURVE",
"666 799 OFFCURVE",
"666 618 CURVE SMOOTH",
"666 612 LINE SMOOTH",
"666 539 OFFCURVE",
"666 510 OFFCURVE",
"663 423 CURVE SMOOTH",
"659 335 OFFCURVE",
"652 287 OFFCURVE",
"640 208 CURVE SMOOTH",
"627 128 OFFCURVE",
"605 80 OFFCURVE",
"577 31 CURVE SMOOTH",
"548 -18 OFFCURVE",
"506 -43 OFFCURVE",
"455 -43 CURVE SMOOTH",
"266 -43 OFFCURVE",
"171 285 OFFCURVE",
"171 942 CURVE SMOOTH"
);
}
);
width = 840;
}
);
note = O;
unicode = 004F;
},
{
glyphname = Oacute;
lastChange = "2015-11-03 20:15:51 +0000";
layers = (
{
layerId = "27A8C2A5-6B67-4598-967C-E5EC4FB8AE70";
name = Condensed;
paths = (
{
closed = 1;
nodes = (
"261 1875 OFFCURVE",
"280 1893 OFFCURVE",
"317 1923 CURVE SMOOTH",
"354 1953 OFFCURVE",
"395 1985 OFFCURVE",
"439 2019 CURVE SMOOTH",
"482 2052 OFFCURVE",
"508 2072 OFFCURVE",
"515 2079 CURVE",
"545 2079 OFFCURVE",
"560 2068 OFFCURVE",
"560 2047 CURVE SMOOTH",
"560 2046 OFFCURVE",
"558 2036 OFFCURVE",
"554 2016 CURVE",
"485 1985 OFFCURVE",
"400 1927 OFFCURVE",
"298 1840 CURVE",
"278 1840 OFFCURVE",
"261 1851 OFFCURVE",
"261 1870 CURVE SMOOTH"
);
},
{
closed = 1;
nodes = (
"336 1518 OFFCURVE",
"299 1472 OFFCURVE",
"279 1393 CURVE SMOOTH",
"258 1314 OFFCURVE",
"243 1239 OFFCURVE",
"238 1139 CURVE SMOOTH",
"233 1038 OFFCURVE",
"232 994 OFFCURVE",
"232 931 CURVE SMOOTH",
"232 831 LINE SMOOTH",
"232 760 OFFCURVE",
"238 646 OFFCURVE",
"259 484 CURVE SMOOTH",
"280 322 OFFCURVE",
"308 182 OFFCURVE",
"365 86 CURVE SMOOTH",
"393 38 OFFCURVE",
"424 14 OFFCURVE",
"459 14 CURVE SMOOTH",
"504 14 OFFCURVE",
"541 68 OFFCURVE",
"561 157 CURVE SMOOTH",
"581 245 OFFCURVE",
"595 330 OFFCURVE",
"600 439 CURVE SMOOTH",
"605 548 OFFCURVE",
"606 594 OFFCURVE",
"606 653 CURVE SMOOTH",
"606 662 LINE SMOOTH",
"606 727 OFFCURVE",
"606 762 OFFCURVE",
"603 867 CURVE SMOOTH",
"599 972 OFFCURVE",
"590 1046 OFFCURVE",
"578 1154 CURVE SMOOTH",
"565 1261 OFFCURVE",
"540 1336 OFFCURVE",
"511 1408 CURVE SMOOTH",
"482 1479 OFFCURVE",
"436 1518 OFFCURVE",
"383 1518 CURVE SMOOTH"
);
},
{
closed = 1;
nodes = (
"171 1025 LINE SMOOTH",
"171 1138 OFFCURVE",
"174 1220 OFFCURVE",
"191 1323 CURVE SMOOTH",
"207 1426 OFFCURVE",
"232 1492 OFFCURVE",
"283 1537 CURVE SMOOTH",
"308 1560 OFFCURVE",
"338 1571 OFFCURVE",
"373 1571 CURVE SMOOTH",
"442 1571 OFFCURVE",
"498 1541 OFFCURVE",
"531 1501 CURVE SMOOTH",
"563 1461 OFFCURVE",
"589 1391 OFFCURVE",
"601 1336 CURVE SMOOTH",
"606 1309 OFFCURVE",
"612 1276 OFFCURVE",
"617 1239 CURVE SMOOTH",
"650 1006 OFFCURVE",
"666 799 OFFCURVE",
"666 618 CURVE SMOOTH",
"666 612 LINE SMOOTH",
"666 539 OFFCURVE",
"666 510 OFFCURVE",
"663 423 CURVE SMOOTH",
"659 335 OFFCURVE",
"652 287 OFFCURVE",
"640 208 CURVE SMOOTH",
"627 128 OFFCURVE",
"605 80 OFFCURVE",
"577 31 CURVE SMOOTH",
"548 -18 OFFCURVE",
"506 -43 OFFCURVE",
"455 -43 CURVE SMOOTH",
"266 -43 OFFCURVE",
"171 285 OFFCURVE",
"171 942 CURVE SMOOTH"
);
}
);
width = 840;
}
);
note = Oacute;
unicode = 00D3;
},
{
glyphname = Obreve;
lastChange = "2015-11-03 20:15:51 +0000";
layers = (
{
layerId = "27A8C2A5-6B67-4598-967C-E5EC4FB8AE70";
name = Condensed;
paths = (
{
closed = 1;
nodes = (
"283 1959 LINE",
"292 1958 OFFCURVE",
"299 1948 OFFCURVE",
"303 1927 CURVE SMOOTH",
"310 1886 OFFCURVE",
"322 1819 OFFCURVE",
"355 1795 CURVE SMOOTH",
"377 1779 LINE",
"428 1779 LINE SMOOTH",
"464 1779 OFFCURVE",
"498 1844 OFFCURVE",
"498 1883 CURVE SMOOTH",
"498 1886 OFFCURVE",
"498 1891 OFFCURVE",
"497 1898 CURVE SMOOTH",
"496 1904 OFFCURVE",
"496 1909 OFFCURVE",
"496 1912 CURVE SMOOTH",
"496 1938 OFFCURVE",
"508 1951 OFFCURVE",
"533 1951 CURVE SMOOTH",
"548 1951 OFFCURVE",
"564 1938 OFFCURVE",
"564 1922 CURVE SMOOTH",
"564 1919 OFFCURVE",
"562 1913 OFFCURVE",
"559 1905 CURVE SMOOTH",
"556 1897 OFFCURVE",
"554 1892 OFFCURVE",
"553 1890 CURVE",
"558 1875 LINE",
"555 1868 OFFCURVE",
"549 1857 OFFCURVE",
"542 1840 CURVE SMOOTH",
"527 1806 OFFCURVE",
"525 1800 OFFCURVE",
"509 1777 CURVE SMOOTH",
"493 1753 OFFCURVE",
"480 1747 OFFCURVE",
"454 1739 CURVE",
"441 1734 OFFCURVE",
"426 1732 OFFCURVE",
"410 1732 CURVE SMOOTH",
"355 1732 OFFCURVE",
"313 1759 OFFCURVE",
"292 1802 CURVE SMOOTH",
"271 1845 OFFCURVE",
"261 1890 OFFCURVE",
"261 1941 CURVE"
);
},
{
closed = 1;
nodes = (
"336 1518 OFFCURVE",
"299 1472 OFFCURVE",
"279 1393 CURVE SMOOTH",
"258 1314 OFFCURVE",
"243 1239 OFFCURVE",
"238 1139 CURVE SMOOTH",
"233 1038 OFFCURVE",
"232 994 OFFCURVE",
"232 931 CURVE SMOOTH",
"232 831 LINE SMOOTH",
"232 760 OFFCURVE",
"238 646 OFFCURVE",
"259 484 CURVE SMOOTH",
"280 322 OFFCURVE",
"308 182 OFFCURVE",
"365 86 CURVE SMOOTH",
"393 38 OFFCURVE",
"424 14 OFFCURVE",
"459 14 CURVE SMOOTH",
"504 14 OFFCURVE",
"541 68 OFFCURVE",
"561 157 CURVE SMOOTH",
"581 245 OFFCURVE",
"595 330 OFFCURVE",
"600 439 CURVE SMOOTH",
"605 548 OFFCURVE",
"606 594 OFFCURVE",
"606 653 CURVE SMOOTH",
"606 662 LINE SMOOTH",
"606 727 OFFCURVE",
"606 762 OFFCURVE",
"603 867 CURVE SMOOTH",
"599 972 OFFCURVE",
"590 1046 OFFCURVE",
"578 1154 CURVE SMOOTH",
"565 1261 OFFCURVE",
"540 1336 OFFCURVE",
"511 1408 CURVE SMOOTH",
"482 1479 OFFCURVE",
"436 1518 OFFCURVE",
"383 1518 CURVE SMOOTH"
);
},
{
closed = 1;
nodes = (
"171 1025 LINE SMOOTH",
"171 1138 OFFCURVE",
"174 1220 OFFCURVE",
"191 1323 CURVE SMOOTH",
"207 1426 OFFCURVE",
"232 1492 OFFCURVE",
"283 1537 CURVE SMOOTH",
"308 1560 OFFCURVE",
"338 1571 OFFCURVE",
"373 1571 CURVE SMOOTH",
"442 1571 OFFCURVE",
"498 1541 OFFCURVE",
"531 1501 CURVE SMOOTH",
"563 1461 OFFCURVE",
"589 1391 OFFCURVE",
"601 1336 CURVE SMOOTH",
"606 1309 OFFCURVE",
"612 1276 OFFCURVE",
"617 1239 CURVE SMOOTH",
"650 1006 OFFCURVE",
"666 799 OFFCURVE",
"666 618 CURVE SMOOTH",
"666 612 LINE SMOOTH",
"666 539 OFFCURVE",
"666 510 OFFCURVE",
"663 423 CURVE SMOOTH",
"659 335 OFFCURVE",
"652 287 OFFCURVE",
"640 208 CURVE SMOOTH",
"627 128 OFFCURVE",
"605 80 OFFCURVE",
"577 31 CURVE SMOOTH",
"548 -18 OFFCURVE",
"506 -43 OFFCURVE",
"455 -43 CURVE SMOOTH",
"266 -43 OFFCURVE",
"171 285 OFFCURVE",
"171 942 CURVE SMOOTH"
);
}
);
width = 840;
}
);
note = Obreve;
unicode = 014E;
},
